<svg width="145" height="60" viewBox="0 0 145 60" fill="none" xmlns="http://www.w3.org/2000/svg">
<path d="M69.6894 49.0268C69.881 46.7487 70.2324 44.5027 70.7753 42.2246C71.3183 39.9466 72.0209 37.7327 72.9471 35.5188C73.8733 33.3049 74.9592 31.1872 76.2368 29.0696C77.5143 26.984 78.9515 24.9947 80.6123 23.1017H65.4097V17.6792H87.2555V22.3958C83.7423 26.3423 81.0594 30.5776 79.1751 35.1017C77.2907 39.6578 76.2368 44.2781 75.9813 48.9947H69.6894V49.0268Z" fill="#FF0000"/>
<path d="M107.441 49.0267V34.9732H95.272V49.0267H88.7566V17.7112H95.272V29.4866H107.441V17.7112H114.02V49.0267H107.441Z" fill="#FF0000"/>
<path d="M116.575 23.0374V17.3262H122.675V23.0374H116.575ZM116.575 49.0267V25.8288H122.675V49.0267H116.575Z" fill="#FF0000"/>
<path d="M138.548 39.0803V39.7862C138.548 41.23 138.261 42.353 137.686 43.1231C137.111 43.9252 136.217 44.3102 134.971 44.3102C133.726 44.3102 132.831 43.9252 132.257 43.1231C131.714 42.3209 131.426 41.1658 131.426 39.6899V30.1605H144.201V25.8289H131.426V19.5723H125.422V40.3316C125.422 41.583 125.581 42.7701 125.933 43.9252C126.284 45.0482 126.827 46.0429 127.594 46.9092C128.36 47.7434 129.35 48.4493 130.532 48.9306C131.714 49.4439 133.151 49.7006 134.844 49.7006C136.472 49.7006 137.878 49.4439 139.059 48.9306C140.241 48.4172 141.199 47.7434 141.966 46.8771C142.732 46.0108 143.307 45.0161 143.659 43.8931C144.01 42.7701 144.201 41.615 144.201 40.3637V39.0803H138.548Z" fill="#FF0000"/>
<path d="M48.6101 6.4492C43.5 2.40642 37.0484 0 30.022 0C22.9956 0 16.576 2.40642 11.4339 6.4492H48.6101Z" fill="#FF0000"/>
<path d="M51.6123 9.14429L34.7808 59.9999C49.1211 57.7218 60.1079 45.2405 60.1079 30.1603C60.1079 22.0106 56.8821 14.5988 51.6123 9.14429Z" fill="#FF0000"/>
<path d="M35.707 17.262H2.87445C1.02203 21.1764 0 25.5721 0 30.1924C0 43.8609 9.03855 55.3796 21.3987 59.1336L35.707 17.262Z" fill="#FFCC00"/>
<path d="M69.3381 13.4118L67.5495 10.6846L66.8788 11.3584V13.4118H65.6332V7.34766H66.8788V9.81824L69.1784 7.34766H70.8072L68.4119 9.75407L70.8392 13.4439H69.3381V13.4118Z" fill="black"/>
<path d="M74.033 13.4118V10.6203C74.033 10.2674 73.9691 10.0428 73.8414 9.91443C73.7136 9.78609 73.522 9.72191 73.2665 9.72191C73.1068 9.72191 72.9791 9.754 72.8832 9.81817C72.7555 9.88234 72.6597 9.94651 72.5958 10.0428C72.5319 10.139 72.468 10.2674 72.4042 10.3957C72.3722 10.5241 72.3403 10.6845 72.3403 10.8128V13.3797H71.1586V7.21924H72.3403V9.46523C72.3722 9.36897 72.4361 9.27272 72.5319 9.17646C72.6277 9.0802 72.7235 9.01603 72.8513 8.95186C72.979 8.88769 73.1068 8.8556 73.2346 8.79143C73.3623 8.75935 73.522 8.72726 73.6817 8.72726C74.1288 8.72726 74.5121 8.8556 74.7995 9.11229C75.087 9.36897 75.2467 9.72191 75.2467 10.1711V13.3476H74.033V13.4118Z" fill="black"/>
<path d="M78.6321 13.4117V12.7699C78.3127 13.2833 77.8656 13.5079 77.2268 13.5079C77.0033 13.5079 76.8116 13.4758 76.62 13.3796C76.4284 13.2833 76.2687 13.1871 76.1409 13.0266C76.0132 12.8662 75.9174 12.7058 75.8215 12.5133C75.7257 12.3207 75.6938 12.0961 75.6938 11.8395V8.91968H76.8755V11.7111C76.8755 12.2566 77.131 12.5453 77.642 12.5453C77.9614 12.5453 78.185 12.4491 78.3447 12.2566C78.5044 12.0641 78.5682 11.8074 78.5682 11.5186V8.91968H79.75V13.4117H78.6321Z" fill="black"/>
<path d="M83.1354 12.8341C83.0396 13.0266 82.9119 13.1871 82.6883 13.3154C82.4647 13.4437 82.2092 13.4758 81.9218 13.4758C81.6982 13.4758 81.4746 13.4437 81.2511 13.3475C81.0275 13.2512 80.8678 13.155 80.7401 13.0266C80.6123 12.8983 80.4846 12.7058 80.3887 12.5133C80.2929 12.3207 80.261 12.0961 80.261 11.8395V8.91968H81.4427V11.647C81.4427 12.1924 81.6982 12.4812 82.2092 12.4812C82.4967 12.4812 82.6883 12.417 82.8799 12.2566C83.0396 12.0961 83.1354 11.9036 83.1354 11.647V8.91968H84.3171V13.54C84.3171 13.8609 84.2533 14.1496 84.1575 14.4063C84.0616 14.663 83.902 14.8555 83.7103 15.048C83.5187 15.2084 83.2951 15.3368 83.0396 15.433C82.7841 15.5293 82.5286 15.5614 82.2412 15.5614C81.5705 15.5614 81.0914 15.401 80.772 15.048C80.4526 14.7272 80.2929 14.2459 80.2929 13.6683H81.3788C81.3788 13.925 81.4427 14.1496 81.6024 14.3101C81.7621 14.4705 81.9857 14.5347 82.305 14.5347C82.4009 14.5347 82.5286 14.5026 82.6244 14.4705C82.7202 14.4384 82.816 14.3742 82.8799 14.278C82.9438 14.1817 83.0077 14.0855 83.0716 13.9571C83.1035 13.8288 83.1354 13.7004 83.1354 13.54V12.8341Z" fill="black"/>
<path d="M85.946 11.4867C85.978 11.8396 86.0738 12.0963 86.2335 12.2888C86.4251 12.4814 86.6487 12.5776 86.9361 12.5776C87.1277 12.5776 87.2874 12.5455 87.4471 12.4493C87.6068 12.353 87.7026 12.2247 87.7346 12.0642H88.9482C88.8205 12.5134 88.565 12.8985 88.2136 13.1231C87.8623 13.3477 87.4471 13.5081 86.968 13.5081C85.4669 13.5081 84.7324 12.706 84.7324 11.0696C84.7324 10.7166 84.7962 10.3958 84.8921 10.1391C84.9879 9.85034 85.1156 9.62574 85.3072 9.40114C85.4989 9.20863 85.7224 9.0482 85.978 8.95194C86.2335 8.85569 86.5528 8.79152 86.9042 8.79152C87.6068 8.79152 88.1178 9.01611 88.4691 9.46531C88.8205 9.91451 89.0121 10.5883 89.0121 11.4867H85.946ZM86.9361 7.28349L85.8821 8.21397L85.5308 7.79686L86.5209 6.73804H87.3513L88.3414 7.79686L87.9901 8.21397L86.9361 7.28349ZM87.7984 10.7166C87.7984 10.5562 87.7665 10.3958 87.7026 10.2674C87.6387 10.1391 87.5749 10.0428 87.511 9.94659C87.4152 9.85034 87.3194 9.81825 87.2235 9.75408C87.1277 9.722 87 9.68991 86.8722 9.68991C86.6487 9.68991 86.4251 9.78617 86.2654 9.94659C86.1057 10.107 86.0099 10.3637 85.978 10.6846H87.7984V10.7166ZM88.6288 8.08563L88.4053 7.66852L89.9702 6.77012L90.3216 7.37975L88.6288 8.08563Z" fill="black"/>
<path d="M92.3018 13.4118V10.6845C92.3018 10.3316 92.2379 10.107 92.1421 9.97867C92.0143 9.85033 91.8227 9.78615 91.5352 9.78615C90.9284 9.78615 90.609 10.1391 90.609 10.8129V13.3797H89.4273V8.88776H90.5451V9.56156C90.6729 9.30487 90.8645 9.11236 91.0881 8.98401C91.3117 8.85567 91.6311 8.7915 91.9824 8.7915C92.2059 8.7915 92.3976 8.82359 92.5892 8.88776C92.7808 8.95193 92.9405 9.04819 93.0683 9.17653C93.196 9.30487 93.2919 9.4653 93.3877 9.65781C93.4515 9.85033 93.5154 10.0428 93.5154 10.2995V13.4118H92.3018Z" fill="black"/>
<path d="M101.436 13.4117V10.6844C101.436 10.3957 101.372 10.2032 101.244 10.0107C101.117 9.85022 100.957 9.75397 100.733 9.75397C100.51 9.75397 100.35 9.85023 100.191 10.0427C100.063 10.2353 99.967 10.4599 99.967 10.7165V13.4117H98.7852V10.7165C98.7852 10.524 98.7852 10.3957 98.7533 10.2673C98.7214 10.139 98.6894 10.0748 98.6256 9.97857C98.5617 9.88231 98.4978 9.85022 98.402 9.85022C98.3062 9.81814 98.2104 9.81814 98.0826 9.81814C97.6035 9.81814 97.348 10.1069 97.348 10.6844V13.4117H96.1982V8.91974H97.3161V9.59354C97.4758 9.30477 97.6355 9.08017 97.859 8.98391C98.0826 8.88766 98.3381 8.82349 98.6256 8.82349C98.7852 8.82349 98.913 8.82349 99.0408 8.85557C99.1685 8.88766 99.2643 8.91974 99.3601 8.98391C99.4559 9.04809 99.5518 9.11226 99.6156 9.20851C99.7115 9.30477 99.7753 9.40103 99.8711 9.52937C99.9989 9.27268 100.159 9.11226 100.35 8.98391C100.542 8.85557 100.797 8.82349 101.085 8.82349C101.308 8.82349 101.5 8.85557 101.692 8.95183C101.883 9.016 102.043 9.14434 102.171 9.27269C102.298 9.40103 102.394 9.56146 102.49 9.75397C102.554 9.94648 102.618 10.139 102.618 10.3315V13.4438H101.436V13.4117Z" fill="black"/>
<path d="M105.876 13.4116C105.844 13.2833 105.812 13.1549 105.812 12.9945C105.684 13.1549 105.492 13.2833 105.269 13.3795C105.045 13.4758 104.758 13.5079 104.47 13.5079C103.959 13.5079 103.576 13.3795 103.352 13.1549C103.097 12.9303 103.001 12.6415 103.001 12.2565C103.001 11.9357 103.065 11.679 103.161 11.4865C103.257 11.294 103.416 11.1335 103.576 11.0373C103.768 10.941 103.959 10.8448 104.215 10.7806C104.47 10.7164 104.726 10.6843 105.045 10.6522C105.365 10.6202 105.556 10.556 105.652 10.4918C105.748 10.4276 105.812 10.2993 105.812 10.1389C105.812 9.97845 105.748 9.88219 105.62 9.78593C105.492 9.68968 105.301 9.65759 105.077 9.65759C104.79 9.65759 104.598 9.72176 104.502 9.8501C104.374 9.97844 104.311 10.1389 104.279 10.3314H103.193C103.193 10.1068 103.225 9.88219 103.32 9.68967C103.384 9.49716 103.512 9.33674 103.672 9.17631C103.831 9.04797 104.023 8.91962 104.279 8.85545C104.534 8.79128 104.822 8.72711 105.173 8.72711C105.524 8.72711 105.812 8.7592 106.067 8.85545C106.323 8.95171 106.514 9.04796 106.674 9.20839C106.834 9.36882 106.93 9.52925 106.993 9.75385C107.057 9.97845 107.089 10.2351 107.089 10.5239V13.3795H105.876V13.4116ZM106.61 7.25118C106.514 7.57203 106.355 7.79663 106.195 7.95706C106.035 8.11748 105.812 8.14957 105.62 8.14957C105.492 8.14957 105.396 8.11748 105.301 8.0854C105.205 8.05331 105.109 7.98914 105.013 7.95706C104.917 7.89289 104.822 7.8608 104.726 7.82872C104.63 7.79663 104.534 7.76454 104.438 7.76454C104.406 7.76454 104.343 7.79663 104.279 7.82872C104.215 7.89289 104.151 7.98914 104.087 8.14957L103.448 7.79663C103.544 7.50786 103.672 7.28326 103.831 7.15492C103.991 7.02658 104.151 6.9624 104.343 6.9624C104.47 6.9624 104.598 6.99449 104.726 7.02658C104.854 7.05866 104.949 7.12283 105.045 7.18701C105.141 7.25118 105.237 7.28326 105.333 7.34743C105.428 7.37952 105.492 7.4116 105.588 7.4116C105.652 7.4116 105.716 7.37952 105.78 7.31535C105.844 7.25117 105.907 7.15492 105.939 6.99449L106.61 7.25118ZM105.78 11.1977C105.716 11.2619 105.62 11.294 105.524 11.3581C105.396 11.3902 105.237 11.4223 105.013 11.4865C104.662 11.5506 104.438 11.6469 104.311 11.7432C104.183 11.8394 104.119 11.9998 104.119 12.1923C104.119 12.5132 104.311 12.7057 104.694 12.7057C104.854 12.7057 104.981 12.6736 105.109 12.6416C105.237 12.5774 105.365 12.5132 105.46 12.4169C105.556 12.3207 105.62 12.2244 105.684 12.0961C105.748 11.9677 105.78 11.8394 105.78 11.7111V11.1977Z" fill="black"/>
<path d="M107.504 8.37436V7.28345H108.686V8.37436H107.504ZM107.504 13.4118V8.91981H108.686V13.4118H107.504Z" fill="black"/>
<path d="M116.671 13.4117V10.6844C116.671 10.3957 116.607 10.2032 116.479 10.0107C116.351 9.85022 116.192 9.75397 115.968 9.75397C115.744 9.75397 115.585 9.85023 115.425 10.0427C115.297 10.2353 115.202 10.4599 115.202 10.7165V13.4117H114.02V10.7165C114.02 10.524 114.02 10.3957 113.988 10.2673C113.956 10.139 113.924 10.0748 113.86 9.97857C113.796 9.88231 113.732 9.85022 113.637 9.85022C113.541 9.81814 113.445 9.81814 113.317 9.81814C112.838 9.81814 112.583 10.1069 112.583 10.6844V13.4117H111.401V8.91974H112.519V9.59354C112.678 9.30477 112.838 9.08017 113.062 8.98391C113.285 8.88766 113.541 8.82349 113.828 8.82349C113.988 8.82349 114.116 8.82349 114.243 8.85557C114.371 8.88766 114.467 8.91974 114.563 8.98391C114.659 9.04809 114.754 9.11226 114.818 9.20851C114.914 9.30477 114.978 9.40103 115.074 9.52937C115.202 9.27268 115.361 9.11226 115.553 8.98391C115.744 8.85557 116 8.82349 116.287 8.82349C116.511 8.82349 116.703 8.85557 116.894 8.95183C117.086 9.016 117.246 9.14434 117.373 9.27269C117.501 9.40103 117.597 9.56146 117.693 9.75397C117.757 9.94648 117.82 10.139 117.82 10.3315V13.4438H116.671V13.4117Z" fill="black"/>
<path d="M120.503 13.5401C120.152 13.5401 119.801 13.4759 119.545 13.3796C119.29 13.2834 119.034 13.0909 118.811 12.8983C118.619 12.7058 118.459 12.4492 118.363 12.1604C118.268 11.8716 118.204 11.5508 118.204 11.1978C118.204 10.8449 118.268 10.524 118.363 10.2352C118.459 9.94648 118.619 9.68979 118.811 9.49728C119.002 9.30477 119.258 9.14434 119.545 9.016C119.833 8.88766 120.152 8.85557 120.503 8.85557C120.855 8.85557 121.174 8.91974 121.461 9.016C121.749 9.14434 121.972 9.27268 122.164 9.49728C122.356 9.72188 122.515 9.94648 122.611 10.2352C122.707 10.524 122.771 10.8449 122.771 11.1978C122.771 11.5508 122.707 11.8716 122.611 12.1604C122.515 12.4492 122.356 12.7058 122.164 12.8983C121.972 13.0909 121.717 13.2513 121.43 13.3796C121.142 13.4759 120.823 13.5401 120.503 13.5401ZM121.43 8.3422L120.503 7.70049L119.577 8.3422L119.258 8.05343L120.12 7.31546H120.855L121.717 8.05343L121.43 8.3422ZM121.685 6.70584C121.621 6.93044 121.525 7.05878 121.398 7.15503C121.27 7.25129 121.11 7.28337 120.982 7.28337C120.918 7.28337 120.823 7.28338 120.759 7.25129C120.663 7.21921 120.599 7.21921 120.503 7.18712C120.407 7.15504 120.344 7.15503 120.28 7.12295C120.216 7.09086 120.152 7.09086 120.088 7.09086C119.992 7.09086 119.896 7.18712 119.833 7.37963L119.385 7.18712C119.449 6.99461 119.513 6.83418 119.641 6.73792C119.769 6.64166 119.896 6.60958 120.024 6.60958C120.12 6.60958 120.216 6.60958 120.312 6.64166C120.407 6.67375 120.471 6.67375 120.567 6.70584C120.631 6.73792 120.727 6.77001 120.791 6.77001C120.855 6.77001 120.918 6.80209 121.014 6.80209C121.078 6.80209 121.142 6.77001 121.174 6.73792C121.206 6.70584 121.238 6.64167 121.27 6.54541L121.685 6.70584ZM120.503 12.5454C121.238 12.5454 121.589 12.0962 121.589 11.1657C121.589 10.2673 121.238 9.81814 120.503 9.81814C119.769 9.81814 119.417 10.2673 119.417 11.1657C119.417 12.0962 119.769 12.5454 120.503 12.5454Z" fill="black"/>
<path d="M123.218 8.37436V7.28345H124.4V8.37436H123.218ZM123.218 13.4118V8.91981H124.4V13.4118H123.218Z" fill="black"/>
<path d="M129.989 13.4118V10.6845C129.989 10.3316 129.925 10.107 129.829 9.97867C129.702 9.85033 129.51 9.78615 129.222 9.78615C128.616 9.78615 128.296 10.1391 128.296 10.8129V13.3797H127.115V8.88776H128.232V9.56156C128.36 9.30487 128.552 9.11236 128.775 8.98401C128.999 8.85567 129.318 8.7915 129.67 8.7915C129.893 8.7915 130.085 8.82359 130.276 8.88776C130.468 8.95193 130.628 9.04819 130.755 9.17653C130.883 9.30487 130.979 9.4653 131.075 9.65781C131.139 9.85033 131.203 10.0428 131.203 10.2995V13.4118H129.989Z" fill="black"/>
<path d="M134.844 12.8022C134.748 12.9947 134.62 13.1551 134.396 13.2835C134.173 13.4118 133.917 13.4439 133.63 13.4439C133.247 13.4439 132.959 13.3797 132.704 13.2514C132.448 13.1231 132.257 12.9626 132.097 12.738C131.937 12.5134 131.841 12.2888 131.746 12.0001C131.682 11.7113 131.65 11.4225 131.65 11.1337C131.65 10.7808 131.714 10.4599 131.809 10.1712C131.905 9.88241 132.065 9.62573 132.225 9.43322C132.384 9.2407 132.608 9.08027 132.832 8.95193C133.055 8.82359 133.311 8.7915 133.598 8.7915C134.141 8.7915 134.588 9.0161 134.844 9.4653V8.91984H136.025V13.476C136.025 13.8289 135.961 14.1177 135.866 14.3744C135.738 14.6311 135.578 14.8557 135.387 15.0161C135.195 15.1765 134.939 15.337 134.684 15.4011C134.396 15.4974 134.109 15.5295 133.822 15.5295C133.534 15.5295 133.215 15.4974 132.959 15.4011C132.704 15.3049 132.448 15.1765 132.257 15.0161C132.065 14.8557 131.905 14.6632 131.809 14.4386C131.714 14.214 131.65 13.9573 131.65 13.6364H132.736C132.736 13.9252 132.832 14.1177 132.991 14.2781C133.183 14.4386 133.406 14.5027 133.694 14.5027C134.013 14.5027 134.269 14.4065 134.492 14.246C134.716 14.0856 134.812 13.8289 134.812 13.5402V12.8022H134.844ZM133.854 12.5134C134.141 12.5134 134.396 12.4172 134.588 12.1926C134.78 11.968 134.876 11.6792 134.876 11.2942C134.876 10.3316 134.524 9.85032 133.854 9.85032C133.183 9.85032 132.832 10.2995 132.832 11.23C132.832 11.6471 132.927 11.968 133.119 12.1926C133.343 12.3851 133.566 12.5134 133.854 12.5134Z" fill="black"/>
<path d="M139.347 13.4118C139.315 13.2835 139.283 13.1551 139.283 12.9947C139.155 13.1551 138.964 13.2835 138.74 13.3797C138.517 13.476 138.229 13.5081 137.942 13.5081C137.431 13.5081 137.047 13.3797 136.824 13.1551C136.568 12.9306 136.472 12.6418 136.472 12.2568C136.472 11.9359 136.536 11.6792 136.632 11.4867C136.728 11.2942 136.888 11.1338 137.047 11.0375C137.239 10.9412 137.431 10.845 137.686 10.7808C137.942 10.7166 138.197 10.6846 138.517 10.6525C138.836 10.6204 139.028 10.5562 139.123 10.492C139.219 10.4279 139.283 10.2995 139.283 10.1391C139.283 9.97868 139.219 9.88242 139.091 9.78617C138.964 9.68991 138.772 9.65782 138.548 9.65782C138.261 9.65782 138.069 9.72199 137.974 9.85034C137.846 9.97868 137.782 10.1391 137.75 10.3316H136.664C136.664 10.107 136.696 9.88242 136.792 9.68991C136.856 9.49739 136.983 9.33697 137.143 9.17654C137.303 9.0482 137.494 8.91986 137.75 8.85569C138.006 8.79151 138.293 8.72734 138.644 8.72734C138.996 8.72734 139.283 8.75943 139.539 8.85569C139.794 8.95194 139.986 9.0482 140.145 9.20862C140.305 9.36905 140.401 9.52948 140.465 9.75408C140.529 9.97868 140.561 10.2354 140.561 10.5241V13.3797H139.347V13.4118ZM137.079 7.47601L137.494 6.73804L139.379 7.82895L139.091 8.34232L137.079 7.47601ZM139.251 11.1979C139.187 11.2621 139.091 11.2942 138.996 11.3584C138.868 11.3904 138.708 11.4225 138.485 11.4867C138.133 11.5509 137.91 11.6471 137.782 11.7434C137.654 11.8396 137.59 12.0001 137.59 12.1926C137.59 12.5134 137.782 12.706 138.165 12.706C138.325 12.706 138.453 12.6739 138.58 12.6418C138.708 12.5776 138.836 12.5134 138.932 12.4172C139.028 12.3209 139.091 12.2247 139.155 12.0963C139.219 11.968 139.251 11.8396 139.251 11.7113V11.1979Z" fill="black"/>
<path d="M143.818 12.8341C143.722 13.0266 143.595 13.1871 143.371 13.3154C143.148 13.4437 142.892 13.4758 142.605 13.4758C142.381 13.4758 142.158 13.4437 141.934 13.3475C141.71 13.2512 141.551 13.155 141.423 13.0266C141.295 12.8983 141.167 12.7058 141.072 12.5133C140.976 12.3207 140.944 12.0961 140.944 11.8395V8.91968H142.126V11.647C142.126 12.1924 142.381 12.4812 142.892 12.4812C143.18 12.4812 143.371 12.417 143.563 12.2566C143.722 12.0961 143.818 11.9036 143.818 11.647V8.91968H145V13.54C145 13.8609 144.936 14.1496 144.84 14.4063C144.745 14.663 144.585 14.8555 144.393 15.048C144.202 15.2084 143.978 15.3368 143.722 15.433C143.467 15.5293 143.211 15.5614 142.924 15.5614C142.253 15.5614 141.774 15.401 141.455 15.048C141.135 14.7272 140.976 14.2459 140.976 13.6683H142.062C142.062 13.925 142.126 14.1496 142.285 14.3101C142.445 14.4705 142.669 14.5347 142.988 14.5347C143.084 14.5347 143.211 14.5026 143.307 14.4705C143.403 14.4384 143.499 14.3742 143.563 14.278C143.627 14.1817 143.691 14.0855 143.754 13.9571C143.786 13.8288 143.818 13.7004 143.818 13.54V12.8341Z" fill="black"/>
</svg>
