<svg width="146" height="50" viewBox="0 0 146 50" fill="none" xmlns="http://www.w3.org/2000/svg">
<path fill-rule="evenodd" clip-rule="evenodd" d="M7.99999 0C3.58171 0 0 3.58172 0 8V42C0 46.4183 3.58172 50 8 50H137.833C142.252 50 145.833 46.4183 145.833 42V8C145.833 3.58172 142.252 0 137.833 0H7.99999Z" fill="black"/>
<path fill-rule="evenodd" clip-rule="evenodd" d="M92.935 35.4644C93.8007 34.6818 94.2319 33.668 94.2319 32.422C94.2319 31.4094 93.9368 30.5607 93.3454 29.8827C92.7518 29.2025 91.829 28.6092 90.5727 28.1017C89.5457 27.6956 88.8379 27.3191 88.4484 26.9713C88.0007 26.5949 87.778 26.1161 87.778 25.5371C87.778 25.0143 87.9733 24.5729 88.3628 24.2107C88.8237 23.8057 89.4667 23.602 90.2896 23.602C91.3309 23.602 92.2613 23.8266 93.0842 24.2757L93.6691 22.3626C92.788 21.8992 91.6842 21.667 90.3554 21.667C88.8654 21.667 87.6738 22.0511 86.7806 22.8205C85.8842 23.5888 85.4365 24.5762 85.4365 25.7803C85.4365 27.6229 86.7137 29.0241 89.2702 29.9807C90.2095 30.3296 90.8821 30.7071 91.2848 31.1133C91.6896 31.5194 91.8915 32.0203 91.8915 32.6147C91.8915 33.2817 91.6469 33.8166 91.1564 34.2151C90.6637 34.6135 89.978 34.8139 89.0969 34.8139C87.8691 34.8139 86.7422 34.5013 85.7152 33.8783L85.1732 35.8342C86.1267 36.4429 87.3863 36.7467 88.9575 36.7467C90.6593 36.7467 91.9837 36.3196 92.935 35.4644ZM54.0021 36.5299H56.4939L51.7703 21.8816H48.8671L44.1665 36.5299H46.5925L47.8927 32.2272H52.6371L54.0021 36.5299ZM50.9912 26.597L52.2256 30.422H48.3052L49.5176 26.597C49.8358 25.3808 50.0673 24.4606 50.2111 23.8376H50.255C50.616 25.2861 50.8606 26.2063 50.9912 26.597ZM67.1298 35.3774C68.0976 34.335 68.5814 32.9151 68.5814 31.1188C68.5814 29.5106 68.1667 28.214 67.335 27.2278C66.5055 26.2426 65.4686 25.7506 64.2265 25.7506C62.6377 25.7506 61.4538 26.3802 60.6737 27.6416H60.6298L60.4992 25.9675H58.4419C58.499 27.1562 58.5286 28.3153 58.5286 29.4446V40.8336H60.8679V35.2696H60.9118C61.5185 36.269 62.5148 36.7687 63.9017 36.7687C65.1866 36.7687 66.263 36.3053 67.1298 35.3774ZM66.1987 31.2046C66.1987 30.1765 65.9683 29.329 65.5053 28.662C64.9995 27.9663 64.3203 27.6185 63.4688 27.6185C62.8917 27.6185 62.3672 27.8122 61.8987 28.1942C61.4291 28.5794 61.1218 29.0824 60.9781 29.7054C60.9057 29.996 60.8695 30.2338 60.8695 30.4209V32.182C60.8695 32.9503 61.1043 33.5986 61.5739 34.1281C62.0435 34.6575 62.6536 34.9217 63.4041 34.9217C64.2852 34.9217 64.9709 34.5805 65.4614 33.9002C65.953 33.2189 66.1987 32.3207 66.1987 31.2046ZM79.2394 35.3774C80.2083 34.335 80.6922 32.9151 80.6922 31.1188C80.6922 29.5106 80.2763 28.214 79.4479 27.2278C78.6162 26.2426 77.5793 25.7506 76.3383 25.7506C74.7484 25.7506 73.5645 26.3802 72.7855 27.6416H72.7416L72.611 25.9675H70.5537C70.6108 27.1562 70.6404 28.3153 70.6404 29.4446V40.8336H72.9797V35.2696H73.0236C73.6293 36.269 74.6255 36.7687 76.0124 36.7687C77.2973 36.7687 78.3737 36.3053 79.2394 35.3774ZM78.3089 31.2046C78.3089 30.1765 78.0774 29.329 77.6144 28.662C77.1085 27.9663 76.4316 27.6185 75.579 27.6185C75.0008 27.6185 74.4774 27.8122 74.0078 28.1942C73.5381 28.5794 73.232 29.0824 73.0883 29.7054C73.017 29.996 72.9797 30.2338 72.9797 30.4209V32.182C72.9797 32.9503 73.2145 33.5986 73.6819 34.1281C74.1515 34.6564 74.7616 34.9217 75.5143 34.9217C76.3953 34.9217 77.0811 34.5805 77.5716 33.9002C78.0631 33.2189 78.3089 32.3207 78.3089 31.2046ZM101.966 27.7286H99.3878V32.8568C99.3878 34.1612 99.842 34.8128 100.753 34.8128C101.171 34.8128 101.518 34.7765 101.792 34.7038L101.857 36.4859C101.396 36.6587 100.789 36.7456 100.037 36.7456C99.1135 36.7456 98.3915 36.4628 97.8703 35.8981C97.3513 35.3323 97.0902 34.3835 97.0902 33.0506V27.7264H95.554V25.9653H97.0902V24.0313L99.3878 23.3357V25.9653H101.966V27.7286ZM112.214 35.1606C113.137 34.1183 113.6 32.7853 113.6 31.1618C113.6 29.5822 113.153 28.2933 112.255 27.295C111.317 26.2658 110.074 25.7518 108.529 25.7518C106.926 25.7518 105.651 26.2735 104.706 27.317C103.759 28.3594 103.288 29.7 103.288 31.3368C103.288 32.9009 103.746 34.1986 104.664 35.2267C105.581 36.2547 106.811 36.7688 108.356 36.7688C109.959 36.7688 111.245 36.2338 112.214 35.1606ZM111.173 31.2377C111.173 30.2636 110.966 29.4281 110.546 28.7314C110.055 27.8882 109.354 27.4678 108.446 27.4678C107.505 27.4678 106.791 27.8893 106.3 28.7314C105.88 29.4292 105.673 30.2779 105.673 31.2817C105.673 32.2559 105.88 33.0913 106.3 33.787C106.806 34.6301 107.513 35.0506 108.425 35.0506C109.318 35.0506 110.019 34.6213 110.525 33.7649C110.956 33.055 111.173 32.2107 111.173 31.2377ZM120.467 27.9664C120.726 27.9664 120.973 27.9884 121.204 28.0313V25.7936C121.031 25.7661 120.836 25.7507 120.619 25.7507C120.013 25.7507 119.45 25.9389 118.929 26.3164C118.395 26.7358 118.006 27.2949 117.759 27.9895H117.694L117.609 25.9686H115.571C115.629 26.968 115.659 28.0765 115.659 29.2938L115.637 36.5299H117.975V30.9878C117.975 30.148 118.17 29.4523 118.56 28.902C119.008 28.2779 119.644 27.9664 120.467 27.9664ZM131.667 30.749C131.667 31.1694 131.639 31.5239 131.581 31.8133H124.563C124.591 32.8568 124.93 33.6548 125.581 34.2052C126.173 34.6972 126.938 34.9438 127.877 34.9438C128.916 34.9438 129.864 34.7776 130.716 34.444L131.083 36.0731C130.087 36.509 128.91 36.7258 127.553 36.7258C125.92 36.7258 124.639 36.2437 123.706 35.2806C122.776 34.3175 122.309 33.0241 122.309 31.4017C122.309 29.8089 122.743 28.4826 123.611 27.4248C124.519 26.2955 125.747 25.7308 127.292 25.7308C128.809 25.7308 129.958 26.2955 130.738 27.4248C131.356 28.3219 131.667 29.4314 131.667 30.749ZM128.981 28.3362C129.298 28.8437 129.451 29.4447 129.436 30.1403V30.1392H124.563C124.634 29.4303 124.866 28.8217 125.255 28.3142C125.73 27.6758 126.352 27.3577 127.117 27.3577C127.954 27.3577 128.577 27.6835 128.981 28.3362Z" fill="white"/>
<path fill-rule="evenodd" clip-rule="evenodd" d="M74.7381 9.16699H75.886V16.5521H74.7381V9.16699ZM50.5653 15.7294C51.3382 15.0905 51.7252 14.139 51.7252 12.8751C51.7252 11.7496 51.3667 10.8852 50.6519 10.2806C50.0138 9.74577 49.0677 9.47837 47.8124 9.47837C47.102 9.47837 46.4442 9.52777 45.8335 9.62442V16.5306C46.3016 16.5864 46.8608 16.6143 47.5142 16.6143C48.832 16.6143 49.8494 16.319 50.5653 15.7294ZM49.8498 11.0205C50.2927 11.4586 50.5142 12.0868 50.5142 12.9062C50.5142 13.8233 50.273 14.5213 49.795 15.0003C49.317 15.4792 48.6384 15.7187 47.7591 15.7187C47.3831 15.7187 47.1243 15.709 46.9829 15.6876V10.4373C47.2384 10.3879 47.5464 10.3643 47.9082 10.3643C48.7601 10.3643 49.4069 10.5834 49.8498 11.0205ZM58.149 13.979C58.149 14.7576 57.9221 15.3955 57.4682 15.8959C56.9924 16.4103 56.362 16.6669 55.5748 16.6669C54.8162 16.6669 54.2121 16.421 53.7615 15.927C53.312 15.4341 53.0872 14.8123 53.0872 14.0628C53.0872 13.2788 53.3186 12.6356 53.7834 12.1362C54.2483 11.6369 54.8732 11.3867 55.6603 11.3867C56.419 11.3867 57.0286 11.6326 57.4901 12.1255C57.9287 12.6044 58.149 13.223 58.149 13.979ZM56.6489 12.8139C56.8539 13.1478 56.9569 13.5484 56.9569 14.0155C56.9569 14.4827 56.8506 14.8865 56.6379 15.2269C56.3901 15.6382 56.0459 15.8433 55.6074 15.8433C55.1601 15.8433 54.8136 15.6414 54.5647 15.2376C54.3597 14.9036 54.2567 14.5031 54.2567 14.0359C54.2567 13.5548 54.3586 13.1478 54.5647 12.8139C54.8059 12.4101 55.1568 12.2082 55.6183 12.2082C56.0645 12.2082 56.4077 12.4101 56.6489 12.8139ZM66.7614 11.4898L66.7611 11.4909H65.6333L65.0062 13.8556C64.8505 14.4462 64.7332 15.0014 64.6553 15.5222H64.6236C64.5172 14.9874 64.3791 14.4322 64.2091 13.8556L63.5064 11.4909H62.5701L61.8367 13.9071C61.6371 14.5589 61.4957 15.098 61.4102 15.5211H61.3894C61.2962 15.0078 61.18 14.4655 61.0385 13.8964L60.4542 11.4898H59.2734L60.7941 16.5521H61.8586L62.5701 14.3538C62.7477 13.819 62.8859 13.2746 62.9856 12.7183H63.0065C63.1139 13.2595 63.252 13.8051 63.422 14.3538L64.0918 16.5521H65.1443L66.7611 11.4909H66.7614V11.4898ZM71.5689 16.5521H72.7179V13.5194C72.7179 12.7763 72.5194 12.2168 72.1226 11.842C71.8035 11.536 71.4023 11.3835 70.9199 11.3835C70.5384 11.3835 70.1897 11.4791 69.8784 11.6681C69.6164 11.8302 69.4168 12.0332 69.2831 12.2791H69.2513L69.1975 11.4877H68.1878C68.2152 12.0096 68.2295 12.4917 68.2295 12.9363V16.551H69.3784V13.5484C69.3784 13.2166 69.4859 12.9267 69.6975 12.6807C69.9113 12.4348 70.1864 12.3124 70.5274 12.3124C71.2225 12.3124 71.5689 12.7591 71.5689 13.6526V16.5521ZM81.9698 15.896C82.4237 15.3955 82.6507 14.7577 82.6507 13.9791C82.6507 13.2231 82.4303 12.6045 81.9918 12.1256C81.5291 11.6327 80.9206 11.3867 80.1609 11.3867C79.3748 11.3867 78.7499 11.637 78.285 12.1363C77.8202 12.6357 77.5889 13.2789 77.5889 14.0629C77.5889 14.8124 77.8136 15.4342 78.2631 15.9271C78.7126 16.4211 79.3167 16.667 80.0765 16.667C80.8625 16.667 81.494 16.4104 81.9698 15.896ZM81.4575 14.0156C81.4575 13.5485 81.3544 13.1479 81.1494 12.8139C80.9093 12.4102 80.5651 12.2083 80.1199 12.2083C79.6573 12.2083 79.3065 12.4102 79.0664 12.8139C78.8603 13.1479 78.7583 13.5549 78.7583 14.036C78.7583 14.5032 78.8614 14.9037 79.0664 15.2377C79.3152 15.6415 79.6617 15.8434 80.109 15.8434C80.5475 15.8434 80.8907 15.6383 81.1384 15.227C81.3522 14.8865 81.4575 14.4828 81.4575 14.0156ZM87.1794 16.5521H88.2111C88.1617 16.2536 88.1365 15.8509 88.1365 15.3451V13.4808C88.1365 12.0848 87.459 11.3867 86.1083 11.3867C85.4088 11.3867 84.8157 11.5328 84.3355 11.8238L84.5691 12.5626C84.9572 12.3135 85.4067 12.1879 85.9165 12.1879C86.6324 12.1879 86.9898 12.5208 86.9898 13.1876V13.2821C86.0327 13.2746 85.2893 13.4346 84.7609 13.7611C84.2314 14.0876 83.9683 14.559 83.9683 15.1775C83.9683 15.5867 84.1031 15.9314 84.3728 16.2085C84.6699 16.5135 85.0646 16.667 85.5525 16.667C86.2059 16.667 86.7091 16.434 87.0621 15.969H87.0939L87.1794 16.5521ZM87.0184 14.8123V14.0316C85.751 14.0102 85.1174 14.3506 85.1174 15.0518C85.1174 15.316 85.1897 15.5136 85.3377 15.6457C85.4857 15.7778 85.6743 15.8433 85.899 15.8433C86.1512 15.8433 86.3869 15.7649 86.6018 15.6092C86.8178 15.4524 86.9504 15.2537 86.9998 15.0099C87.0118 14.9552 87.0184 14.8886 87.0184 14.8123ZM93.7204 16.5521H94.74C94.7126 16.1354 94.6994 15.6812 94.6994 15.1883V9.16699H93.5494V12.0729H93.5274C93.2512 11.6144 92.7655 11.3856 92.0715 11.3856C91.44 11.3856 90.9094 11.6219 90.4763 12.0944C90.029 12.6013 89.8065 13.2649 89.8065 14.0843C89.8065 14.8478 90.0115 15.4696 90.4226 15.9486C90.8337 16.4275 91.3523 16.667 91.975 16.667C92.7545 16.667 93.3093 16.3577 93.6349 15.7392H93.6667L93.7204 16.5521ZM93.549 14.4172V13.5731C93.549 13.4271 93.538 13.309 93.5172 13.2188C93.4525 12.9481 93.3133 12.7205 93.1017 12.5369C92.8879 12.3532 92.6302 12.2609 92.3331 12.2609C91.9045 12.2609 91.569 12.4273 91.3223 12.7613C91.0778 13.0953 90.9539 13.5216 90.9539 14.0424C90.9539 14.5429 91.0713 14.9488 91.307 15.2613C91.5558 15.5942 91.8913 15.7606 92.3112 15.7606C92.6883 15.7606 92.9898 15.6221 93.219 15.344C93.4404 15.0873 93.549 14.778 93.549 14.4172ZM103.886 15.896C104.339 15.3955 104.566 14.7577 104.566 13.9791C104.566 13.2231 104.346 12.6045 103.907 12.1256C103.447 11.6327 102.836 11.3867 102.079 11.3867C101.29 11.3867 100.666 11.637 100.201 12.1363C99.7359 12.6357 99.5046 13.2789 99.5046 14.0629C99.5046 14.8124 99.7293 15.4342 100.179 15.9271C100.63 16.4211 101.235 16.667 101.992 16.667C102.78 16.667 103.41 16.4104 103.886 15.896ZM103.375 14.0156C103.375 13.5485 103.272 13.1479 103.067 12.8139C102.825 12.4102 102.483 12.2083 102.036 12.2083C101.575 12.2083 101.224 12.4102 100.982 12.8139C100.776 13.1479 100.674 13.5549 100.674 14.036C100.674 14.5032 100.777 14.9037 100.982 15.2377C101.231 15.6415 101.577 15.8434 102.025 15.8434C102.463 15.8434 102.809 15.6383 103.056 15.227C103.268 14.8865 103.375 14.4828 103.375 14.0156ZM109.596 16.5521H110.744V13.5194C110.744 12.7763 110.547 12.2168 110.149 11.842C109.83 11.536 109.429 11.3835 108.947 11.3835C108.565 11.3835 108.217 11.4791 107.905 11.6681C107.644 11.8302 107.444 12.0332 107.309 12.2791H107.278L107.224 11.4877H106.215C106.243 12.0096 106.256 12.4917 106.256 12.9363V16.551H107.406V13.5484C107.406 13.2166 107.512 12.9267 107.725 12.6807C107.938 12.4348 108.213 12.3124 108.554 12.3124C109.25 12.3124 109.596 12.7591 109.596 13.6526V16.5521ZM118.475 12.3328H117.211V14.792C117.211 15.417 117.436 15.7295 117.881 15.7295C118.087 15.7295 118.258 15.7124 118.393 15.6769L118.423 16.5307C118.196 16.6144 117.898 16.6563 117.53 16.6563C117.076 16.6563 116.723 16.521 116.468 16.2504C116.211 15.9798 116.084 15.5244 116.084 14.8855V12.3328H115.329V11.4898H116.084V10.562L117.21 10.2291V11.4888H118.475V12.3328ZM123.409 16.5521H124.559V13.542C124.559 12.7924 124.364 12.2254 123.975 11.8442C123.663 11.5381 123.269 11.3856 122.793 11.3856C122.121 11.3856 121.603 11.6627 121.241 12.2179H121.219V9.16699H120.071V16.551H121.219V13.5066C121.219 13.3476 121.239 13.2123 121.273 13.1017C121.472 12.5755 121.836 12.3124 122.369 12.3124C123.063 12.3124 123.409 12.7666 123.409 13.6741V16.5521ZM130.834 13.7815C130.834 13.9834 130.818 14.1531 130.791 14.2916H127.345C127.36 14.792 127.525 15.1733 127.844 15.4374C128.135 15.6737 128.511 15.7918 128.972 15.7918C129.482 15.7918 129.947 15.7123 130.365 15.5523L130.545 16.3341C130.055 16.5425 129.478 16.6466 128.811 16.6466C128.01 16.6466 127.38 16.4157 126.924 15.954C126.466 15.4922 126.239 14.8726 126.239 14.0951C126.239 13.3315 126.45 12.6958 126.877 12.1889C127.322 11.6477 127.924 11.3771 128.684 11.3771C129.427 11.3771 129.992 11.6477 130.373 12.1889C130.681 12.6185 130.834 13.1501 130.834 13.7815ZM129.514 12.626C129.67 12.8687 129.746 13.1565 129.737 13.4905H127.345C127.382 13.15 127.495 12.859 127.686 12.6152C127.919 12.3092 128.225 12.1567 128.6 12.1567C129.011 12.1567 129.315 12.3135 129.514 12.626Z" fill="white"/>
<path fill-rule="evenodd" clip-rule="evenodd" d="M28.4057 9.16699C28.5857 10.8429 27.9374 12.4944 26.99 13.7083C26.0014 14.9033 24.4198 15.8173 22.8794 15.6996C22.6778 14.087 23.4583 12.3722 24.332 11.326C25.3195 10.1388 27.0345 9.22919 28.4057 9.16699ZM33.4487 18.8347C33.2768 18.9398 30.428 20.6818 30.4592 24.2346C30.4949 28.5248 34.1221 29.9431 34.1665 29.9586C34.1448 30.0586 33.5985 32.0055 32.238 33.9824C31.102 35.7227 29.9117 37.4241 28.0212 37.4552C27.1224 37.4764 26.5155 37.2116 25.8832 36.9357C25.2235 36.6479 24.5361 36.3479 23.4607 36.3479C22.3207 36.3479 21.6027 36.6575 20.9104 36.956C20.3118 37.2142 19.7322 37.464 18.9154 37.4985C17.1149 37.5663 15.7393 35.6405 14.562 33.9157C12.2086 30.394 10.3766 23.9913 12.833 19.6344C14.0233 17.4976 16.1935 16.1216 18.5133 16.0849C19.5348 16.0635 20.5146 16.4669 21.3735 16.8204C22.0303 17.0908 22.6164 17.3321 23.0965 17.3321C23.5182 17.3321 24.0878 17.1005 24.7518 16.8305C25.7982 16.405 27.0788 15.8843 28.3833 16.0249C29.2754 16.0516 31.8142 16.3859 33.4521 18.8326L33.4487 18.8347Z" fill="white"/>
</svg>
