<svg width="48" height="54" viewBox="0 0 48 54" fill="none" xmlns="http://www.w3.org/2000/svg">
<path fill-rule="evenodd" clip-rule="evenodd" d="M1.66465 19.9306C2.35874 18.9124 2.68663 17.6888 2.59465 16.4599C2.35216 13.4527 3.99392 10.6086 6.71935 9.31467C7.82955 8.77997 8.72533 7.88419 9.26004 6.77398C10.5541 4.04919 13.3974 2.40757 16.4042 2.64917C17.6331 2.74136 18.8568 2.41345 19.8749 1.71917C22.358 0.00637096 25.6412 0.00637096 28.1243 1.71917C29.1424 2.41344 30.3662 2.74134 31.595 2.64917C34.6019 2.40709 37.4455 4.04878 38.7393 6.77387C39.274 7.88412 40.1698 8.77995 41.28 9.31467C44.0051 10.6085 45.6467 13.452 45.4047 16.4589C45.3128 17.6877 45.6407 18.9113 46.3347 19.9296C48.0477 22.4126 48.0477 25.696 46.3347 28.1791C45.6406 29.1973 45.3127 30.4209 45.4047 31.6498C45.6467 34.6566 44.0051 37.5001 41.28 38.794C40.1698 39.3287 39.274 40.2244 38.7393 41.3346C37.5628 43.8131 35.0894 45.4163 32.3466 45.4782L35.3805 50.612L38.3243 46.1969C38.5262 45.8945 38.8836 45.7348 39.2436 45.786L43.9066 46.4521L40.4424 40.5905L42.0684 39.6295L46.5336 47.1848C46.7184 47.4974 46.7074 47.8884 46.5055 48.1902C46.3036 48.4921 45.9465 48.6514 45.587 48.6001L39.5653 47.74L36.1182 52.9112C35.9431 53.1738 35.6483 53.3316 35.3326 53.3317H35.3069C34.9821 53.3229 34.6847 53.1478 34.5195 52.8681L30.1878 45.5387C29.4485 45.6768 28.7458 45.9668 28.1243 46.3905C25.6412 48.1034 22.358 48.1034 19.8749 46.3905C19.2534 45.967 18.5507 45.6771 17.8114 45.539L13.4799 52.8683C13.3146 53.148 13.0172 53.3231 12.6925 53.3319H12.6667C12.3509 53.332 12.0559 53.1742 11.8806 52.9114L8.43356 47.7402L2.41191 48.6003C2.05239 48.6517 1.69527 48.4923 1.49336 48.1905C1.29145 47.8886 1.28052 47.4977 1.46526 47.185L6.49163 38.6804C3.89577 37.3356 2.35981 34.5649 2.59465 31.6508C2.68659 30.422 2.3587 29.1983 1.66465 28.1801C-0.0483724 25.6971 -0.0483724 22.4137 1.66465 19.9306ZM9.67484 46.1976L12.6185 50.6126L15.6527 45.4797C12.9097 45.4185 10.4359 43.815 9.25989 41.3362C8.96732 40.7285 8.56406 40.1808 8.07077 39.7209L4.09248 46.4528L8.75546 45.7866C9.11548 45.7352 9.47306 45.895 9.67484 46.1976ZM10.9627 7.59243C11.9221 5.57156 14.0308 4.3541 16.2607 4.53362C17.9177 4.65762 19.5678 4.21548 20.9408 3.27956C22.7822 2.00933 25.217 2.00933 27.0584 3.27956C28.4314 4.21563 30.0814 4.65778 31.7384 4.53362C33.9683 4.35405 36.0771 5.57152 37.0366 7.59243C37.7575 9.08949 38.9655 10.2974 40.4625 11.0184C42.4833 11.978 43.7007 14.0866 43.5213 16.3165C43.3972 17.9735 43.8393 19.6235 44.7753 20.9965C46.0457 22.8379 46.0457 25.2729 44.7753 27.1143C43.8393 28.4872 43.3972 30.1373 43.5213 31.7943C43.7007 34.0241 42.4833 36.1327 40.4625 37.0923C38.9655 37.8132 37.7575 39.0212 37.0366 40.5182C36.0773 42.5392 33.9685 43.7568 31.7386 43.577C30.0815 43.4531 28.4315 43.8952 27.0584 44.8311C25.217 46.1013 22.7822 46.1013 20.9408 44.8311C19.7234 44.0011 18.2842 43.5569 16.8108 43.5561C16.6276 43.5561 16.4443 43.5631 16.2608 43.577C14.0309 43.7568 11.922 42.5392 10.9627 40.5182C10.2417 39.0212 9.03379 37.8132 7.53673 37.0923C5.51594 36.1327 4.29852 34.024 4.47792 31.7941C4.60205 30.1371 4.15994 28.4871 3.22398 27.1141C1.95352 25.2728 1.95352 22.8378 3.22398 20.9964C4.15996 19.6234 4.60207 17.9734 4.47792 16.3164C4.29857 14.0866 5.51598 11.978 7.53673 11.0184C9.03379 10.2974 10.2417 9.08949 10.9627 7.59243ZM26.9373 11.1773C28.0596 11.1526 29.1034 11.7509 29.6492 12.7319C30.0549 13.4638 30.1408 14.3306 29.8866 15.1278L29.1364 17.4681L33.0351 17.4532H33.0477C34.8312 17.4533 36.277 18.8992 36.2769 20.6827C36.2764 21.1841 36.1596 21.6785 35.9357 22.1272L35.3325 23.3338V28.7774C35.3302 30.8627 33.6402 32.5526 31.5549 32.555H28.7216V30.6662H31.5549C32.5975 30.6649 33.4424 29.82 33.4437 28.7774V23.1109C33.4436 22.9643 33.4777 22.8197 33.5433 22.6885L34.2464 21.2822C34.3394 21.096 34.3878 20.8908 34.3881 20.6827C34.3881 19.9424 33.788 19.3422 33.0476 19.342H33.0423L27.8437 19.3619C27.542 19.3604 27.2586 19.2173 27.0783 18.9755C26.8997 18.7316 26.8486 18.417 26.9409 18.1292L28.088 14.5512C28.2695 13.9848 27.9844 13.3741 27.4335 13.1496C26.8827 12.9252 26.2519 13.1627 25.9859 13.6947L24.8443 15.978C24.7996 16.0673 24.7412 16.1488 24.6711 16.2198L22.1414 18.7772V30.6662H26.8328V32.555H12.6667C12.1452 32.555 11.7223 32.1322 11.7223 31.6106V18.3511C11.7223 17.8295 12.1452 17.4067 12.6667 17.4067H20.8407L23.2224 14.9985L24.2966 12.8499C24.7986 11.8459 25.815 11.2021 26.9373 11.1773ZM20.2526 30.6662H13.6112V19.2952H20.2526V30.6662ZM16.9166 25.9441C16.1342 25.9441 15.5 26.5784 15.5 27.3607C15.5008 28.1428 16.1346 28.7765 16.9166 28.7774C17.6989 28.7774 18.3332 28.1431 18.3332 27.3607C18.3332 26.5784 17.6989 25.9441 16.9166 25.9441Z" fill="#FF9902"/>
</svg>
