<svg width="42" height="42" viewBox="0 0 42 42" fill="none" xmlns="http://www.w3.org/2000/svg">
<g clip-path="url(#clip0)">
<path d="M40.32 2.88329C38.64 2.77409 34.4547 2.31209 31.92 0.378688C31.2638 -0.12977 30.3467 -0.12977 29.6905 0.378688C27.1544 2.31209 22.9705 2.77409 21.2905 2.88329C20.3433 2.94225 19.6041 3.72556 19.6 4.67459V10.3264C19.6006 13.0611 20.2417 15.7576 21.4718 18.2H3.5C1.56796 18.2023 0.00231428 19.768 0 21.7V38.5C0.00231428 40.432 1.56796 41.9977 3.5 42H32.9C34.832 41.9977 36.3977 40.432 36.4 38.5V23.1805C39.96 19.8518 41.9865 15.2002 42 10.3264V4.67459C41.9963 3.72935 41.2631 2.94752 40.32 2.88329V2.88329ZM35 38.5C35 39.6598 34.0598 40.6 32.9 40.6H3.5C2.3402 40.6 1.4 39.6598 1.4 38.5V21.7C1.4 20.5402 2.3402 19.6 3.5 19.6H22.26C22.3685 19.7743 22.47 19.95 22.5841 20.1236C24.4388 22.8856 27.0287 25.074 30.0615 26.4418C30.5324 26.6541 31.0718 26.6541 31.5427 26.4418C32.7698 25.8855 33.9297 25.1916 35 24.3733V38.5ZM40.6 10.3264C40.5767 16.7349 36.8086 22.538 30.9638 25.1664C30.8593 25.213 30.74 25.213 30.6355 25.1664C27.8403 23.9061 25.4535 21.889 23.7447 19.3431C21.9523 16.6779 20.9965 13.5382 21 10.3264V4.67459C21.0015 4.46532 21.1649 4.29301 21.3738 4.28049C23.6201 4.13489 27.7963 3.58049 30.5333 1.49169C30.6898 1.3694 30.9095 1.3694 31.066 1.49169C33.8037 3.57909 37.9799 4.13489 40.2262 4.28049C40.4351 4.29301 40.5985 4.46532 40.6 4.67459V10.3264Z" fill="#FF9902"/>
<path d="M38.0062 5.45999C35.7286 5.18342 33.5197 4.49786 31.4857 3.43629C31.0608 3.19555 30.5407 3.19555 30.1158 3.43629C28.0817 4.49807 25.8725 5.18364 23.5946 5.45999C22.9095 5.5618 22.4019 6.14921 22.4004 6.84179V10.3264C22.3973 13.2595 23.2697 16.1268 24.9057 18.5612C26.2413 20.544 28.0274 22.1823 30.1179 23.3422C30.5422 23.5745 31.0558 23.5745 31.4801 23.3422C36.2289 20.7302 39.1852 15.7461 39.2004 10.3264V6.84179C39.1989 6.14921 38.6913 5.5618 38.0062 5.45999V5.45999ZM37.8004 10.3264C37.786 15.2382 35.1053 19.7547 30.8004 22.12H30.7934C28.897 21.0668 27.2768 19.5796 26.0656 17.78C24.5856 15.5762 23.7969 12.981 23.8004 10.3264L23.7927 6.84319C26.2431 6.54928 28.6186 5.80706 30.8004 4.65359C32.9799 5.80573 35.3527 6.54745 37.8004 6.84179V10.3264Z" fill="#FF9902"/>
<path d="M5.6 27.3H8.4C9.55979 27.3 10.5 26.3598 10.5 25.2V23.8C10.5 22.6402 9.55979 21.7 8.4 21.7H5.6C4.4402 21.7 3.5 22.6402 3.5 23.8V25.2C3.5 26.3598 4.4402 27.3 5.6 27.3ZM4.9 23.8C4.9 23.4134 5.2134 23.1 5.6 23.1H8.4C8.78659 23.1 9.09999 23.4134 9.09999 23.8V25.2C9.09999 25.5866 8.78659 25.9 8.4 25.9H5.6C5.2134 25.9 4.9 25.5866 4.9 25.2V23.8Z" fill="#FF9902"/>
<path d="M4.2 30.8H7C7.3866 30.8 7.7 30.4866 7.7 30.1C7.7 29.7134 7.3866 29.4 7 29.4H4.2C3.8134 29.4 3.5 29.7134 3.5 30.1C3.5 30.4866 3.8134 30.8 4.2 30.8Z" fill="#FF9902"/>
<path d="M12.5996 29.4H9.79961C9.41301 29.4 9.09961 29.7134 9.09961 30.1C9.09961 30.4866 9.41301 30.8 9.79961 30.8H12.5996C12.9862 30.8 13.2996 30.4866 13.2996 30.1C13.2996 29.7134 12.9862 29.4 12.5996 29.4Z" fill="#FF9902"/>
<path d="M18.2002 29.4H15.4002C15.0136 29.4 14.7002 29.7134 14.7002 30.1C14.7002 30.4866 15.0136 30.8 15.4002 30.8H18.2002C18.5868 30.8 18.9002 30.4866 18.9002 30.1C18.9002 29.7134 18.5868 29.4 18.2002 29.4Z" fill="#FF9902"/>
<path d="M23.7998 29.4H20.9998C20.6132 29.4 20.2998 29.7134 20.2998 30.1C20.2998 30.4866 20.6132 30.8 20.9998 30.8H23.7998C24.1864 30.8 24.4998 30.4866 24.4998 30.1C24.4998 29.7134 24.1864 29.4 23.7998 29.4Z" fill="#FF9902"/>
<path d="M30.1004 30.1C30.1004 29.7134 29.787 29.4 29.4004 29.4H26.6004C26.2138 29.4 25.9004 29.7134 25.9004 30.1C25.9004 30.4866 26.2138 30.8 26.6004 30.8H29.4004C29.787 30.8 30.1004 30.4866 30.1004 30.1Z" fill="#FF9902"/>
<path d="M9.0998 33.6H6.9998C6.6132 33.6 6.2998 33.9134 6.2998 34.3C6.2998 34.6866 6.6132 35 6.9998 35H9.0998C9.4864 35 9.7998 34.6866 9.7998 34.3C9.7998 33.9134 9.4864 33.6 9.0998 33.6Z" fill="#FF9902"/>
<path d="M9.1 36.4H4.2C3.8134 36.4 3.5 36.7134 3.5 37.1C3.5 37.4866 3.8134 37.8 4.2 37.8H9.1C9.4866 37.8 9.8 37.4866 9.8 37.1C9.8 36.7134 9.4866 36.4 9.1 36.4Z" fill="#FF9902"/>
<path d="M28.6998 9.79998V10.5C27.9266 10.5 27.2998 11.1268 27.2998 11.9V16.1C27.2998 16.8732 27.9266 17.5 28.6998 17.5H32.8998C33.673 17.5 34.2998 16.8732 34.2998 16.1V11.9C34.2998 11.1268 33.673 10.5 32.8998 10.5V9.79998C32.8998 8.64018 31.9596 7.69998 30.7998 7.69998C29.64 7.69998 28.6998 8.64018 28.6998 9.79998ZM30.0998 9.79998C30.0998 9.41338 30.4132 9.09998 30.7998 9.09998C31.1864 9.09998 31.4998 9.41338 31.4998 9.79998V10.5H30.0998V9.79998ZM32.1998 11.9H32.8998V16.1H28.6998V11.9H32.1998Z" fill="#FF9902"/>
<path d="M30.7996 14.7C31.1862 14.7 31.4996 14.3866 31.4996 14C31.4996 13.6134 31.1862 13.3 30.7996 13.3C30.413 13.3 30.0996 13.6134 30.0996 14C30.0996 14.3866 30.413 14.7 30.7996 14.7Z" fill="#FF9902"/>
<path d="M31.4998 37.1H27.9998C27.6132 37.1 27.2998 37.4134 27.2998 37.8C27.2998 38.1866 27.6132 38.5 27.9998 38.5H32.1998C32.5864 38.5 32.8998 38.1866 32.8998 37.8V34.3C32.8998 33.9134 32.5864 33.6 32.1998 33.6C31.8132 33.6 31.4998 33.9134 31.4998 34.3V37.1Z" fill="#FF9902"/>
</g>
<defs>
<clipPath id="clip0">
<rect width="42" height="42" fill="white"/>
</clipPath>
</defs>
</svg>
