<svg width="42" height="42" viewBox="0 0 42 42" fill="none" xmlns="http://www.w3.org/2000/svg">
<path d="M41.4444 38.5744L39.1204 35.8864L39.7154 35.4048C40.0828 35.1049 40.269 34.6363 40.2077 34.1661C40.1464 33.6958 39.8464 33.2906 39.4144 33.0948L36.1027 31.615L36.1461 31.048L39.3164 29.4464C39.9367 29.1374 40.2352 28.4191 40.0164 27.7615L38.9118 24.3875L41.2183 21.6883C41.6694 21.1655 41.6694 20.3911 41.2183 19.8683L38.9083 17.1719L40.0129 13.7972C40.2313 13.1398 39.9329 12.422 39.3129 12.113L36.1482 10.5114L35.8745 6.96732C35.8244 6.27662 35.2745 5.72761 34.5837 5.67862L31.041 5.41052L29.4443 2.23952C29.136 1.61849 28.417 1.31979 27.7594 1.53952L24.3854 2.64832L21.6883 0.33832C21.1655 -0.112773 20.3911 -0.112773 19.8683 0.33832L17.1712 2.64832L13.7972 1.54372C13.1396 1.32432 12.4209 1.62293 12.1123 2.24372L10.5107 5.40422L6.96662 5.67722C6.27578 5.72705 5.72662 6.2771 5.67792 6.96802L5.40982 10.5107L2.23952 12.1123C1.6192 12.4213 1.32076 13.1396 1.53952 13.7972L2.64832 17.1712L0.33832 19.8683C-0.112773 20.3911 -0.112773 21.1655 0.33832 21.6883L2.64832 24.3847L1.54372 27.7587C1.32529 28.4163 1.62363 29.1344 2.24372 29.4436L5.40982 31.0452L5.68282 34.5893C5.73265 35.2802 6.2827 35.8293 6.97362 35.878L10.5163 36.1461L12.1179 39.3164C12.4269 39.9367 13.1452 40.2352 13.8028 40.0164L17.1768 38.9118L19.8683 41.2183C20.391 41.6697 21.1656 41.6697 21.6883 41.2183L24.3847 38.9083L27.7587 40.0129C28.4163 40.2314 29.1344 39.933 29.4436 39.3129L31.0452 36.1468L31.8747 36.0824L32.6083 38.7228C32.73 39.1656 33.0675 39.5167 33.505 39.6559C33.9382 39.7955 34.4126 39.7059 34.765 39.4179L35.969 38.4379L38.4715 41.3079C38.7195 41.5922 39.0745 41.7605 39.4515 41.7727H39.4928C39.8548 41.7721 40.2016 41.627 40.456 41.3695L41.3856 40.4273C41.8834 39.9169 41.9095 39.1111 41.4458 38.5695L41.4444 38.5744ZM30.5447 34.7874C30.3012 34.8065 30.0853 34.9511 29.9749 35.1689L28.1983 38.6864L24.447 37.4593C24.2149 37.3833 23.96 37.4337 23.7743 37.5923L20.7783 40.1571L17.7823 37.5923C17.5966 37.4337 17.3417 37.3833 17.1096 37.4593L13.3618 38.6864L11.5824 35.1626C11.4723 34.9429 11.2549 34.797 11.0098 34.7783L7.07302 34.4808L6.76922 30.5433C6.7504 30.2996 6.60578 30.0833 6.38772 29.9728L2.87022 28.1983L4.09732 24.447C4.17337 24.2149 4.12297 23.96 3.96432 23.7743L1.39952 20.7783L3.96432 17.7823C4.12297 17.5966 4.17337 17.3417 4.09732 17.1096L2.87022 13.3618L6.39402 11.5824C6.61377 11.4723 6.75964 11.2549 6.77832 11.0098L7.07582 7.07302L11.0133 6.76922C11.2571 6.7504 11.4733 6.60578 11.5838 6.38772L13.3639 2.87022L17.1096 4.09732C17.3417 4.17337 17.5966 4.12297 17.7823 3.96432L20.7783 1.39952L23.7743 3.96432C23.96 4.12297 24.2149 4.17337 24.447 4.09732L28.1983 2.87022L29.9777 6.39402C30.0884 6.61296 30.3057 6.75797 30.5503 6.77622L34.4871 7.07372L34.7909 11.0112C34.8099 11.2551 34.9548 11.4714 35.1731 11.5817L38.6899 13.3618L37.4593 17.1096C37.3835 17.3418 37.4341 17.5968 37.593 17.7823L40.1571 20.7783L37.593 23.7743C37.4341 23.9599 37.3835 24.2148 37.4593 24.447L38.6857 28.1983L35.1626 29.9777C34.9441 30.0882 34.7992 30.3048 34.7804 30.5489L34.7447 31.0102L32.4865 29.9973C32.0092 29.781 31.4495 29.8631 31.0543 30.2073C30.6499 30.5524 30.4839 31.1016 30.6294 31.6129L31.4925 34.7125L30.5447 34.7874ZM39.5285 40.3937L36.5822 37.012C36.3346 36.7277 35.9063 36.6905 35.6134 36.928L33.9383 38.2853L31.9965 31.3119L34.9694 32.6195C35.0419 32.6693 35.1231 32.705 35.2088 32.7245L38.8313 34.317L37.6777 35.2543C37.5306 35.3737 37.4381 35.5477 37.4215 35.7365C37.4049 35.9253 37.4655 36.1127 37.5895 36.256L40.3692 39.4683L39.5285 40.3937Z" fill="#377DFF"/>
<path d="M14.8282 17.9784C16.5679 17.9784 17.9782 16.5681 17.9782 14.8284C17.9782 13.0887 16.5679 11.6784 14.8282 11.6784C13.0885 11.6784 11.6782 13.0887 11.6782 14.8284C11.6802 16.5673 13.0893 17.9764 14.8282 17.9784ZM14.8282 13.0784C15.7947 13.0784 16.5782 13.8619 16.5782 14.8284C16.5782 15.7949 15.7947 16.5784 14.8282 16.5784C13.8617 16.5784 13.0782 15.7949 13.0782 14.8284C13.0782 13.8619 13.8617 13.0784 14.8282 13.0784Z" fill="#377DFF"/>
<path d="M26.7281 23.5784C24.9884 23.5784 23.5781 24.9887 23.5781 26.7284C23.5781 28.4681 24.9884 29.8784 26.7281 29.8784C28.4678 29.8784 29.8781 28.4681 29.8781 26.7284C29.8762 24.9895 28.467 23.5803 26.7281 23.5784ZM26.7281 28.4784C25.7616 28.4784 24.9781 27.6949 24.9781 26.7284C24.9781 25.7619 25.7616 24.9784 26.7281 24.9784C27.6946 24.9784 28.4781 25.7619 28.4781 26.7284C28.4781 27.1925 28.2938 27.6376 27.9656 27.9658C27.6374 28.294 27.1923 28.4784 26.7281 28.4784Z" fill="#377DFF"/>
<path d="M25.8182 12.3784L12.3782 25.8184C11.7176 26.4054 11.4367 27.3102 11.6486 28.1681C11.8606 29.0261 12.5304 29.696 13.3884 29.9079C14.2464 30.1199 15.1511 29.839 15.7382 29.1784L29.1782 15.7384C30.1037 14.8096 30.1037 13.3072 29.1782 12.3784C28.2374 11.4824 26.759 11.4824 25.8182 12.3784ZM28.1912 14.7514L14.7512 28.1914C14.364 28.5625 13.7531 28.5625 13.3659 28.1914C12.9836 27.8087 12.9836 27.1887 13.3659 26.8061L26.8059 13.3661C27.1907 12.9965 27.8005 13.0028 28.1777 13.3802C28.5549 13.7576 28.5609 14.3674 28.1912 14.7521V14.7514Z" fill="#377DFF"/>
</svg>
