<svg width="44" height="45" viewBox="0 0 44 45" fill="none" xmlns="http://www.w3.org/2000/svg">
<path fill-rule="evenodd" clip-rule="evenodd" d="M43.0675 12.1989C43.5782 12.1989 44 11.7812 44 11.2755C44 10.7699 43.5782 10.3522 43.0675 10.3522H36.6952C36.3178 10.3522 35.9625 10.572 35.8293 10.9237L34.3639 14.4412H29.1018L30.7893 13.1882C31.1224 12.9463 31.2555 12.5286 31.1224 12.1549C30.9892 11.7812 30.6339 11.5174 30.2343 11.5174H24.9944L30.101 1.33842C30.3008 0.942725 30.1898 0.48104 29.8567 0.217205C29.5237 -0.0686257 29.0353 -0.0686257 28.68 0.19521L9.58561 14.3534C9.5634 14.3644 9.54674 14.3809 9.53008 14.3974L9.53008 14.3974L9.53007 14.3974C9.51341 14.4139 9.49675 14.4304 9.47454 14.4413H0.948691C0.637811 14.4413 0.349252 14.5952 0.171545 14.837C-0.00605459 15.0789 -0.0504814 15.4086 0.0604778 15.6944L5.87759 31.8972C6.01076 32.2709 6.36607 32.5127 6.76569 32.5127H28.1914H31.1666C32.0103 32.5127 32.6986 33.1943 32.6986 34.0296C32.6986 34.865 32.0103 35.5466 31.1666 35.5466H27.2589H7.8094C5.18951 35.5466 3.03578 37.6571 3.03578 40.2733C3.03578 42.8894 5.1673 45 7.8094 45C10.4293 45 12.583 42.8894 12.583 40.2733C12.583 39.1961 12.2278 38.2067 11.6061 37.4153H23.4846C22.8852 38.2067 22.5077 39.1961 22.5077 40.2733C22.5077 42.8674 24.6392 45 27.2813 45C29.9234 45 32.0549 42.8894 32.0549 40.2733C32.0549 39.1961 31.6997 38.2067 31.0779 37.4153H31.189C33.0763 37.4153 34.6083 35.8984 34.6083 34.0296C34.6083 32.1609 33.0763 30.644 31.189 30.644H29.6347L37.3169 12.1988L43.0675 12.1989ZM10.6957 40.2733C10.6957 41.8562 9.40801 43.1313 7.8094 43.1313C6.21079 43.1313 4.92306 41.8562 4.92306 40.2733C4.92306 38.6904 6.21079 37.4153 7.8094 37.4153C9.40801 37.4153 10.6957 38.7124 10.6957 40.2733ZM27.2591 43.1313C28.8577 43.1313 30.1454 41.8562 30.1454 40.2733C30.1454 38.7124 28.8577 37.4153 27.2591 37.4153C25.6605 37.4153 24.3727 38.6904 24.3727 40.2733C24.3727 41.8562 25.6605 43.1313 27.2591 43.1313ZM16.9347 14.1555H12.9825L26.6151 4.02055L22.6186 12.0229C22.4632 12.3088 22.4855 12.6605 22.6631 12.9243C22.8407 13.1882 23.1293 13.364 23.4623 13.364H27.4145L25.9712 14.4412L23.4623 16.31L13.7819 23.499L17.3787 16.31L17.7784 15.5186C17.9338 15.2327 17.9115 14.881 17.7339 14.6172C17.6895 14.5512 17.6451 14.5072 17.6008 14.4633C17.4232 14.2654 17.1789 14.1555 16.9347 14.1555ZM15.2695 16.31H2.30306L7.45409 30.622H27.5921L27.6143 30.556L33.5647 16.288H26.5708L11.7171 27.3463C11.5616 27.4782 11.3618 27.5442 11.162 27.5442C10.94 27.5442 10.7402 27.4782 10.5626 27.3243C10.2295 27.0605 10.1185 26.5988 10.3183 26.2031L15.2695 16.31Z" fill="#377DFF"/>
</svg>
