<svg width="147" height="50" viewBox="0 0 147 50" fill="none" xmlns="http://www.w3.org/2000/svg">
<path fill-rule="evenodd" clip-rule="evenodd" d="M8.66649 0C4.24822 0 0.666504 3.58172 0.666504 8V42C0.666504 46.4183 4.24823 50 8.6665 50H138.5C142.918 50 146.5 46.4183 146.5 42V8C146.5 3.58172 142.918 0 138.5 0H8.66649Z" fill="black"/>
<path fill-rule="evenodd" clip-rule="evenodd" d="M12.4121 19.8506C12.0012 19.9808 11.7354 20.4022 11.7354 21.0397L11.7379 41.104C11.7379 41.7345 11.9955 42.1494 12.395 42.288L23.4766 31.0603L12.4121 19.8506Z" fill="url(#paint0_linear)"/>
<path fill-rule="evenodd" clip-rule="evenodd" d="M12.3955 42.2882C12.6829 42.387 13.0431 42.3408 13.4356 42.1227L26.9589 34.588L23.4771 31.0605L12.3955 42.2882Z" fill="url(#paint1_linear)"/>
<path fill-rule="evenodd" clip-rule="evenodd" d="M26.9607 34.5884L31.5719 32.0197C32.5069 31.497 32.5069 30.6466 31.5719 30.1251L26.9437 27.5469L23.4771 31.059L26.9607 34.5884Z" fill="url(#paint2_linear)"/>
<path fill-rule="evenodd" clip-rule="evenodd" d="M26.9424 27.5464L13.435 20.022C13.052 19.8097 12.6987 19.7603 12.4126 19.8507L23.4765 31.0585L26.9424 27.5464Z" fill="url(#paint3_linear)"/>
<path fill-rule="evenodd" clip-rule="evenodd" d="M89.2125 36.7198C88.5076 36.6521 88.3589 36.5181 88.3589 35.6568L88.364 23.0834C88.4491 22.3075 88.6481 22.0651 89.313 21.667H86.2454L84.6385 22.4672H86.3077L86.316 35.6483V36.143C86.316 36.5433 86.2463 36.6359 85.8667 37.1412L85.8666 37.1413L85.8645 37.1441C85.8248 37.1969 85.7817 37.2543 85.735 37.3169H89.5151L90.3084 36.8288C90.1256 36.8063 89.9419 36.7901 89.7575 36.7739C89.5763 36.7579 89.3946 36.7419 89.2125 36.7198ZM51.1879 36.834L48.3123 37.5146C47.1472 37.7045 46.101 37.8714 44.993 37.8714C39.4465 37.8714 37.333 33.6517 37.333 30.3492C37.333 26.3162 40.3275 22.5768 45.4558 22.5768C46.5408 22.5768 47.5845 22.7417 48.5354 23.0098C49.9732 23.4272 50.6809 23.9373 51.1255 24.2577L51.1879 24.3026L49.5175 25.9424L48.8132 26.1053L49.3154 25.2782L49.3109 25.2737C48.6298 24.5862 47.3798 23.3244 45.0121 23.3244C41.8397 23.3244 39.4465 25.8169 39.4465 29.4558C39.4465 33.364 42.1791 37.0403 46.5618 37.0403C47.8496 37.0403 48.5126 36.7729 49.1145 36.5233V33.1728L46.0781 33.3417L47.6875 32.4482H51.9488L51.4276 32.9665C51.2871 33.0901 51.268 33.1321 51.2286 33.2976C51.2076 33.4868 51.1879 34.0886 51.1879 34.3002V36.834ZM57.7827 37.6033C54.3725 37.6033 52.5514 34.8592 52.5514 32.3746C52.5514 29.4715 54.8454 26.9876 58.1062 26.9876C61.2577 26.9876 63.2307 29.5392 63.2307 32.2183C63.2307 34.8349 61.2812 37.6033 57.7827 37.6033ZM61.1093 33.3514C61.1093 34.2147 60.9809 35.1002 60.466 35.8098C59.9708 36.5179 59.1159 36.9377 58.2788 36.9377C55.6835 36.9377 54.6315 33.3252 54.6315 31.1349C54.6315 30.1783 54.7802 29.2034 55.6193 28.4276C56.1342 27.9611 56.8391 27.6754 57.5491 27.6754C60.2067 27.6754 61.1093 31.399 61.1093 33.3514ZM69.198 37.6033C65.7885 37.6033 63.9642 34.8592 63.9642 32.3746C63.9642 29.4715 66.2576 26.9876 69.5196 26.9876C72.673 26.9876 74.6479 29.5392 74.6479 32.2183C74.6479 34.8349 72.6959 37.6033 69.198 37.6033ZM72.5252 33.3514C72.5252 34.2147 72.3993 35.1002 71.8807 35.8098C71.3868 36.5179 70.5306 36.9377 69.6915 36.9377C67.0918 36.9377 66.0443 33.3252 66.0443 31.1349C66.0443 30.1783 66.1936 29.2034 67.0314 28.4276C67.545 27.9611 68.2576 27.6754 68.965 27.6754C71.6251 27.6754 72.5252 31.399 72.5252 33.3514ZM82.4973 28.0755C82.99 28.494 84.0178 29.3822 84.0178 31.0666C84.0178 32.7084 83.1222 33.4823 82.2189 34.2148L82.1804 34.2548C81.9126 34.5323 81.6176 34.8381 81.6176 35.2994C81.6176 35.7809 81.9297 36.0461 82.1618 36.2434L82.1751 36.2546L82.9499 36.8728C83.8919 37.6946 84.7507 38.4482 84.7507 39.9789C84.7507 42.064 82.798 44.167 79.1081 44.167C75.9999 44.167 74.4972 42.6369 74.4972 40.9965C74.4972 40.1983 74.8818 39.0677 76.1505 38.2931C77.4627 37.464 79.2341 37.3436 80.2078 37.2775L80.2466 37.2749L80.2017 37.2152C79.9122 36.8306 79.6014 36.4178 79.6014 35.7645C79.6014 35.4283 79.6889 35.2136 79.7829 34.9829L79.7974 34.9472L79.8162 34.9006L79.8012 34.9021C79.5716 34.9246 79.3406 34.9473 79.1304 34.9473C76.8554 34.9473 75.5695 33.1932 75.5695 31.4648C75.5695 30.4452 76.0196 29.3139 76.9438 28.494C78.1668 27.4534 79.6249 27.274 80.7837 27.274H85.2039L83.8296 28.0755H82.4973ZM80.4832 37.8937C80.6955 37.8937 80.801 37.8937 80.9771 37.9173C82.6043 39.1162 83.3118 39.7128 83.3118 40.8434C83.3118 42.2171 82.2185 43.2373 80.159 43.2373C77.8669 43.2373 76.3853 42.1041 76.3853 40.5326C76.3853 38.9579 77.7576 38.4278 78.2324 38.2484C79.1299 37.937 80.2887 37.8937 80.4832 37.8937ZM81.5939 33.7049C82.0897 33.1932 82.1329 32.4863 82.1329 32.0849C82.1329 30.4905 81.2132 28.0072 79.4302 28.0072C78.874 28.0072 78.2715 28.2956 77.9295 28.7417C77.5665 29.2035 77.4578 29.8026 77.4578 30.3788C77.4578 31.8635 78.2956 34.3258 80.1383 34.3258C80.6761 34.3258 81.2545 34.0558 81.5939 33.7049ZM98.9028 35.8283L97.8769 36.8288C97.7979 36.8736 97.7191 36.9209 97.6404 36.9681C97.4828 37.0626 97.3257 37.1568 97.1688 37.2308C96.4562 37.5652 95.7316 37.6493 95.0877 37.6493C94.4025 37.6493 93.3283 37.6033 92.2325 36.7841C90.7101 35.6758 90.0446 33.7707 90.0446 32.1106C90.0446 28.6734 92.7518 26.9876 94.96 26.9876C95.7316 26.9876 96.5243 27.1873 97.1688 27.6085C98.2282 28.3325 98.5111 29.2711 98.6661 29.7849L98.6714 29.8027L93.6289 31.9082L91.9776 32.0409C92.5121 34.8592 94.3567 36.4983 96.3952 36.4983C97.4135 36.4983 98.1693 36.1548 98.8628 35.8007C98.8628 35.8007 99.002 35.7258 98.9028 35.8283ZM96.4829 29.6273C96.4829 29.936 96.27 30.0688 95.8607 30.2225L91.9559 31.9739C91.9485 31.8375 91.9386 31.701 91.9287 31.5656C91.9098 31.3058 91.8911 31.0496 91.8911 30.8039C91.8911 28.4086 93.4999 27.7188 94.3567 27.7188C95.5136 27.7188 96.4829 28.7417 96.4829 29.6273ZM105.086 35.9229V41.5694H104V27.2011H105.086V28.8376C105.792 27.7799 107.084 26.9417 108.584 26.9417C111.275 26.9417 113.087 29.0511 113.087 32.3904C113.087 35.7074 111.275 37.8609 108.584 37.8609C107.168 37.8609 105.899 37.106 105.086 35.9229ZM108.401 27.954C110.652 27.954 111.921 29.8736 111.921 32.3904C111.921 34.9112 110.652 36.8472 108.401 36.8472C107.003 36.8472 105.666 35.6706 105.085 34.6786V30.0793C105.666 29.0892 107.003 27.954 108.401 27.954ZM114.569 23.2339H115.653V37.6021H114.569V23.2339ZM124.491 36.6271C124.531 36.8925 124.586 37.2105 124.659 37.5712H125.909C125.812 37.2355 125.739 36.8886 125.693 36.5411C125.648 36.1942 125.631 35.8381 125.631 35.4696V30.3388C125.631 29.2404 125.269 28.4001 124.549 27.8187C123.827 27.2314 122.87 26.9371 121.687 26.9371C120.5 26.9371 119.536 27.236 118.8 27.8305C118.061 28.4257 117.713 29.1149 117.753 29.9006L117.776 29.9564H118.886C118.886 29.3737 119.139 28.8902 119.64 28.5C120.145 28.1176 120.809 27.9212 121.627 27.9212C122.522 27.9212 123.212 28.136 123.704 28.5611C124.194 28.9855 124.439 29.5708 124.439 30.3151V31.6074H121.909C120.552 31.6074 119.457 31.8964 118.609 32.4778C117.761 33.0566 117.335 33.8134 117.335 34.7456C117.335 35.6792 117.629 36.4169 118.213 36.9615C118.798 37.5068 119.619 37.7755 120.676 37.7755C121.554 37.7755 122.194 37.5929 122.867 37.2204C123.541 36.8505 124.067 36.3808 124.439 35.8165C124.439 36.0917 124.458 36.3624 124.491 36.6271ZM120.808 36.7539C121.73 36.7539 122.392 36.541 123.069 36.1199C123.742 35.7014 124.2 35.1555 124.439 34.4946V32.4975H121.897C120.925 32.4975 120.121 32.7195 119.489 33.1676C118.855 33.6143 118.534 34.155 118.534 34.7837C118.534 35.3769 118.738 35.8512 119.142 36.2106C119.547 36.5739 120.102 36.7539 120.808 36.7539ZM128.707 40.8132C128.456 40.8132 128.06 40.7475 127.828 40.6404L127.642 41.6751C127.912 41.7612 128.375 41.8256 128.726 41.8256C129.895 41.8256 130.746 41.1969 131.287 39.8896L136.5 27.2012H135.272L131.642 36.2894L127.975 27.2012H126.765L131.039 37.6888L130.248 39.542C129.833 40.5327 129.37 40.8132 128.707 40.8132Z" fill="white"/>
<path fill-rule="evenodd" clip-rule="evenodd" d="M40.9708 7.5C38.9542 7.5 37.333 8.96596 37.333 11.2449C37.333 13.5137 38.9542 15 40.9708 15C42.166 15 43.1431 14.4684 43.8184 13.6758V10.973H40.5345V12.0911H42.6127V13.2092C42.3011 13.5239 41.6778 13.8602 40.9708 13.8602C39.5995 13.8602 38.5802 12.7529 38.5802 11.2449C38.5802 9.71454 39.5995 8.62964 40.9708 8.62964C41.7395 8.62964 42.3946 9.05207 42.7685 9.5952L43.756 8.99783C43.2048 8.17331 42.3218 7.5 40.9708 7.5ZM45.3224 7.61932V14.8589H50.0717V13.7408H46.5378V11.7223H49.999V10.6041H46.5378V8.73812H50.0717V7.61932H45.3224ZM53.4363 14.8589V8.73812H51.3372V7.61932H56.7513V8.73812H54.6523V14.8589H53.4363ZM62.1921 7.61932H60.9767V14.8589H62.1921V7.61932ZM65.579 14.8589V8.73812H63.48V7.61932H68.8941V8.73812H66.795V14.8589H65.579ZM76.3626 7.5C74.2831 7.5 72.8184 9.08462 72.8184 11.2449C72.8184 13.4045 74.2831 14.9892 76.3626 14.9892C78.4298 14.9892 79.9062 13.4045 79.9062 11.2449C79.9062 9.08462 78.4298 7.5 76.3626 7.5ZM78.6594 11.2449C78.6594 9.7471 77.755 8.62966 76.363 8.62966C74.9593 8.62966 74.0659 9.7471 74.0659 11.2449C74.0659 12.7312 74.9593 13.8602 76.363 13.8602C77.755 13.8602 78.6594 12.7312 78.6594 11.2449ZM82.5421 9.68198L86.159 14.8589H87.3335V7.61932H86.1175V12.6342L82.5739 7.61932H81.3267V14.8589H82.5421V9.68198Z" fill="white"/>
<defs>
<linearGradient id="paint0_linear" x1="11.7354" y1="19.8506" x2="11.7354" y2="42.288" gradientUnits="userSpaceOnUse">
<stop stop-color="#1E79AF"/>
<stop offset="1" stop-color="#63FFD3"/>
</linearGradient>
<linearGradient id="paint1_linear" x1="18.7539" y1="28.2085" x2="10.1473" y2="39.6927" gradientUnits="userSpaceOnUse">
<stop stop-color="#DC4057"/>
<stop offset="1" stop-color="#9E36BB"/>
</linearGradient>
<linearGradient id="paint2_linear" x1="23.5727" y1="27.5469" x2="23.5727" y2="34.4353" gradientUnits="userSpaceOnUse">
<stop stop-color="#FF9676"/>
<stop offset="1" stop-color="#FFD074"/>
</linearGradient>
<linearGradient id="paint3_linear" x1="7.68219" y1="24.4518" x2="16.2678" y2="37.8824" gradientUnits="userSpaceOnUse">
<stop stop-color="#51C6AD"/>
<stop offset="1" stop-color="#D5FFA1"/>
</linearGradient>
</defs>
</svg>
