<svg width="42" height="42" viewBox="0 0 42 42" fill="none" xmlns="http://www.w3.org/2000/svg">
<g clip-path="url(#clip0)">
<path d="M40.3712 11.7485L41.3225 10.7839C41.9488 10.1467 42.162 9.21049 41.8734 8.36488C41.6156 7.55379 40.9221 6.95778 40.0815 6.82498L35.4995 6.13275C35.2208 6.08518 34.9843 5.90127 34.8695 5.64281L32.8053 1.29677C32.4491 0.508158 31.6639 0.00131226 30.7985 0.00131226C29.9332 0.00131226 29.148 0.508158 28.7918 1.29677L26.7261 5.64691C26.6113 5.90538 26.3748 6.08928 26.0961 6.13686L21.5141 6.82908C20.6735 6.96188 19.9799 7.55789 19.7223 8.36898C19.4336 9.21459 19.6468 10.1508 20.2732 10.788L20.684 11.208H3.49985C1.56787 11.2104 0.00229676 12.776 0 14.7079V38.499C0.00229676 40.4309 1.56787 41.9965 3.49985 41.9989H38.4981C40.43 41.9966 41.9956 40.431 41.9979 38.499V14.7002C42.0005 13.5017 41.3859 12.3863 40.3712 11.7485V11.7485ZM21.0522 8.80864C21.1433 8.49735 21.4048 8.26579 21.7249 8.21296L26.3062 7.52073C27.0445 7.40417 27.6762 6.92752 27.991 6.24956L30.0559 1.8986C30.1806 1.59854 30.4736 1.40299 30.7985 1.40299C31.1235 1.40299 31.4165 1.59854 31.5412 1.8986L33.6061 6.24956C33.9207 6.92727 34.5522 7.40393 35.2902 7.52073L39.8721 8.21296C40.1922 8.26579 40.4536 8.49735 40.5448 8.80864C40.664 9.15414 40.5794 9.53737 40.3257 9.80051L37.0359 13.1316C36.5089 13.6753 36.2722 14.4373 36.3982 15.1839L37.178 19.9108C37.2457 20.2695 37.101 20.6351 36.8063 20.8502C36.5656 21.028 36.243 21.0477 35.9824 20.9006L31.8414 18.6376C31.1917 18.2815 30.4052 18.2815 29.7556 18.6376L25.6187 20.9005C25.3582 21.0476 25.0355 21.0279 24.7948 20.8501C24.5 20.635 24.3554 20.2694 24.4232 19.9108L25.1987 15.1839C25.3236 14.4366 25.0853 13.6745 24.5569 13.1315L21.2713 9.80043C21.0168 9.53688 20.9321 9.15258 21.0522 8.80651V8.80864ZM3.49985 12.6003H22.0671L23.5615 14.1151C23.776 14.3382 23.8714 14.6501 23.8184 14.955L23.0387 19.6819C22.8814 20.5694 23.2485 21.4683 23.9823 21.9918C24.6593 22.479 25.5562 22.5335 26.2872 22.1318L30.4268 19.8688C30.6582 19.7413 30.9388 19.7413 31.1701 19.8688L35.3097 22.1318C36.0406 22.5339 36.9378 22.4794 37.6147 21.9918C38.3484 21.4683 38.7156 20.5694 38.5582 19.6819L37.7785 14.955C37.7254 14.6501 37.8208 14.3382 38.0354 14.1151L39.3478 12.7852C40.1092 13.1171 40.6005 13.8697 40.598 14.7002V27.9995H1.39996V14.7002C1.39996 13.5405 2.34007 12.6003 3.49985 12.6003V12.6003ZM40.5979 34.9992H1.39996V29.3995H40.598V34.9992H40.5979ZM38.498 40.5989H3.49985C2.34015 40.5989 1.39996 39.6587 1.39996 38.499V36.3991H40.598V38.499C40.5979 39.6588 39.6578 40.5989 38.498 40.5989Z" fill="#FF9902"/>
<path d="M30.7986 24.4998C31.1852 24.4998 31.4985 24.1863 31.4985 23.7998V21.6999C31.4985 21.3133 31.1851 21 30.7986 21C30.412 21 30.0986 21.3134 30.0986 21.6999V23.7998C30.0986 24.1863 30.412 24.4998 30.7986 24.4998Z" fill="#FF9902"/>
<path d="M30.7986 27.2996C31.1852 27.2996 31.4985 26.9863 31.4985 26.5997V25.8997C31.4985 25.5131 31.1851 25.1998 30.7986 25.1998C30.412 25.1998 30.0986 25.5131 30.0986 25.8997V26.5997C30.0986 26.9862 30.412 27.2996 30.7986 27.2996Z" fill="#FF9902"/>
<path d="M33.5984 25.8996C33.985 25.8996 34.2983 25.5863 34.2983 25.1997V23.0998C34.2983 22.7132 33.9849 22.3999 33.5984 22.3999C33.2118 22.3999 32.8984 22.7132 32.8984 23.0998V25.1997C32.8984 25.5863 33.2118 25.8996 33.5984 25.8996Z" fill="#FF9902"/>
<path d="M27.9988 25.8996C28.3854 25.8996 28.6987 25.5863 28.6987 25.1997V23.0998C28.6987 22.7132 28.3853 22.3999 27.9988 22.3999C27.6123 22.3999 27.2988 22.7132 27.2988 23.0998V25.1997C27.2988 25.5863 27.6123 25.8996 27.9988 25.8996Z" fill="#FF9902"/>
<path d="M6.30009 23.7997H13.2997C14.4594 23.7997 15.3996 22.8595 15.3996 21.6998V17.5001C15.3996 16.3404 14.4594 15.4002 13.2997 15.4002H6.30009C5.14039 15.4002 4.2002 16.3404 4.2002 17.5001V21.6998C4.2002 22.8596 5.14039 23.7997 6.30009 23.7997V23.7997ZM5.60015 17.5001C5.60015 17.1135 5.91358 16.8001 6.30009 16.8001H13.2997C13.6863 16.8001 13.9996 17.1136 13.9996 17.5001V21.6998C13.9996 22.0864 13.6862 22.3998 13.2997 22.3998H6.30009C5.9135 22.3998 5.60015 22.0864 5.60015 21.6998V17.5001Z" fill="#FF9902"/>
</g>
<defs>
<clipPath id="clip0">
<rect width="42" height="42" fill="white"/>
</clipPath>
</defs>
</svg>
