<svg width="203" height="104" viewBox="0 0 203 104" fill="none" xmlns="http://www.w3.org/2000/svg">
<path d="M104 52C104 80.7188 80.7188 104 52 104C23.2812 104 0 80.7188 0 52C0 23.2812 23.2812 0 52 0C80.7188 0 104 23.2812 104 52Z" fill="#1166E3"/>
<path d="M27.6448 72.3333C23.649 72.3333 20.177 71.4799 17.2287 69.7729C14.3192 68.066 12.0691 65.622 10.4786 62.4409C8.88804 59.2599 8.09277 55.5357 8.09277 51.2684C8.09277 47.0011 8.86865 43.2963 10.4204 40.154C12.0109 36.9729 14.2804 34.5289 17.2287 32.822C20.177 31.1151 23.649 30.2616 27.6448 30.2616C31.6405 30.2616 35.0932 31.1151 38.0027 32.822C40.951 34.5289 43.201 36.9729 44.7528 40.154C46.3433 43.2963 47.1386 47.0011 47.1386 51.2684C47.1386 55.5357 46.3433 59.2599 44.7528 62.4409C43.1622 65.622 40.8928 68.066 37.9445 69.7729C35.035 71.4799 31.6017 72.3333 27.6448 72.3333ZM27.6448 66.3397C31.4078 66.3397 34.3367 65.0401 36.4315 62.4409C38.5652 59.8418 39.632 56.1176 39.632 51.2684C39.632 46.4192 38.5652 42.7144 36.4315 40.154C34.3367 37.5548 31.4078 36.2552 27.6448 36.2552C23.843 36.2552 20.8753 37.5548 18.7416 40.154C16.6468 42.7144 15.5993 46.4192 15.5993 51.2684C15.5993 56.1176 16.6468 59.8418 18.7416 62.4409C20.8753 65.0401 23.843 66.3397 27.6448 66.3397Z" fill="white"/>
<path d="M57.6883 72.1587C56.6409 72.1587 55.768 71.8678 55.0698 71.2859C54.4103 70.6652 54.0805 69.7923 54.0805 68.6673V33.9276C54.0805 32.8026 54.4103 31.9491 55.0698 31.3672C55.768 30.7853 56.6409 30.4944 57.6883 30.4944C58.7358 30.4944 59.6086 30.7853 60.3069 31.3672C61.0052 31.9491 61.3543 32.8026 61.3543 33.9276V68.6673C61.3543 69.7923 61.0052 70.6652 60.3069 71.2859C59.6086 71.8678 58.7358 72.1587 57.6883 72.1587Z" fill="white"/>
<path d="M81.1918 42.6562C85.1488 42.6562 88.0777 43.6454 89.9786 45.6239C91.9183 47.5636 92.8881 50.5313 92.8881 54.527V68.7255C92.8881 69.7729 92.5778 70.607 91.9571 71.2277C91.3364 71.8096 90.4829 72.1006 89.3967 72.1006C88.388 72.1006 87.554 71.7902 86.8945 71.1695C86.2738 70.5488 85.9635 69.7341 85.9635 68.7255V67.4453C85.304 68.9583 84.2565 70.1415 82.8212 70.9949C81.4246 71.8484 79.7953 72.2751 77.9332 72.2751C76.0323 72.2751 74.306 71.8872 72.7542 71.1113C71.2025 70.3354 69.9805 69.2686 69.0882 67.9108C68.196 66.5531 67.7498 65.0401 67.7498 63.372C67.7498 61.2771 68.2735 59.6284 69.321 58.4258C70.4072 57.2232 72.1529 56.3503 74.5581 55.8072C76.9633 55.2641 80.2802 54.9926 84.5087 54.9926H85.9635V53.6542C85.9635 51.7533 85.5561 50.3761 84.7414 49.5226C83.9268 48.6304 82.6078 48.1843 80.7845 48.1843C79.6595 48.1843 78.5151 48.3588 77.3513 48.708C76.1874 49.0183 74.8103 49.4839 73.2197 50.1046C72.2111 50.6089 71.474 50.861 71.0085 50.861C70.3102 50.861 69.7283 50.6089 69.2628 50.1046C68.8361 49.6002 68.6227 48.9407 68.6227 48.1261C68.6227 47.4666 68.7779 46.9041 69.0882 46.4386C69.4374 45.9342 69.9999 45.4687 70.7757 45.042C72.1335 44.3049 73.7434 43.723 75.6055 43.2963C77.5064 42.8695 79.3685 42.6562 81.1918 42.6562ZM79.3879 67.038C81.3276 67.038 82.8987 66.3979 84.1013 65.1177C85.3427 63.7987 85.9635 62.1112 85.9635 60.0551V58.8331H84.916C82.3168 58.8331 80.2996 58.9495 78.8642 59.1823C77.4288 59.415 76.4008 59.8224 75.7801 60.4043C75.1594 60.9862 74.8491 61.7814 74.8491 62.7901C74.8491 64.0315 75.2758 65.0595 76.1293 65.8742C77.0215 66.65 78.1077 67.038 79.3879 67.038Z" fill="white"/>
<path d="M122.886 72.2754C120.054 72.2754 117.552 71.6741 115.379 70.4714C113.246 69.2688 111.597 67.5619 110.433 65.3507C109.269 63.1394 108.688 60.5597 108.688 57.6114C108.688 54.663 109.289 52.0639 110.491 49.8138C111.733 47.525 113.459 45.7599 115.67 44.5185C117.882 43.2771 120.423 42.6564 123.293 42.6564C124.806 42.6564 126.319 42.8698 127.832 43.2965C129.384 43.7232 130.742 44.3051 131.906 45.0422C133.147 45.8569 133.768 46.8849 133.768 48.1263C133.768 48.9798 133.554 49.678 133.128 50.2212C132.74 50.7255 132.216 50.9776 131.556 50.9776C131.13 50.9776 130.684 50.8807 130.218 50.6867C129.752 50.4927 129.287 50.26 128.821 49.9884C127.968 49.4841 127.153 49.0961 126.377 48.8246C125.602 48.5142 124.709 48.3591 123.701 48.3591C121.295 48.3591 119.433 49.1543 118.114 50.7449C116.834 52.2966 116.194 54.5467 116.194 57.495C116.194 60.4045 116.834 62.6545 118.114 64.2451C119.433 65.7968 121.295 66.5727 123.701 66.5727C124.67 66.5727 125.524 66.4369 126.261 66.1654C127.037 65.855 127.89 65.4477 128.821 64.9434C129.403 64.5942 129.908 64.3421 130.334 64.1869C130.761 63.9929 131.188 63.8959 131.615 63.8959C132.235 63.8959 132.759 64.1675 133.186 64.7106C133.612 65.2537 133.826 65.9326 133.826 66.7473C133.826 67.4068 133.671 67.9887 133.36 68.493C133.089 68.9585 132.623 69.3852 131.964 69.7732C130.761 70.549 129.365 71.1697 127.774 71.6353C126.183 72.062 124.554 72.2754 122.886 72.2754Z" fill="#172B4D"/>
<path d="M142.28 72.159C141.232 72.159 140.359 71.868 139.661 71.2861C139.002 70.6654 138.672 69.7926 138.672 68.6675V46.206C138.672 45.081 139.002 44.2275 139.661 43.6456C140.359 43.0637 141.232 42.7728 142.28 42.7728C143.327 42.7728 144.2 43.0637 144.898 43.6456C145.597 44.2275 145.946 45.081 145.946 46.206V68.6675C145.946 69.7926 145.597 70.6654 144.898 71.2861C144.2 71.868 143.327 72.159 142.28 72.159ZM142.28 37.5938C140.961 37.5938 139.913 37.2447 139.137 36.5464C138.362 35.8093 137.974 34.8589 137.974 33.6951C137.974 32.5313 138.362 31.6002 139.137 30.9019C139.913 30.2036 140.961 29.8545 142.28 29.8545C143.56 29.8545 144.588 30.2036 145.364 30.9019C146.179 31.6002 146.586 32.5313 146.586 33.6951C146.586 34.8589 146.198 35.8093 145.422 36.5464C144.646 37.2447 143.599 37.5938 142.28 37.5938Z" fill="#172B4D"/>
<path d="M169.477 66.7473C171.417 66.8636 172.387 67.7365 172.387 69.3658C172.387 70.2969 171.999 71.0146 171.223 71.5189C170.486 71.9844 169.419 72.1784 168.023 72.1008L166.452 71.9844C159.934 71.5189 156.676 68.0275 156.676 61.5101V48.8246H153.766C152.719 48.8246 151.904 48.5918 151.322 48.1263C150.779 47.6608 150.507 46.9819 150.507 46.0896C150.507 45.1974 150.779 44.5185 151.322 44.053C151.904 43.5874 152.719 43.3547 153.766 43.3547H156.676V38.0012C156.676 36.9537 157.005 36.1197 157.665 35.499C158.324 34.8783 159.217 34.5679 160.342 34.5679C161.428 34.5679 162.301 34.8783 162.96 35.499C163.62 36.1197 163.949 36.9537 163.949 38.0012V43.3547H168.896C169.943 43.3547 170.738 43.5874 171.281 44.053C171.863 44.5185 172.154 45.1974 172.154 46.0896C172.154 46.9819 171.863 47.6608 171.281 48.1263C170.738 48.5918 169.943 48.8246 168.896 48.8246H163.949V62.0338C163.949 64.9046 165.268 66.4369 167.906 66.6309L169.477 66.7473Z" fill="#172B4D"/>
<path d="M196.475 44.8676C196.785 44.1694 197.193 43.665 197.697 43.3547C198.24 43.0055 198.822 42.831 199.443 42.831C200.335 42.831 201.13 43.1413 201.829 43.762C202.566 44.3439 202.934 45.081 202.934 45.9733C202.934 46.4 202.818 46.8461 202.585 47.3116L186.699 80.5966C186.04 81.9156 185.012 82.5751 183.615 82.5751C182.723 82.5751 181.927 82.2841 181.229 81.7022C180.57 81.1591 180.24 80.4608 180.24 79.6074C180.24 79.1806 180.356 78.6957 180.589 78.1526L184.546 69.8314L173.723 47.3116C173.529 46.9237 173.432 46.4776 173.432 45.9733C173.432 45.081 173.8 44.3245 174.537 43.7038C175.313 43.0831 176.186 42.7728 177.156 42.7728C177.815 42.7728 178.417 42.9474 178.96 43.2965C179.503 43.6068 179.93 44.1112 180.24 44.8094L188.387 62.7903L196.475 44.8676Z" fill="#172B4D"/>
<circle cx="90.0708" cy="38.0714" r="3.40476" fill="white"/>
</svg>
