<svg width="42" height="42" viewBox="0 0 42 42" fill="none" xmlns="http://www.w3.org/2000/svg">
<g clip-path="url(#clip0)">
<path d="M21 13.25C20.8932 13.25 20.7865 13.2308 20.685 13.1923L9.31 8.81725C8.97225 8.68775 8.75 8.36225 8.75 8C8.75 7.63775 8.97225 7.31225 9.31 7.18275L20.685 2.80775C20.888 2.73075 21.1102 2.73075 21.3132 2.80775L32.6883 7.18275C33.0278 7.31225 33.25 7.63775 33.25 8C33.25 8.36225 33.0278 8.68775 32.69 8.81725L21.315 13.1923C21.2135 13.2308 21.1068 13.25 21 13.25V13.25ZM12.0628 8L21 11.437L29.9373 8L21 4.563L12.0628 8Z" fill="#377DFF"/>
<path d="M21 27.25C20.8932 27.25 20.7865 27.2308 20.685 27.1923L9.31 22.8173C8.97225 22.6878 8.75 22.3623 8.75 22V8C8.75 7.517 9.142 7.125 9.625 7.125C10.108 7.125 10.5 7.517 10.5 8V21.3997L21 25.4388L31.5 21.3997V8C31.5 7.517 31.892 7.125 32.375 7.125C32.858 7.125 33.25 7.517 33.25 8V22C33.25 22.3623 33.0278 22.6878 32.69 22.8173L21.315 27.1923C21.2135 27.2308 21.1068 27.25 21 27.25Z" fill="#377DFF"/>
<path d="M21 27.25C20.517 27.25 20.125 26.858 20.125 26.375V12.375C20.125 11.892 20.517 11.5 21 11.5C21.483 11.5 21.875 11.892 21.875 12.375V26.375C21.875 26.858 21.483 27.25 21 27.25Z" fill="#377DFF"/>
<path d="M18.3753 39.5C18.1093 39.5 17.8468 39.3793 17.6753 39.15C17.3848 38.7633 17.4636 38.2155 17.8503 37.925L20.4158 36L17.8503 34.075C17.4636 33.7845 17.3848 33.2368 17.6753 32.85C17.9658 32.4633 18.5136 32.3863 18.9003 32.675L22.4003 35.3C22.6208 35.4645 22.7503 35.7253 22.7503 36C22.7503 36.2748 22.6208 36.5355 22.4003 36.7L18.9003 39.325C18.7428 39.4423 18.5591 39.5 18.3753 39.5V39.5Z" fill="#377DFF"/>
<path d="M21 36.875C18.354 36.875 15.8498 36.749 13.5555 36.5023C10.381 36.182 0 34.8205 0 30.75C0 29.0893 1.71325 27.7015 5.089 26.627C5.64375 26.4555 6.23875 26.8878 6.23875 27.4618C6.23875 27.8853 5.94475 28.2388 5.54575 28.3193C2.74575 29.2205 1.75 30.1918 1.75 30.75C1.75 31.9155 5.46875 33.928 13.7375 34.761C15.974 35.0025 18.4153 35.125 21 35.125C21.483 35.125 21.875 35.517 21.875 36C21.875 36.483 21.483 36.875 21 36.875Z" fill="#377DFF"/>
<path d="M27.1077 36.6125C26.6562 36.6125 26.273 36.266 26.2362 35.8092C26.1977 35.328 26.5565 34.9045 27.0377 34.866C36.0502 34.1292 40.2502 31.975 40.2502 30.75C40.2502 30.1865 39.237 29.2047 36.3792 28.2947C35.919 28.1477 35.6652 27.656 35.8105 27.1957C35.9575 26.7355 36.4475 26.4817 36.9095 26.627C40.287 27.7015 42.0002 29.0892 42.0002 30.75C42.0002 35.0637 30.6567 36.3255 27.1795 36.6107C27.155 36.6125 27.1305 36.6125 27.1077 36.6125Z" fill="#377DFF"/>
</g>
<defs>
<clipPath id="clip0">
<rect width="42" height="42" fill="white"/>
</clipPath>
</defs>
</svg>
