<svg width="42" height="42" viewBox="0 0 42 42" fill="none" xmlns="http://www.w3.org/2000/svg">
<path d="M41.3 39.9H35.7V35C35.7 33.8402 34.7598 32.9 33.6 32.9H27.3V31.5C27.3 30.3402 26.3598 29.4 25.2 29.4H18.9V25.9C18.9 24.7402 17.9598 23.8 16.8 23.8H10.5V20.3C10.5 19.1402 9.5598 18.2 8.4 18.2H2.1V0.7C2.1 0.313401 1.7866 0 1.4 0C1.0134 0 0.7 0.313401 0.7 0.7V2.1C0.313401 2.1 0 2.4134 0 2.8C0 3.1866 0.313401 3.5 0.7 3.5V6.3C0.313401 6.3 0 6.6134 0 7C0 7.3866 0.313401 7.7 0.7 7.7V10.5C0.313401 10.5 0 10.8134 0 11.2C0 11.5866 0.313401 11.9 0.7 11.9V14.7C0.313401 14.7 0 15.0134 0 15.4C0 15.7866 0.313401 16.1 0.7 16.1V18.9C0.313401 18.9 0 19.2134 0 19.6C0 19.9866 0.313401 20.3 0.7 20.3V23.1C0.313401 23.1 0 23.4134 0 23.8C0 24.1866 0.313401 24.5 0.7 24.5V27.3C0.313401 27.3 0 27.6134 0 28C0 28.3866 0.313401 28.7 0.7 28.7V31.5C0.313401 31.5 0 31.8134 0 32.2C0 32.5866 0.313401 32.9 0.7 32.9V35.7C0.313401 35.7 0 36.0134 0 36.4C0 36.7866 0.313401 37.1 0.7 37.1V39.9C0.313401 39.9 0 40.2134 0 40.6C0 40.9866 0.313401 41.3 0.7 41.3C0.7 41.6866 1.0134 42 1.4 42C1.7866 42 2.1 41.6866 2.1 41.3H4.9C4.9 41.6866 5.2134 42 5.6 42C5.9866 42 6.3 41.6866 6.3 41.3H9.1C9.1 41.6866 9.4134 42 9.8 42C10.1866 42 10.5 41.6866 10.5 41.3H13.3C13.3 41.6866 13.6134 42 14 42C14.3866 42 14.7 41.6866 14.7 41.3H17.5C17.5 41.6866 17.8134 42 18.2 42C18.5866 42 18.9 41.6866 18.9 41.3H21.7C21.7 41.6866 22.0134 42 22.4 42C22.7866 42 23.1 41.6866 23.1 41.3H25.9C25.9 41.6866 26.2134 42 26.6 42C26.9866 42 27.3 41.6866 27.3 41.3H30.1C30.1 41.6866 30.4134 42 30.8 42C31.1866 42 31.5 41.6866 31.5 41.3H34.3C34.3 41.6866 34.6134 42 35 42C35.3866 42 35.7 41.6866 35.7 41.3H38.5C38.5 41.6866 38.8134 42 39.2 42C39.5866 42 39.9 41.6866 39.9 41.3H41.3C41.6866 41.3 42 40.9866 42 40.6C42 40.2134 41.6866 39.9 41.3 39.9ZM2.1 39.9V19.6H8.4C8.7866 19.6 9.1 19.9134 9.1 20.3V39.9H2.1ZM10.5 39.9V25.2H16.8C17.1866 25.2 17.5 25.5134 17.5 25.9V39.9H10.5ZM18.9 39.9V30.8H25.2C25.5866 30.8 25.9 31.1134 25.9 31.5V39.9H18.9ZM27.3 39.9V34.3H33.6C33.9866 34.3 34.3 34.6134 34.3 35V39.9H27.3Z" fill="#FF9902"/>
<path d="M7.00029 21.7C6.61369 21.7 6.30029 22.0134 6.30029 22.4V31.5C6.30029 31.8866 6.61369 32.2 7.00029 32.2C7.38689 32.2 7.70029 31.8866 7.70029 31.5V22.4C7.70029 22.0134 7.38689 21.7 7.00029 21.7Z" fill="#FF9902"/>
<path d="M15.3997 27.3C15.0131 27.3 14.6997 27.6134 14.6997 28V37.1C14.6997 37.4866 15.0131 37.8 15.3997 37.8C15.7863 37.8 16.0997 37.4866 16.0997 37.1V28C16.0997 27.6134 15.7863 27.3 15.3997 27.3Z" fill="#FF9902"/>
<path d="M23.8001 32.9C23.4135 32.9 23.1001 33.2134 23.1001 33.6V37.1C23.1001 37.4866 23.4135 37.8 23.8001 37.8C24.1867 37.8 24.5001 37.4866 24.5001 37.1V33.6C24.5001 33.2134 24.1867 32.9 23.8001 32.9Z" fill="#FF9902"/>
<path d="M32.2 36.4C31.8134 36.4 31.5 36.7134 31.5 37.1V37.8C31.5 38.1866 31.8134 38.5 32.2 38.5C32.5866 38.5 32.9 38.1866 32.9 37.8V37.1C32.9 36.7134 32.5866 36.4 32.2 36.4Z" fill="#FF9902"/>
<path d="M37.6043 32.4373L37.0184 32.5269C36.7673 32.5601 36.5537 32.7264 36.4599 32.9616C36.3661 33.1969 36.4067 33.4645 36.5661 33.6614C36.7255 33.8582 36.9787 33.9536 37.2284 33.9108L39.3039 33.5916C39.6858 33.5327 39.9477 33.1755 39.8891 32.7936L39.5706 30.7181C39.5374 30.467 39.3711 30.2534 39.1359 30.1596C38.9006 30.0658 38.633 30.1064 38.4361 30.2658C38.2393 30.4252 38.1439 30.6785 38.1867 30.9281L38.2231 31.1633L5.99438 9.22112C5.67467 9.00347 5.23904 9.0862 5.02138 9.40592C4.80373 9.72564 4.88647 10.1613 5.20618 10.3789L37.6043 32.4373Z" fill="#FF9902"/>
<path d="M32.1997 2.80002C28.3337 2.80002 25.1997 5.93402 25.1997 9.80002C25.1997 13.666 28.3337 16.8 32.1997 16.8C36.0657 16.8 39.1997 13.666 39.1997 9.80002C39.1954 5.93578 36.0639 2.80426 32.1997 2.80002ZM32.1997 15.4C29.1069 15.4 26.5997 12.8928 26.5997 9.80002C26.5997 6.70722 29.1069 4.20002 32.1997 4.20002C35.2925 4.20002 37.7997 6.70722 37.7997 9.80002C37.7962 12.8914 35.2911 15.3965 32.1997 15.4Z" fill="#FF9902"/>
<path d="M32.1999 0C26.7875 0 22.3999 4.38761 22.3999 9.8C22.3999 15.2124 26.7875 19.6 32.1999 19.6C37.6123 19.6 41.9999 15.2124 41.9999 9.8C41.9941 4.39001 37.6099 0.00578712 32.1999 0ZM32.1999 18.2C27.5607 18.2 23.7999 14.4392 23.7999 9.8C23.7999 5.16081 27.5607 1.4 32.1999 1.4C36.8391 1.4 40.5999 5.16081 40.5999 9.8C40.5949 14.4371 36.837 18.195 32.1999 18.2Z" fill="#FF9902"/>
<path d="M32.1996 7.70001H33.5996C33.9862 7.70001 34.2996 7.38661 34.2996 7.00001C34.2996 6.61341 33.9862 6.30001 33.5996 6.30001H32.8996C32.8996 5.91341 32.5862 5.60001 32.1996 5.60001C31.813 5.60001 31.4996 5.91341 31.4996 6.30001V6.42881C30.536 6.7682 29.9577 7.7531 30.1308 8.75993C30.304 9.76676 31.178 10.5019 32.1996 10.5C32.5862 10.5 32.8996 10.8134 32.8996 11.2C32.8996 11.5866 32.5862 11.9 32.1996 11.9H30.7996C30.413 11.9 30.0996 12.2134 30.0996 12.6C30.0996 12.9866 30.413 13.3 30.7996 13.3H31.4996C31.4996 13.6866 31.813 14 32.1996 14C32.5862 14 32.8996 13.6866 32.8996 13.3V13.1712C33.8632 12.8318 34.4415 11.8469 34.2684 10.8401C34.0953 9.83325 33.2212 9.09807 32.1996 9.10001C31.813 9.10001 31.4996 8.78661 31.4996 8.40001C31.4996 8.01341 31.813 7.70001 32.1996 7.70001V7.70001Z" fill="#FF9902"/>
</svg>
