<svg width="42" height="42" viewBox="0 0 42 42" fill="none" xmlns="http://www.w3.org/2000/svg">
<path d="M9.40441 29.6263C8.6266 29.6263 7.99023 30.2626 7.99023 31.0405C7.99023 31.8183 8.6266 32.4546 9.40441 32.4546C10.1822 32.4546 10.8186 31.8183 10.8186 31.0405C10.8186 30.2626 10.1822 29.6263 9.40441 29.6263Z" fill="#377DFF"/>
<path d="M33.5148 29.6263C32.737 29.6263 32.1006 30.2626 32.1006 31.0405C32.1006 31.8183 32.737 32.4546 33.5148 32.4546C34.2926 32.4546 34.9289 31.8183 34.9289 31.0405C34.9289 30.2626 34.2926 29.6263 33.5148 29.6263Z" fill="#377DFF"/>
<path d="M31.3937 24.6768H29.9795C29.5553 24.6768 29.2725 24.9596 29.2725 25.3839C29.2725 25.8081 29.5553 26.0909 29.9795 26.0909H31.3937C31.8179 26.0909 32.1007 25.8081 32.1007 25.3839C32.1007 24.9596 31.8179 24.6768 31.3937 24.6768Z" fill="#377DFF"/>
<path d="M41.0808 23.192L38.3233 22.0607L36.5555 14.9899C36.3434 14 35.4949 13.3636 34.505 13.3636H30.7906C31.7186 10.5106 32.0723 8.03558 32.101 7.77781C32.101 7.56568 32.0303 7.42424 31.9595 7.21212C31.8181 7.07068 31.606 7 31.3939 7H5.86871C5.51515 7 5.23235 7.21212 5.23235 7.56568L4.82509 9.82834H2.26265C1.83841 9.82834 1.55561 10.1111 1.55561 10.5354C1.55561 10.9596 1.83841 11.2424 2.26265 11.2424H4.57055L4.316 12.6566H1.76765C1.34341 12.6566 1.06061 12.9394 1.06061 13.3636C1.06061 13.7879 1.34341 14.0707 1.76765 14.0707H4.06138L3.80683 15.4848H1.27273C0.848485 15.4848 0.565684 15.7676 0.565684 16.1919C0.565684 16.6161 0.848485 16.8989 1.27273 16.8989H3.55228L3.29774 18.3131H0.707043C0.282801 18.3131 0 18.5959 0 19.0201C0 19.4444 0.282801 19.7272 0.707043 19.7272H3.04319L2.68681 21.707C2.67115 21.754 2.66345 21.801 2.66088 21.8473L0.989927 30.899C0.919247 31.1111 0.919247 31.2526 1.06061 31.4647C1.20205 31.6768 1.41417 31.7475 1.62629 31.7475H5.22216C5.56147 33.7472 7.31164 35.2829 9.4041 35.2829C11.4966 35.2829 13.2467 33.7472 13.586 31.7475H29.3332C29.6725 33.7472 31.4227 35.2829 33.5152 35.2829C35.6076 35.2829 37.3578 33.7472 37.6971 31.7475H40.5858C41.3636 31.7475 42 31.1111 42 30.3333V24.5354C42 23.899 41.6464 23.4041 41.0808 23.192ZM12.303 18.3132H4.74522L4.99661 16.899H12.8686C13.2222 16.899 13.5757 16.6162 13.5757 16.192C13.5757 15.7677 13.2929 15.4849 12.8686 15.4849H5.24801L5.49941 14.0708H13.3636C13.7879 14.0708 14.0707 13.788 14.0707 13.3637C14.0707 12.9395 13.7879 12.6567 13.3636 12.6567H5.7508L6.0022 11.2425H13.8586C14.2828 11.2425 14.5656 10.9597 14.5656 10.5355C14.5656 10.1112 14.2828 9.82842 13.8586 9.82842H6.25368L6.50508 8.41425H30.5455C30.3378 9.63063 29.8311 12.0668 28.8954 14.4851C27.7373 17.4401 25.8077 20.6618 22.8717 21.0926C22.8526 21.0954 22.8334 21.098 22.8141 21.1006C22.7733 21.1061 22.7324 21.1114 22.6913 21.1158C22.6265 21.1225 22.5612 21.1279 22.4954 21.1318C22.4734 21.1332 22.4513 21.1342 22.4292 21.1353C22.3539 21.1389 22.2784 21.1415 22.202 21.1415H4.24242L4.49382 19.7274H12.3737C12.7273 19.7274 13.0101 19.4446 13.0101 19.0203C13.0101 18.5961 12.7273 18.3132 12.303 18.3132ZM9.40401 33.8687C7.84848 33.8687 6.57576 32.596 6.57576 31.0405C6.57576 29.4849 7.84848 28.2122 9.40401 28.2122C10.9595 28.2122 12.2323 29.4849 12.2323 31.0405C12.2323 32.596 10.9596 33.8687 9.40401 33.8687ZM33.5152 33.8687C31.9596 33.8687 30.6869 32.596 30.6869 31.0405C30.6869 29.4849 31.9596 28.2122 33.5152 28.2122C35.0707 28.2122 36.3434 29.4849 36.3434 31.0405C36.3434 32.596 35.0707 33.8687 33.5152 33.8687ZM40.5858 30.3333H37.6971C37.3578 28.3336 35.6076 26.798 33.5152 26.798C33.504 26.798 33.4929 26.7987 33.4818 26.7988C33.4692 26.7987 33.457 26.798 33.4445 26.798C31.3233 26.798 29.6263 28.3535 29.2727 30.3333H13.5859C13.3472 28.9263 12.4099 27.7499 11.1461 27.1758C11.1181 27.163 11.0903 27.1499 11.062 27.1376C11.0441 27.13 11.0261 27.123 11.0081 27.1156C10.9624 27.0967 10.9164 27.0782 10.8698 27.0609C10.8571 27.0561 10.8443 27.0518 10.8315 27.0472C10.7797 27.0285 10.7276 27.0107 10.6749 26.9939C10.6635 26.9903 10.652 26.9869 10.6405 26.9834C10.5868 26.9669 10.5326 26.9513 10.478 26.937C10.4659 26.9338 10.4538 26.9307 10.4416 26.9276C10.3879 26.914 10.3338 26.9014 10.2793 26.8899C10.2655 26.887 10.2518 26.884 10.238 26.8813C10.1854 26.8707 10.1323 26.8613 10.0788 26.8527C10.063 26.8502 10.0472 26.8474 10.0313 26.845C9.97981 26.8373 9.92785 26.8309 9.87573 26.8251C9.85808 26.8231 9.84052 26.8208 9.82279 26.819C9.77067 26.8139 9.71813 26.8101 9.66544 26.8069C9.64803 26.8058 9.63088 26.8042 9.6134 26.8033C9.54405 26.7999 9.47419 26.798 9.40385 26.798C9.3335 26.798 9.26365 26.7999 9.19429 26.8033C9.17689 26.8042 9.15966 26.8058 9.14226 26.8069C9.08956 26.8101 9.03703 26.8139 8.98491 26.819C8.96717 26.8207 8.94961 26.8231 8.93196 26.8251C8.87984 26.8309 8.82789 26.8374 8.77643 26.845C8.76052 26.8474 8.74478 26.8502 8.72887 26.8527C8.67543 26.8613 8.6224 26.8708 8.5697 26.8813C8.55586 26.8841 8.54219 26.887 8.52843 26.8899C8.47391 26.9014 8.4198 26.914 8.36611 26.9276C8.35401 26.9307 8.34183 26.9338 8.32973 26.937C8.27505 26.9514 8.22086 26.9669 8.16716 26.9835C8.15573 26.987 8.14429 26.9904 8.13286 26.994C8.08008 27.0107 8.02788 27.0286 7.97609 27.0474C7.96341 27.0519 7.95057 27.0562 7.93797 27.0609C7.89132 27.0784 7.84525 27.0968 7.79943 27.1158C7.78162 27.1232 7.76355 27.1301 7.74582 27.1377C7.7174 27.1499 7.68948 27.1631 7.66139 27.176C6.39777 27.7503 5.46055 28.9265 5.22191 30.3334H2.47478L3.95962 22.5556H22.202C22.3021 22.5556 22.4008 22.5527 22.4989 22.5481C22.5056 22.5477 22.5123 22.5476 22.519 22.5472C26.4454 22.3499 28.8654 18.5002 30.2912 14.7779H34.5051C34.8586 14.7779 35.1414 15.0607 35.2121 15.3436L36.8229 21.8487H33.7273C33.2323 21.8487 32.8081 21.4244 32.8081 20.9295V17.6062C32.8081 17.182 32.5253 16.8992 32.1011 16.8992C31.6768 16.8992 31.394 17.182 31.394 17.6062V20.9295C31.394 22.2022 32.4546 23.2628 33.7274 23.2628H37.4749L40.586 24.4649V30.3333H40.5858Z" fill="#377DFF"/>
</svg>
