<svg width="43" height="43" viewBox="0 0 43 43" fill="none" xmlns="http://www.w3.org/2000/svg">
<g clip-path="url(#clip0)">
<path d="M12.9002 43.0001H30.1002C33.6624 43.0001 36.5502 40.1123 36.5502 36.5501C36.5502 32.9879 33.6624 30.1001 30.1002 30.1001H12.9002C9.338 30.1001 6.4502 32.9879 6.4502 36.5501C6.4502 40.1123 9.338 43.0001 12.9002 43.0001V43.0001ZM12.9002 31.5335H30.1002C32.8708 31.5335 35.1168 33.7795 35.1168 36.5501C35.1168 39.3207 32.8708 41.5667 30.1002 41.5667H12.9002C10.1296 41.5667 7.88356 39.3207 7.88356 36.5501C7.88356 33.7795 10.1296 31.5335 12.9002 31.5335V31.5335Z" fill="#FF9902"/>
<path d="M39.4166 15.05H3.58336C1.60528 15.0524 0.00235156 16.6553 0 18.6334V24.3668C0.00235156 26.3448 1.60528 27.9477 3.58336 27.9501H39.4167C41.3947 27.9478 42.9976 26.3448 43.0001 24.3668V18.6334C42.9976 16.6553 41.3947 15.0524 39.4166 15.05V15.05ZM41.5666 24.3667C41.5666 25.554 40.604 26.5167 39.4166 26.5167H3.58336C2.39599 26.5167 1.43336 25.554 1.43336 24.3667V18.6333C1.43336 17.4459 2.39599 16.4833 3.58336 16.4833H39.4167C40.6041 16.4833 41.5667 17.446 41.5667 18.6333V24.3667H41.5666Z" fill="#FF9902"/>
<path d="M39.4166 0H3.58336C1.60528 0.00235156 0.00235156 1.60528 0 3.58336V9.31672C0.00235156 11.2947 1.60528 12.8976 3.58336 12.9001H39.4167C41.3947 12.8977 42.9976 11.2948 43.0001 9.31672V3.58336C42.9976 1.60528 41.3947 0.00235156 39.4166 0V0ZM41.5666 9.31664C41.5666 10.504 40.604 11.4666 39.4166 11.4666H3.58336C2.39599 11.4666 1.43336 10.504 1.43336 9.31664V3.58336C1.43336 2.39599 2.39599 1.43336 3.58336 1.43336H39.4167C40.6041 1.43336 41.5667 2.39599 41.5667 3.58336V9.31664H41.5666Z" fill="#FF9902"/>
<path d="M10.7505 17.9166H5.01719C3.82982 17.9166 2.86719 18.8793 2.86719 20.0666V22.9333C2.86719 24.1206 3.82982 25.0833 5.01719 25.0833H10.7505C11.938 25.0833 12.9006 24.1206 12.9006 22.9333V20.0666C12.9006 18.8793 11.938 17.9166 10.7505 17.9166V17.9166ZM10.0339 19.35L8.32323 20.64C8.06288 20.8336 7.70687 20.8353 7.44459 20.6443L5.73391 19.35H10.0339ZM10.7505 23.65H5.01719C4.62137 23.65 4.30055 23.3292 4.30055 22.9333V20.0667L6.59391 21.7867C7.36329 22.3578 8.41646 22.3561 9.1839 21.7824L11.4672 20.0667V22.9333C11.4672 23.3292 11.1464 23.65 10.7505 23.65V23.65Z" fill="#FF9902"/>
<path d="M9.58964 6.31019C9.87569 5.93948 10.0316 5.48487 10.0332 5.01658C10.0332 3.82921 9.07062 2.86658 7.88324 2.86658C6.69587 2.86658 5.73324 3.82921 5.73324 5.01658C5.73568 5.48361 5.89155 5.93688 6.17685 6.30658C5.44828 6.84374 5.01769 7.69467 5.0166 8.59994C5.0166 9.39157 5.65833 10.0333 6.44996 10.0333H9.31661C10.1082 10.0333 10.75 9.39157 10.75 8.59994C10.7476 7.69601 10.3172 6.8466 9.58964 6.31019V6.31019ZM7.16652 5.01658C7.16652 4.62076 7.48742 4.29994 7.88316 4.29994C8.27898 4.29994 8.5998 4.62084 8.5998 5.01658C8.5998 5.41231 8.27889 5.73322 7.88316 5.73322C7.48742 5.7333 7.16652 5.4124 7.16652 5.01658V5.01658ZM6.44988 8.59994C6.44988 7.8083 7.09161 7.16658 7.88324 7.16658C8.67488 7.16658 9.31661 7.8083 9.31661 8.59994H6.44988Z" fill="#FF9902"/>
<path fill-rule="evenodd" clip-rule="evenodd" d="M15.7664 20.7835H19.3498C19.7456 20.7835 20.0664 20.4626 20.0664 20.0669C20.0664 19.671 19.7455 19.3502 19.3498 19.3502H15.7664C15.3706 19.3502 15.0498 19.6711 15.0498 20.0669C15.0498 20.4626 15.3707 20.7835 15.7664 20.7835Z" fill="#FF9902"/>
<path fill-rule="evenodd" clip-rule="evenodd" d="M37.9832 22.2167H15.7664C15.3706 22.2167 15.0498 22.5375 15.0498 22.9333C15.0498 23.3291 15.3707 23.65 15.7664 23.65H37.9831C38.3789 23.65 38.6997 23.3291 38.6997 22.9333C38.6997 22.5375 38.379 22.2167 37.9832 22.2167V22.2167Z" fill="#FF9902"/>
<path fill-rule="evenodd" clip-rule="evenodd" d="M15.7664 5.73341H19.3498C19.7456 5.73341 20.0664 5.4125 20.0664 5.01677C20.0664 4.62104 19.7456 4.30005 19.3498 4.30005H15.7664C15.3706 4.30005 15.0498 4.62095 15.0498 5.01669C15.0498 5.41242 15.3707 5.73341 15.7664 5.73341Z" fill="#FF9902"/>
<path fill-rule="evenodd" clip-rule="evenodd" d="M37.9832 7.16663H15.7664C15.3706 7.16663 15.0498 7.48753 15.0498 7.88326C15.0498 8.27908 15.3707 8.5999 15.7664 8.5999H37.9831C38.3789 8.5999 38.6997 8.279 38.6997 7.88326C38.6998 7.48753 38.379 7.16663 37.9832 7.16663V7.16663Z" fill="#FF9902"/>
<path fill-rule="evenodd" clip-rule="evenodd" d="M18.8426 39.2066C19.0947 39.4588 19.4939 39.4872 19.7792 39.2733L25.5126 34.9733C25.8292 34.7358 25.8934 34.2866 25.656 33.9699C25.4184 33.6533 24.9693 33.5891 24.6526 33.8266L19.4166 37.7539L18.4226 36.7599C18.1414 36.4883 17.6943 36.4921 17.4179 36.7686C17.1415 37.0451 17.1376 37.4921 17.4092 37.7732L18.8426 39.2066Z" fill="#FF9902"/>
</g>
<defs>
<clipPath id="clip0">
<rect width="43" height="43" fill="white"/>
</clipPath>
</defs>
</svg>
