<svg width="151" height="35" viewBox="0 0 151 35" fill="none" xmlns="http://www.w3.org/2000/svg">
<path d="M51.5607 26.8189H51.4447C50.5062 26.8189 49.7454 26.0581 49.7454 25.1195V9.32836H44.6566C43.7417 9.32836 43 8.58667 43 7.67175C43 6.75683 43.7417 6.01514 44.6566 6.01514H58.3854C59.3003 6.01514 60.042 6.75683 60.042 7.67175C60.042 8.58667 59.3003 9.32836 58.3854 9.32836H53.2631V25.1043C53.2671 25.5581 53.0895 25.9948 52.7697 26.3168C52.4499 26.6389 52.0146 26.8197 51.5607 26.8189Z" fill="#EB2020"/>
<path d="M61.772 25.1044V7.69932C61.772 7.24863 61.951 6.8164 62.2697 6.49772C62.5884 6.17904 63.0206 6 63.4713 6C63.922 6 64.3542 6.17904 64.6729 6.49772C64.9916 6.8164 65.1706 7.24863 65.1706 7.69932V13.9047C66.1408 12.6417 67.7516 12.1139 69.2465 12.1139C72.7672 12.1139 74.4665 14.6369 74.4665 17.7732V25.0953C74.4665 26.0338 73.7057 26.7946 72.7672 26.7946C72.316 26.7954 71.883 26.6167 71.5637 26.2979C71.2443 25.9792 71.0649 25.5465 71.0649 25.0953V18.359C71.0649 16.6017 70.2747 15.1922 68.133 15.1922C66.2567 15.1922 65.2316 16.6017 65.1706 18.42V25.1044C65.1706 26.0429 64.4098 26.8037 63.4713 26.8037C63.0206 26.8037 62.5884 26.6247 62.2697 26.306C61.951 25.9873 61.772 25.5551 61.772 25.1044Z" fill="#EB2020"/>
<path fill-rule="evenodd" clip-rule="evenodd" d="M76.2021 19.5915C76.2021 24.4302 79.6313 27.243 83.5028 27.243C86.096 27.243 88.0181 26.0868 89.1255 24.4515C89.3828 24.0634 89.4423 23.5769 89.2863 23.1382C89.1303 22.6995 88.7769 22.3598 88.3323 22.2213L88.2469 22.1939C87.6248 22.0052 86.9533 22.2549 86.6055 22.8041C86.0137 23.701 85.0221 24.3112 83.4967 24.3112C81.3941 24.3539 79.6513 22.6914 79.5947 20.5891H87.8015C88.4282 20.5921 89.0274 20.3319 89.4532 19.8719C89.8789 19.412 90.0921 18.7945 90.0408 18.1698V18.1088C89.5557 14.399 87.0754 12.0864 83.1489 12.0864C79.5581 12.0864 76.2021 15.0763 76.2021 19.5915ZM79.6893 18.0874C79.8281 16.273 81.3601 14.883 83.1794 14.9207C85.5255 14.9207 86.6391 16.4247 86.7062 18.0874H79.6893Z" fill="#EB2020"/>
<path fill-rule="evenodd" clip-rule="evenodd" d="M102.522 25.5988C102.522 28.491 101.173 29.87 98.4765 29.87C97.1401 29.9052 95.9013 29.1727 95.2884 27.9846C94.9534 27.3069 94.1909 26.9549 93.4579 27.1395L93.3664 27.1639C92.895 27.2876 92.5067 27.6211 92.3132 28.0683C92.1197 28.5155 92.1424 29.0268 92.3748 29.4551C93.4213 31.4168 95.6575 32.811 98.5711 32.811C103.928 32.811 105.893 29.2629 105.893 25.4493V14.1612C105.893 13.2547 105.158 12.5198 104.252 12.5198C103.345 12.5198 102.61 13.2547 102.61 14.1612V14.3381C101.994 13.1696 100.615 12.2544 98.388 12.2544C94.4586 12.2544 91.7891 15.3937 91.7891 19.2042C91.7891 23.2222 94.5745 26.1541 98.388 26.1541C100.469 26.1541 101.912 25.1869 102.522 24.0734V25.5988ZM102.61 19.2181C102.61 19.2206 102.61 19.2231 102.61 19.2256V19.2103C102.61 19.2129 102.61 19.2155 102.61 19.2181ZM98.9494 15.2076C101.052 15.2076 102.607 16.7817 102.61 19.2181C102.607 21.6757 101.113 23.2558 98.9494 23.271C96.7223 23.271 95.2274 21.7181 95.2274 19.2256C95.2274 16.791 96.7803 15.2076 98.9494 15.2076Z" fill="#EB2020"/>
<path fill-rule="evenodd" clip-rule="evenodd" d="M111.522 8.22712C111.522 7.63592 111.287 7.06898 110.869 6.65123C110.45 6.23348 109.883 5.99919 109.292 6C108.072 6.00842 107.089 7.0013 107.092 8.22097C107.096 9.44065 108.084 10.4281 109.304 10.4298C110.524 10.4315 111.515 9.44678 111.522 8.22712ZM110.979 14.2129C110.979 13.2811 110.224 12.5258 109.292 12.5258H109.307C108.857 12.5217 108.424 12.6976 108.104 13.0145C107.785 13.3313 107.605 13.7628 107.605 14.2129V25.1197C107.606 26.0502 108.361 26.8037 109.292 26.8037C110.222 26.8037 110.977 26.0502 110.979 25.1197V14.2129Z" fill="#EB2020"/>
<path fill-rule="evenodd" clip-rule="evenodd" d="M120.116 27.243C124.397 27.243 127.536 24.0488 127.536 19.6495C127.536 15.2807 124.366 12.0864 120.116 12.0864C115.866 12.0864 112.727 15.2502 112.727 19.6495C112.727 24.0488 115.836 27.243 120.116 27.243ZM120.116 15.1647C122.227 15.1647 124.104 16.6902 124.104 19.6495C124.104 22.6424 122.197 24.1952 120.116 24.1952C118.036 24.1952 116.129 22.6088 116.129 19.6495C116.129 16.6902 118.005 15.1647 120.116 15.1647Z" fill="#EB2020"/>
<path fill-rule="evenodd" clip-rule="evenodd" d="M130.946 10.4298C132.166 10.432 133.158 9.44718 133.165 8.22712C133.165 6.99712 132.168 6 130.938 6C129.717 6.00674 128.733 6.99888 128.735 8.21896C128.737 9.43904 129.726 10.4275 130.946 10.4298ZM132.129 13.0201C131.814 12.7036 131.385 12.5258 130.938 12.5258H130.953C130.503 12.5217 130.07 12.6976 129.75 13.0145C129.43 13.3313 129.25 13.7628 129.25 14.2129V25.1197C129.252 26.0502 130.007 26.8037 130.938 26.8037C131.868 26.8037 132.622 26.0497 132.622 25.1197V14.2129C132.622 13.7657 132.445 13.3366 132.129 13.0201Z" fill="#EB2020"/>
<path d="M139.855 24.5461C141.262 24.5461 141.991 23.7834 141.991 22.9047C141.991 22.142 141.463 21.5563 140.319 21.3213L138.208 20.8515C135.685 20.2963 134.367 18.6549 134.367 16.6902C134.367 14.1976 136.655 12.0864 139.614 12.0864C142.18 12.0864 143.629 13.1542 144.398 14.2891C144.655 14.6837 144.71 15.1772 144.544 15.6182C144.378 16.0592 144.012 16.395 143.559 16.5224C142.929 16.7081 142.252 16.4526 141.902 15.8969C141.53 15.2868 140.841 14.7529 139.62 14.7529C138.4 14.7529 137.57 15.5156 137.57 16.3942C137.57 17.1569 138.125 17.7152 139.004 17.8922L141.176 18.3315C143.873 18.9173 145.28 20.5586 145.28 22.6698C145.28 24.839 143.522 27.2461 139.886 27.2461C137.079 27.2461 135.447 26.0044 134.635 24.7017C134.396 24.3045 134.357 23.8181 134.531 23.3882C134.704 22.9582 135.069 22.6346 135.517 22.5142L135.627 22.4837C136.282 22.3142 136.968 22.614 137.289 23.2098C137.729 23.9878 138.583 24.5461 139.855 24.5461Z" fill="#EB2020"/>
<path fill-rule="evenodd" clip-rule="evenodd" d="M148.681 10.4298C149.901 10.432 150.893 9.44718 150.9 8.22712C150.9 6.99712 149.902 6 148.672 6C147.452 6.00674 146.467 6.99888 146.47 8.21896C146.472 9.43904 147.46 10.4275 148.681 10.4298ZM149.866 13.019C149.552 12.7044 149.125 12.5271 148.681 12.5258C148.682 12.5258 148.683 12.5258 148.685 12.5258H148.679C148.679 12.5258 148.68 12.5258 148.681 12.5258C148.235 12.5268 147.808 12.7046 147.493 13.0201C147.177 13.3366 147 13.7657 147.001 14.2129V25.1349C147.001 26.065 147.755 26.819 148.685 26.819C149.132 26.8166 149.561 26.636 149.875 26.3171C150.189 25.9982 150.364 25.5674 150.36 25.1197V14.2129C150.36 13.7652 150.183 13.3356 149.866 13.019Z" fill="#EB2020"/>
<rect width="34.6881" height="34.6881" rx="9.20136" fill="#EB2020"/>
<path d="M27.1005 21.2865C26.6164 21.4222 26.2061 21.7446 25.9598 22.1829C24.2087 25.2942 20.916 27.2194 17.3458 27.2194C13.7756 27.2194 10.4828 25.2942 8.73169 22.1829C8.39925 21.5927 7.77719 21.2247 7.09983 21.2175C6.42247 21.2103 5.79272 21.565 5.4478 22.148C5.10288 22.731 5.09519 23.4537 5.42762 24.0439C7.84944 28.3498 12.4055 31.0146 17.3458 31.0146C22.286 31.0146 26.8421 28.3498 29.2639 24.0439C29.7759 23.1305 29.4525 21.975 28.5408 21.4599C28.1027 21.2133 27.5846 21.1509 27.1005 21.2865Z" fill="white"/>
<path d="M17.5241 21.5541C18.2925 21.5846 19.0414 21.3075 19.6049 20.7841C20.1684 20.2607 20.4999 19.5342 20.5261 18.7656C20.5261 17.6978 19.7848 16.9565 18.1831 16.63L15.2237 15.9711C11.6878 15.19 9.83594 12.8897 9.83594 10.1348C9.83594 6.64157 13.0424 3.6792 17.1946 3.6792C20.7915 3.6792 22.8234 5.17717 23.9064 6.76971C24.2683 7.32308 24.3443 8.01596 24.111 8.63462C23.8776 9.25327 23.363 9.72336 22.7258 9.89988C21.8416 10.1592 20.8926 9.80056 20.401 9.02123C19.8824 8.1731 18.9153 7.41954 17.2037 7.41954C15.4922 7.41954 14.3268 8.48733 14.3268 9.71988C14.3268 10.7877 15.1078 11.5687 16.3403 11.8158L19.3912 12.426C23.1712 13.2497 25.1451 15.4768 25.1451 18.43C25.1451 21.4809 22.677 25.3311 17.582 25.3311C14.5791 25.3921 11.7722 23.845 10.2203 21.2734C9.88576 20.7187 9.82995 20.0394 10.0695 19.4375C10.3091 18.8356 10.8164 18.3804 11.4407 18.2073L11.5932 18.1646C12.5124 17.9241 13.4765 18.3456 13.9241 19.1836C14.5403 20.2819 15.7393 21.5541 17.5241 21.5541Z" fill="white"/>
</svg>
