<svg width="42" height="42" viewBox="0 0 42 42" fill="none" xmlns="http://www.w3.org/2000/svg">
<path d="M13.9998 22.4C12.9022 22.4031 11.9929 23.2526 11.9152 24.3474C11.8438 24.5805 11.1298 26.6 7.69981 26.6H4.8998C3.74001 26.6 2.7998 27.5402 2.7998 28.7V30.1C2.80348 30.9868 3.36376 31.7756 4.1998 32.0712V34.3C4.1998 35.4598 5.14001 36.4 6.2998 36.4C7.4596 36.4 8.39981 35.4598 8.39981 34.3V32.2329C11.2271 32.487 11.8508 34.2405 11.9152 34.4533C11.9976 35.5776 12.9548 36.4352 14.0814 36.3939C15.208 36.3527 16.0999 35.4273 16.0998 34.3V24.5C16.0998 23.3402 15.1596 22.4 13.9998 22.4V22.4ZM4.1998 28.7C4.1998 28.3134 4.51321 28 4.8998 28H6.9998V30.8H4.8998C4.51321 30.8 4.1998 30.4866 4.1998 30.1V28.7ZM6.9998 34.3C6.9998 34.6866 6.6864 35 6.2998 35C5.91321 35 5.5998 34.6866 5.5998 34.3V32.2H6.9998V34.3ZM8.39981 30.8301V27.9699C9.67219 27.9266 10.8979 27.48 11.8998 26.6945V32.1055C10.8979 31.3201 9.67219 30.8734 8.39981 30.8301V30.8301ZM14.6998 34.3C14.6998 34.6866 14.3864 35 13.9998 35C13.6132 35 13.2998 34.6866 13.2998 34.3V24.5C13.2998 24.1134 13.6132 23.8 13.9998 23.8C14.3864 23.8 14.6998 24.1134 14.6998 24.5V34.3Z" fill="#377DFF"/>
<path d="M12.6004 4.20002C13.3736 4.20002 14.0004 4.82682 14.0004 5.60002C14.0004 5.98662 14.3138 6.30002 14.7004 6.30002C15.087 6.30002 15.4004 5.98662 15.4004 5.60002C15.4004 4.82682 16.0272 4.20002 16.8004 4.20002C17.187 4.20002 17.5004 3.88662 17.5004 3.50002C17.5004 3.11342 17.187 2.80002 16.8004 2.80002C15.9963 2.7996 15.231 3.14575 14.7004 3.74992C14.1698 3.14575 13.4045 2.7996 12.6004 2.80002C12.2138 2.80002 11.9004 3.11342 11.9004 3.50002C11.9004 3.88662 12.2138 4.20002 12.6004 4.20002Z" fill="#377DFF"/>
<path d="M20.2996 4.20002C21.0728 4.20002 21.6996 4.82682 21.6996 5.60002C21.6996 5.98662 22.013 6.30002 22.3996 6.30002C22.7862 6.30002 23.0996 5.98662 23.0996 5.60002C23.0996 4.82682 23.7264 4.20002 24.4996 4.20002C24.8862 4.20002 25.1996 3.88662 25.1996 3.50002C25.1996 3.11342 24.8862 2.80002 24.4996 2.80002C23.6955 2.7996 22.9302 3.14575 22.3996 3.74992C21.869 3.14575 21.1037 2.7996 20.2996 2.80002C19.913 2.80002 19.5996 3.11342 19.5996 3.50002C19.5996 3.88662 19.913 4.20002 20.2996 4.20002Z" fill="#377DFF"/>
<path d="M18.2 27.2999H19.6C19.9866 27.2999 20.3 26.9865 20.3 26.5999C20.3 26.2133 19.9866 25.8999 19.6 25.8999H18.2C17.8134 25.8999 17.5 26.2133 17.5 26.5999C17.5 26.9865 17.8134 27.2999 18.2 27.2999Z" fill="#377DFF"/>
<path d="M33.6 22.512V2.8C33.6 1.2536 32.3464 0 30.8 0H2.8C1.2536 0 0 1.2536 0 2.8V36.4C0 37.9464 1.2536 39.2 2.8 39.2H25.3547C28.3887 42.172 32.9927 42.8495 36.7542 40.8773C40.5156 38.9051 42.577 34.7331 41.8581 30.5472C41.1392 26.3614 37.8039 23.1161 33.6 22.512ZM5.5685 19.6L12.929 9.4059C13.074 9.22338 13.2944 9.11701 13.5275 9.11701C13.7606 9.11701 13.981 9.22338 14.126 9.4059L17.6869 14.3374L13.8859 19.6H5.5685ZM22.9754 9.4052C23.1185 9.22213 23.338 9.11515 23.5704 9.11515C23.8028 9.11515 24.0223 9.22213 24.1654 9.4052L31.5308 19.6H15.61L22.9754 9.4052ZM32.2 2.8V18.1349L25.3022 8.5848C24.9008 8.02907 24.257 7.69989 23.5715 7.69989C22.8859 7.69989 22.2421 8.02907 21.8407 8.5848L18.5507 13.1411L15.2607 8.5834C14.858 8.02875 14.214 7.70051 13.5286 7.70051C12.8431 7.70051 12.1991 8.02875 11.7964 8.5834L3.8423 19.6H1.4V10.4643C6.25259 10.1118 10.1118 6.25259 10.4643 1.4H30.8C31.1713 1.4 31.5274 1.5475 31.79 1.81005C32.0525 2.0726 32.2 2.4287 32.2 2.8V2.8ZM2.8 1.4H9.0643C8.71836 5.48101 5.48101 8.71836 1.4 9.0643V2.8C1.4 2.0268 2.0268 1.4 2.8 1.4ZM1.4 36.4V21H32.2V22.4C30.961 22.4012 29.7337 22.6388 28.5838 23.1H18.2C17.8134 23.1 17.5 23.4134 17.5 23.8C17.5 24.1866 17.8134 24.5 18.2 24.5H26.1576C25.6266 24.9157 25.1396 25.3848 24.7044 25.9H22.4C22.0134 25.9 21.7 26.2134 21.7 26.6C21.7 26.9866 22.0134 27.3 22.4 27.3H23.7258C23.4661 27.7481 23.2425 28.2163 23.0573 28.7H18.2C17.8134 28.7 17.5 29.0134 17.5 29.4C17.5 29.7866 17.8134 30.1 18.2 30.1H22.6324C22.5329 30.5613 22.4671 31.0292 22.4357 31.5H18.2C17.8134 31.5 17.5 31.8134 17.5 32.2C17.5 32.5866 17.8134 32.9 18.2 32.9H22.4357C22.4671 33.3708 22.5329 33.8387 22.6324 34.3H18.2C17.8134 34.3 17.5 34.6134 17.5 35C17.5 35.3866 17.8134 35.7 18.2 35.7H23.0573C23.3414 36.4425 23.7146 37.1476 24.1689 37.8H2.8C2.0268 37.8 1.4 37.1732 1.4 36.4ZM32.2 40.6C28.5436 40.5952 25.3089 38.2291 24.1969 34.7459C24.1927 34.7361 24.1906 34.727 24.1864 34.7179C23.6714 33.0788 23.6714 31.3212 24.1864 29.6821C24.1906 29.673 24.1934 29.6639 24.1969 29.6548C25.5017 25.5509 29.6986 23.0985 33.9145 23.9764C38.1304 24.8543 40.9995 28.7782 40.5577 33.0618C40.1159 37.3454 36.5063 40.601 32.2 40.6Z" fill="#377DFF"/>
<path d="M35.2053 28.9052L30.1002 34.0103L29.1951 33.1052C28.9204 32.8399 28.4838 32.8437 28.2138 33.1137C27.9438 33.3837 27.94 33.8203 28.2053 34.095L29.6053 35.495C29.8786 35.7682 30.3217 35.7682 30.5951 35.495L36.1951 29.895C36.4604 29.6203 36.4566 29.1837 36.1866 28.9137C35.9166 28.6437 35.48 28.6399 35.2053 28.9052Z" fill="#377DFF"/>
</svg>
