<svg width="42" height="42" viewBox="0 0 42 42" fill="none" xmlns="http://www.w3.org/2000/svg">
<g clip-path="url(#clip0)">
<path d="M22.6035 7.79999C22.6035 8.18659 22.9169 8.49999 23.3035 8.49999C23.6901 8.49999 24.0035 8.18659 24.0035 7.79999C24.0014 6.13742 22.832 4.70489 21.2035 4.36999V4.29999C21.2035 3.91339 20.8901 3.59999 20.5035 3.59999C20.1169 3.59999 19.8035 3.91339 19.8035 4.29999V4.36999C18.1723 4.70123 17 6.13547 17 7.79999C17 9.46451 18.1723 10.8988 19.8035 11.23V15.3719C18.9672 15.0762 18.4069 14.287 18.4035 13.4C18.4035 13.0134 18.0901 12.7 17.7035 12.7C17.3169 12.7 17.0035 13.0134 17.0035 13.4C17.0056 15.0626 18.175 16.4951 19.8035 16.83V16.9C19.8035 17.2866 20.1169 17.6 20.5035 17.6C20.8901 17.6 21.2035 17.2866 21.2035 16.9V16.83C22.8347 16.4988 24.007 15.0645 24.007 13.4C24.007 11.7355 22.8347 10.3012 21.2035 9.96999V5.82879C22.0396 6.12437 22.5998 6.91324 22.6035 7.79999ZM18.4035 7.79999C18.4072 6.91324 18.9675 6.12437 19.8035 5.82879V9.77119C18.9675 9.47561 18.4072 8.68674 18.4035 7.79999V7.79999ZM22.6035 13.4C22.5998 14.2867 22.0396 15.0756 21.2035 15.3712V11.4288C22.0396 11.7244 22.5998 12.5132 22.6035 13.4V13.4Z" fill="#377DFF"/>
<path d="M20.8 0.800018C15.3876 0.800018 11 5.18763 11 10.6C11 16.0124 15.3876 20.4 20.8 20.4C26.2124 20.4 30.6 16.0124 30.6 10.6C30.5942 5.19003 26.21 0.805805 20.8 0.800018ZM20.8 19C16.1608 19 12.4 15.2392 12.4 10.6C12.4 5.96083 16.1608 2.20002 20.8 2.20002C25.4392 2.20002 29.2 5.96083 29.2 10.6C29.195 15.2371 25.4371 18.995 20.8 19Z" fill="#377DFF"/>
<path d="M2.1 42H5.6C6.19395 41.9981 6.75903 41.7436 7.154 41.3H24.71C25.7371 41.3004 26.7444 41.0177 27.6213 40.4831L40.74 32.4968C41.3702 32.1128 41.8093 31.4811 41.9496 30.7566C42.0892 30.0545 41.9304 29.3259 41.5114 28.7455C41.4989 28.725 41.4854 28.7051 41.4708 28.686C40.795 27.784 39.6168 27.4171 38.5483 27.776L25.5913 32.095C25.3769 32.1664 25.1523 32.2028 24.9263 32.2028H24.5245C24.8571 31.2918 24.7615 30.2795 24.2641 29.4469L24.2011 29.3419C23.44 28.08 22.0761 27.3061 20.6024 27.3H16.94C15.6487 27.2985 14.396 26.859 13.3868 26.0533C12.1292 25.05 10.5688 24.5025 8.96 24.5H7.5712C7.27562 23.664 6.48675 23.1037 5.6 23.1H2.1C0.940202 23.1 0 24.0402 0 25.2V39.9C0 41.0598 0.940202 42 2.1 42V42ZM12.5125 27.1467C13.7703 28.1502 15.331 28.6977 16.94 28.7H20.6017C21.5842 28.7027 22.494 29.2178 23.002 30.0587L23.065 30.163C23.447 30.8003 23.4055 31.6054 22.96 32.2H18.7075C17.3253 32.1987 15.9738 32.608 14.8246 33.376L14.3115 33.7176C13.9899 33.9322 13.903 34.3669 14.1176 34.6885C14.3322 35.0102 14.7669 35.097 15.0885 34.8824L15.6009 34.5408C16.5204 33.9264 17.6016 33.599 18.7075 33.6H24.9291C25.3055 33.6001 25.6794 33.5396 26.0365 33.4208L38.9942 29.1011C39.4686 28.9375 39.9947 29.0844 40.3158 29.47C40.3277 29.4903 40.3417 29.5099 40.3557 29.5295C40.562 29.8041 40.6427 30.1531 40.578 30.4904C40.5132 30.8277 40.3089 31.1219 40.0155 31.3005L26.894 39.2875C26.236 39.6881 25.4804 39.9 24.71 39.9H7.7V25.9H8.96C10.2511 25.9017 11.5035 26.3412 12.5125 27.1467V27.1467ZM1.4 25.2C1.4 24.8134 1.7134 24.5 2.1 24.5H5.6C5.9866 24.5 6.3 24.8134 6.3 25.2V39.9C6.3 40.2866 5.9866 40.6 5.6 40.6H2.1C1.7134 40.6 1.4 40.2866 1.4 39.9V25.2Z" fill="#377DFF"/>
</g>
<defs>
<clipPath id="clip0">
<rect width="42" height="42" fill="white"/>
</clipPath>
</defs>
</svg>
