<svg width="18" height="16" viewBox="0 0 18 16" fill="none" xmlns="http://www.w3.org/2000/svg">
<path fill-rule="evenodd" clip-rule="evenodd" d="M8.4103 0.2351C8.74095 -0.0783668 9.25905 -0.0783668 9.5897 0.2351L15.5879 5.91784L15.5904 5.92041L17.7324 7.94923C18.0761 8.27491 18.0906 8.81753 17.765 9.16121C17.4393 9.50488 16.8967 9.51946 16.553 9.19378L15.857 8.53379V14.1428C15.857 15.0896 15.0895 15.8571 14.1428 15.8571H3.85725C2.91049 15.8571 2.143 15.0896 2.143 14.1428V8.53379L1.44701 9.19378C1.10334 9.51946 0.560718 9.50488 0.235034 9.16121C-0.0906493 8.81753 -0.0760669 8.27491 0.267605 7.94923L2.40956 5.92041C2.41041 5.91955 2.41127 5.91869 2.41213 5.91784L8.4103 0.2351ZM3.85725 6.91039V14.1428H7.28575V10.7143C7.28575 9.76756 8.05325 9.00007 9 9.00007C9.94675 9.00007 10.7143 9.76756 10.7143 10.7143V14.1428H14.1428V6.91039L9 2.03849L3.85725 6.91039Z" fill="#FF9902"/>
</svg>
