<svg width="18" height="18" viewBox="0 0 18 18" fill="none" xmlns="http://www.w3.org/2000/svg">
<path fill-rule="evenodd" clip-rule="evenodd" d="M15.3 0C13.8088 0 12.6 1.20883 12.6 2.7H5.4C2.41766 2.7 0 5.11766 0 8.1V14.4C0 15.8912 1.20883 17.1 2.7 17.1H15.3C16.7912 17.1 18 15.8912 18 14.4V8.1C18 6.5898 17.379 5.2236 16.38 4.2435C17.3679 3.78718 18.0003 2.79816 18 1.71C18 0.765593 17.2344 0 16.29 0H15.3ZM12.6 4.5H9.4248C10.312 5.48903 10.8018 6.77136 10.8 8.1V15.3H15.3C15.7971 15.3 16.2 14.8971 16.2 14.4V8.1C16.2 6.768 15.4764 5.6043 14.4 4.9815V9C14.4 9.49706 13.9971 9.9 13.5 9.9C13.0029 9.9 12.6 9.49706 12.6 9V4.5ZM15.21 2.7H14.4C14.4 2.20294 14.8029 1.8 15.3 1.8H16.1955C16.149 2.30962 15.7217 2.69979 15.21 2.7ZM1.8 8.1C1.8 6.11177 3.41177 4.5 5.4 4.5C7.38823 4.5 9 6.11177 9 8.1V15.3H2.7C2.20294 15.3 1.8 14.8971 1.8 14.4V8.1ZM3.6 8.1C3.10294 8.1 2.7 8.50294 2.7 9C2.7 9.49706 3.10294 9.9 3.6 9.9H7.2C7.69706 9.9 8.1 9.49706 8.1 9C8.1 8.50294 7.69706 8.1 7.2 8.1H3.6Z" fill="#FF9902"/>
</svg>
