<svg width="80" height="80" viewBox="0 0 80 80" fill="none" xmlns="http://www.w3.org/2000/svg">
<g clip-path="url(#clip0)">
<path d="M53.5761 37.7926C55.4701 37.7926 57.0797 36.4305 57.4141 34.5611L63.1336 2.18486C63.3074 1.16941 62.6386 0.204026 61.6232 0.0302189C60.6087 -0.142643 59.6424 0.526135 59.4695 1.54064L53.749 33.9178C53.7367 33.9547 53.7122 34.0661 53.5884 34.0661H26.9808L32.6267 2.18486C32.8005 1.16941 32.1318 0.204026 31.1163 0.0302189C30.1009 -0.142643 29.1355 0.526135 28.9494 1.54064L24.7648 25.1765L20.5802 1.54064C20.4064 0.526135 19.4287 -0.154923 18.4256 0.0302189C17.4101 0.204026 16.73 1.18169 16.9152 2.18486L22.6357 34.5611C22.7471 35.1685 22.9823 35.7248 23.329 36.1953C23.3904 36.2822 23.465 36.3691 23.5397 36.456C24.2576 37.2853 25.3098 37.7926 26.4736 37.7926H29.9894V44.862C24.6288 48.2304 21.0629 54.1975 21.0629 60.9826C21.0629 71.4695 29.5936 80.0003 40.0806 80.0003C50.5676 80.0003 59.0973 71.4695 59.0973 60.9826C59.0973 54.1238 55.4455 48.1067 49.998 44.7638V37.7926H53.5761ZM55.3709 60.9826C55.3709 69.4141 48.5121 76.2729 40.0806 76.2729C31.6491 76.2729 24.7894 69.4141 24.7894 60.9826C24.7894 55.3244 27.8848 50.3719 32.4662 47.7222C32.6645 47.6486 32.8497 47.5494 33.0112 47.4256C35.128 46.311 37.5302 45.6923 40.0806 45.6923C42.581 45.6923 44.9462 46.2987 47.0385 47.3633C47.1746 47.4625 47.3229 47.5494 47.4844 47.6108C52.1895 50.2236 55.3709 55.2375 55.3709 60.9826ZM46.2706 43.0049C44.3275 42.3371 42.2475 41.9649 40.0806 41.9649C37.8513 41.9649 35.7099 42.3493 33.7168 43.055V37.7926H46.2583V43.0049H46.2706Z" fill="#FF9902"/>
<path d="M50.2707 54.0738L44.315 53.7772L41.8023 48.3419C41.4802 47.6609 40.7992 47.2273 40.069 47.2273C39.3256 47.2273 38.6077 47.6731 38.2979 48.3419L35.7852 53.7772L29.8295 54.0738C29.087 54.1115 28.4305 54.582 28.1453 55.263C27.8609 55.9564 28.0092 56.7234 28.5052 57.2684L32.5537 61.6391L30.127 68.8445C29.8663 69.6125 30.1393 70.4664 30.7949 70.9614C31.1538 71.2344 31.5751 71.3704 31.9841 71.3704C32.3431 71.3704 32.6898 71.2712 32.9986 71.0605L40.0567 66.3432L47.1138 71.0605C47.1261 71.0728 47.1507 71.0861 47.163 71.0861C47.1752 71.0983 47.1998 71.1106 47.213 71.1229C47.4973 71.2835 47.8195 71.3704 48.1416 71.3704C48.5619 71.3704 48.9832 71.2344 49.3422 70.9614C49.9864 70.4664 50.2339 69.6248 49.9864 68.8445C49.9864 68.8445 49.9864 68.8445 49.9864 68.8322L47.5597 61.6268L51.6083 57.2561C52.1278 56.6988 52.2761 55.9309 52.004 55.2498C51.7065 54.582 51.0387 54.1115 50.2707 54.0738ZM44.8232 60.0663C44.3405 60.5991 44.1912 61.3793 44.4387 62.0472L45.9869 66.6408L41.0967 63.3724L41.0712 63.3601C41.0589 63.3479 41.0467 63.3479 41.0344 63.3346C41.0098 63.3224 40.9853 63.2978 40.9598 63.2855C40.9352 63.2732 40.9106 63.261 40.8861 63.2487C40.8738 63.2364 40.8615 63.2364 40.836 63.2232H40.8237C40.7869 63.2109 40.7501 63.1986 40.7123 63.1863C40.3042 63.0503 39.8338 63.0503 39.4248 63.1863C39.3879 63.1986 39.3501 63.2109 39.3133 63.2232H39.301C39.2887 63.2364 39.2642 63.2364 39.2519 63.2487C39.2264 63.261 39.2018 63.2732 39.1773 63.2855C39.1527 63.2978 39.1282 63.3224 39.1027 63.3346C39.0904 63.3479 39.0781 63.3479 39.0658 63.3601L39.0413 63.3724L34.1501 66.6408L35.6983 62.0472C35.9458 61.3793 35.7975 60.5991 35.3139 60.0663L32.4914 57.0209L36.6637 56.8103C37.3325 56.7734 37.9389 56.3767 38.261 55.7948C38.261 55.7825 38.2733 55.7825 38.2733 55.7703C38.2856 55.7457 38.2979 55.7212 38.3101 55.6956L40.0813 51.87L41.8515 55.6956C42.149 56.3399 42.7923 56.7734 43.4979 56.8103L47.6702 57.0209L44.8232 60.0663Z" fill="#FF9902"/>
</g>
<defs>
<clipPath id="clip0">
<rect width="80" height="80" fill="white"/>
</clipPath>
</defs>
</svg>
