<svg width="64" height="42" viewBox="0 0 64 42" fill="none" xmlns="http://www.w3.org/2000/svg">
<path fill-rule="evenodd" clip-rule="evenodd" d="M22.2461 9.77553C22.2461 4.40866 26.6119 0.0429688 31.9787 0.0429688C37.3455 0.0429688 41.7112 4.40879 41.7112 9.77553C41.7112 15.1423 37.3455 19.5081 31.9787 19.5081C26.6118 19.5081 22.2461 15.1424 22.2461 9.77553ZM25.0269 9.77553C25.0269 13.6073 28.1469 16.7273 31.9787 16.7273C35.8106 16.7273 38.9304 13.6073 38.9304 9.77553C38.9304 5.94374 35.8104 2.82378 31.9787 2.82378C28.1469 2.82378 25.0269 5.94374 25.0269 9.77553Z" fill="#FF9902"/>
<path fill-rule="evenodd" clip-rule="evenodd" d="M44.4922 18.1178C44.4922 14.286 47.6122 11.166 51.4439 11.166C55.2757 11.166 58.3957 14.286 58.3957 18.1178C58.3957 21.9496 55.2757 25.0695 51.4439 25.0695C47.6122 25.0695 44.4922 21.9496 44.4922 18.1178ZM47.2729 18.1178C47.2729 20.4175 49.1442 22.2889 51.4439 22.2889C53.7435 22.2889 55.615 20.4175 55.615 18.1178C55.615 15.8181 53.7436 13.9467 51.4439 13.9467C49.1442 13.9467 47.2729 15.8181 47.2729 18.1178Z" fill="#FF9902"/>
<path fill-rule="evenodd" clip-rule="evenodd" d="M5.75977 18.1178C5.75977 14.286 8.87687 11.166 12.7115 11.166C16.546 11.166 19.6633 14.286 19.6633 18.1178C19.6633 21.9496 16.5433 25.0695 12.7115 25.0695C8.87973 25.0695 5.75977 21.9496 5.75977 18.1178ZM8.54044 18.1178C8.54044 20.4175 10.4118 22.2889 12.7115 22.2889C15.0111 22.2889 16.8826 20.4175 16.8826 18.1178C16.8826 15.8181 15.0112 13.9467 12.7115 13.9467C10.4118 13.9467 8.54044 15.8181 8.54044 18.1178Z" fill="#FF9902"/>
<path d="M31.979 22.2891C22.0129 22.2891 13.9043 30.3976 13.9043 40.3638C13.9043 41.1313 14.5272 41.7542 15.2947 41.7542C16.0622 41.7542 16.6851 41.1313 16.6851 40.3638C16.6851 31.9299 23.5451 25.0699 31.979 25.0699C40.4129 25.0699 47.2729 31.9299 47.2729 40.3638C47.2729 41.1313 47.8959 41.7542 48.6633 41.7542C49.4308 41.7542 50.0537 41.1313 50.0537 40.3638C50.0537 30.3976 41.9452 22.2891 31.979 22.2891Z" fill="#FF9902"/>
<path d="M51.443 27.8506C49.1545 27.8506 46.9132 28.4762 44.9611 29.6581C44.3077 30.0585 44.0963 30.9122 44.4939 31.5685C44.8971 32.2247 45.748 32.4333 46.4043 32.0356C47.9197 31.1151 49.6605 30.6313 51.443 30.6313C56.8097 30.6313 61.1755 34.9969 61.1755 40.3638C61.1755 41.1313 61.7985 41.7542 62.5659 41.7542C63.3334 41.7542 63.9563 41.1313 63.9563 40.3638C63.9562 33.4649 58.3419 27.8506 51.443 27.8506Z" fill="#FF9902"/>
<path d="M18.9924 29.6552C17.043 28.4762 14.8019 27.8506 12.5132 27.8506C5.61427 27.8506 0 33.4649 0 40.3638C0 41.1313 0.622925 41.7542 1.3904 41.7542C2.15788 41.7542 2.78081 41.1313 2.78081 40.3638C2.78068 34.9969 7.14649 30.6313 12.5132 30.6313C14.2957 30.6313 16.0364 31.1151 17.5492 32.0327C18.2026 32.4304 19.0591 32.2219 19.4595 31.5656C19.8599 30.9093 19.6485 30.0557 18.9924 29.6552Z" fill="#FF9902"/>
</svg>
