<svg width="64" height="40" viewBox="0 0 64 40" fill="none" xmlns="http://www.w3.org/2000/svg">
<path d="M50.5384 27.4834C49.2722 24.8765 44.7423 21.2581 40.3657 17.7619C37.9246 15.8133 35.618 13.971 34.1475 12.519C33.7791 12.1526 33.2281 12.0358 32.7415 12.2084C31.8356 12.5323 31.2763 12.7818 30.8355 12.9755C30.1634 13.2728 29.9376 13.3737 29.0316 13.4639C28.6309 13.5038 28.2708 13.7162 28.0476 14.0453C26.1469 16.8513 24.179 16.6124 22.8644 16.1771C22.445 16.0391 22.3698 15.8611 22.3295 15.6913C22.0472 14.5259 23.464 11.8128 25.3001 9.99959C29.6687 5.68308 31.9215 4.60259 36.6799 6.70248C42.0781 9.08634 47.4872 10.9527 47.541 10.9712C48.2481 11.2127 49.0088 10.8464 49.2534 10.1535C49.4954 9.46065 49.127 8.70407 48.4254 8.46253C48.3716 8.44399 43.0701 6.61488 37.7794 4.27606C31.615 1.55498 28.233 3.34688 23.402 8.12008C21.5631 9.93588 19.0656 13.6099 19.7108 16.3045C19.9877 17.4513 20.805 18.3009 22.0201 18.6963C25.066 19.6892 27.8457 18.7388 29.9158 16.0258C30.7707 15.8957 31.2359 15.7046 31.9347 15.394C32.1874 15.2825 32.4832 15.1525 32.8757 14.9958C34.4135 16.4213 36.4889 18.0805 38.6745 19.8246C42.6264 22.981 47.108 26.5596 48.1161 28.6302C48.6135 29.6522 48.0785 30.3186 47.7155 30.6238C47.1832 31.0752 46.4547 31.2185 46.0595 30.945C45.624 30.6503 45.0568 30.6318 44.6078 30.8972C44.1562 31.1627 43.9035 31.6644 43.96 32.1794C44.0513 33.0236 43.269 33.5068 42.9303 33.6741C42.0699 34.1041 41.1721 34.0298 40.836 33.7218C40.4596 33.3768 39.9192 33.2759 39.4407 33.4511C38.9622 33.6289 38.6288 34.0643 38.5804 34.5687C38.4998 35.4393 37.8465 36.2756 36.9942 36.6021C36.5829 36.756 35.9861 36.849 35.4511 36.3658C35.1178 36.0685 34.6553 35.9543 34.2226 36.0578C33.7844 36.1639 33.4322 36.4773 33.279 36.894C33.2279 37.0268 33.1123 37.3454 31.8541 37.3454C30.9589 37.3454 29.3485 36.7481 28.5609 36.233C27.6173 35.6198 21.7001 31.2608 16.5896 27.0345C15.8718 26.4372 14.6298 25.1576 13.5329 24.0268C12.5597 23.0233 11.6699 22.1128 11.2128 21.7305C10.6402 21.2527 9.79337 21.3243 9.31752 21.8872C8.83904 22.4473 8.90885 23.2862 9.47618 23.7587C9.89292 24.1065 10.6994 24.948 11.5892 25.8638C12.7883 27.1009 14.0276 28.3805 14.861 29.0707C19.8668 33.2094 25.8834 37.6772 27.0823 38.455C28.0717 39.0975 30.2035 40 31.8542 40C33.1795 40 34.1985 39.7 34.9055 39.1134C35.8517 39.4771 36.9272 39.4797 37.9622 39.0815C39.1854 38.6143 40.1908 37.6719 40.7608 36.5304C41.8199 36.7534 43.0325 36.5967 44.1346 36.05C45.2127 35.5138 45.9922 34.6935 46.3794 33.735C47.4494 33.7908 48.5515 33.4165 49.4629 32.644C51.0062 31.3406 51.4309 29.3125 50.5384 27.4834Z" fill="#FF9902"/>
<path d="M26.6363 5H14.3637C13.6109 5 13 5.67203 13 6.5C13 7.32797 13.6109 8 14.3637 8H26.6363C27.3891 8 28 7.32797 28 6.5C28 5.67203 27.3891 5 26.6363 5Z" fill="#FF9902"/>
<path d="M54.7583 24.5595C54.3175 23.9821 53.4362 23.8233 52.7851 24.2166L48.6284 26.6928C47.9774 27.081 47.8038 27.8653 48.2418 28.4427C48.5175 28.8033 48.9668 29 49.4246 29C49.6948 29 49.9705 28.9319 50.2151 28.7857L54.3718 26.3096C55.0227 25.9212 55.1961 25.137 54.7583 24.5595Z" fill="#FF9902"/>
<path d="M46.5239 30.7677C45.6291 30.0628 41.6273 25.9661 39.1527 23.3865C38.6753 22.8865 37.883 22.8691 37.3855 23.349C36.8856 23.8265 36.8706 24.6187 37.348 25.1162C37.9905 25.7861 43.6568 31.6926 44.9741 32.7325C45.2016 32.9125 45.4765 33 45.7465 33C46.1139 33 46.4814 32.835 46.7313 32.5225C47.1588 31.9825 47.0664 31.1951 46.5239 30.7677Z" fill="#FF9902"/>
<path d="M41.4651 34.4569C39.7536 33.0881 35.4536 28.5192 34.4821 27.462C33.9449 26.8791 33.0449 26.8448 32.462 27.3762C31.882 27.9105 31.8421 28.8164 32.3763 29.3965C32.4278 29.4507 37.5593 34.9913 39.6793 36.6886C39.9422 36.8971 40.2593 37 40.5707 37C40.9879 37 41.405 36.8142 41.6878 36.4657C42.1795 35.8484 42.0794 34.9483 41.4651 34.4569Z" fill="#FF9902"/>
<path d="M36.4924 36.4778C34.4553 34.7612 30.2871 30.3252 29.4728 29.4539C28.9329 28.877 28.0272 28.8455 27.4529 29.3854C26.8758 29.9252 26.8472 30.8278 27.3843 31.4049C28.5557 32.6588 32.544 36.8864 34.6496 38.663C34.9181 38.8886 35.2438 39 35.5695 39C35.9752 39 36.3809 38.8258 36.6638 38.4916C37.1723 37.886 37.0951 36.9862 36.4924 36.4778Z" fill="#FF9902"/>
<path fill-rule="evenodd" clip-rule="evenodd" d="M1.41341 0.0018353C4.16011 0.166498 13.299 0.876663 15.5844 3.06918C15.8804 3.3499 16.0298 3.75491 15.995 4.16537C15.39 11.1833 10.798 25.4541 10.6005 26.0679L10.6003 26.0685C10.4217 26.6247 9.90964 27 9.33362 27H1.33341C0.597391 27 0 26.3951 0 25.6499V1.34914C0 0.976524 0.152004 0.620113 0.418761 0.366347C0.685393 0.109797 1.03478 -0.0170231 1.41341 0.0018353ZM2.6667 24.3H8.36022C9.35225 21.13 12.5497 10.6239 13.2564 4.71074C11.5763 3.88452 6.95218 3.13929 2.6667 2.79642V24.3Z" fill="#FF9902"/>
<path fill-rule="evenodd" clip-rule="evenodd" d="M45.7815 5.8269C46.0291 5.7135 51.9559 3 62.6394 3C63.3904 3 64 3.60206 64 4.34992V28.65C64 29.3952 63.3904 30 62.6394 30H54.4757C53.8635 30 53.3274 29.595 53.1641 29.0091C52.1518 25.3696 46.8863 10.4494 45.2046 7.76281C45.0005 7.43349 44.9461 7.03659 45.0549 6.66665C45.1637 6.29671 45.4278 5.99156 45.7815 5.8269ZM55.4935 27.3H61.2788V5.71629C54.8051 5.8674 50.345 7.06899 48.2687 7.76825C50.3939 12.261 54.2037 23.1312 55.4935 27.3Z" fill="#FF9902"/>
</svg>
