<svg width="68" height="80" viewBox="0 0 68 80" fill="none" xmlns="http://www.w3.org/2000/svg">
<path d="M47.1645 15.1833C43.2353 12.3063 38.5765 10.7906 33.7078 10.7906C28.8375 10.7906 24.1787 12.3063 20.2506 15.1833C16.3221 18.0609 13.4553 22.0334 11.9726 26.6705C8.97385 36.0996 12.4151 46.3254 20.5606 52.0909C21.6002 52.832 22.2201 54.0263 22.2201 55.3001V57.1922C22.2201 59.1286 23.7914 60.7 25.7284 60.7L43.291 60.7108C43.9553 60.7887 44.4648 61.3528 44.4648 62.0171C44.4648 62.6808 43.9553 63.2455 43.291 63.3223L27.8969 63.3347C27.8861 63.3347 27.8752 63.3347 27.8531 63.3347C27.8422 63.3347 27.8314 63.3347 27.8087 63.3347C25.0869 63.4564 22.9395 65.6801 22.9395 68.4138C22.9395 71.1465 25.0755 73.3717 27.8087 73.4935H27.8752L40.4908 73.6152C41.1556 73.692 41.6645 74.2561 41.6645 74.9209C41.6645 75.5846 41.1556 76.1493 40.4908 76.2256L29.3362 76.238C28.2955 76.238 27.455 77.0791 27.455 78.1187C27.455 79.1589 28.2955 80 29.3362 80L40.5908 79.9892C40.6357 79.9892 40.6904 79.9892 40.7347 79.9784H40.7894C43.4133 79.7566 45.4374 77.5432 45.4374 74.9317C45.4374 72.3202 43.4241 70.1177 40.8348 69.8743C40.8229 69.8743 40.8121 69.8743 40.8121 69.8743C40.8013 69.8743 40.7785 69.8743 40.7677 69.8743C40.7455 69.8743 40.7234 69.8743 40.7012 69.8743C40.6796 69.8743 40.6574 69.8743 40.6357 69.8743L27.9748 69.7526C27.2775 69.719 26.7247 69.144 26.7247 68.436C26.7247 67.7377 27.2667 67.1627 27.964 67.1183L43.39 67.1075C43.4349 67.1075 43.4901 67.1075 43.535 67.0967H43.5896C46.1903 66.8641 48.2046 64.6507 48.2046 62.0392C48.2046 59.4278 46.1795 57.2138 43.5896 56.9818C43.5788 56.9818 43.568 56.9818 43.568 56.9818C43.5566 56.9818 43.5458 56.9818 43.535 56.9818C43.5117 56.9818 43.4901 56.9818 43.4571 56.9818C43.4349 56.9818 43.4133 56.9818 43.3792 56.9818L25.9718 56.971V55.3326C25.9718 52.8428 24.7542 50.486 22.7183 49.0467C15.9126 44.2218 13.035 35.7009 15.5356 27.8324C18.0594 19.8984 25.3525 14.5635 33.6851 14.5635C42.0188 14.5635 49.3113 19.8984 51.8341 27.8324C54.358 35.7669 51.4917 44.3327 44.7077 49.1468C43.8558 49.7439 43.6567 50.9172 44.2652 51.7691C44.6303 52.29 45.2167 52.5664 45.803 52.5664C46.1795 52.5664 46.5559 52.4555 46.8875 52.2229C50.8605 49.4015 53.7819 45.4724 55.3316 40.8585C56.8807 36.2321 56.9137 31.3407 55.4306 26.7041C53.9593 22.0334 51.0931 18.0609 47.1645 15.1833Z" fill="#FF9902"/>
<path d="M7.52507 32.1044H1.54915C0.697227 32.1044 0 32.8016 0 33.6535C0 34.5054 0.697227 35.2027 1.54915 35.2027H7.52507C8.377 35.2027 9.07423 34.5054 9.07423 33.6535C9.07423 32.7908 8.38782 32.1044 7.52507 32.1044Z" fill="#FF9902"/>
<path d="M33.6532 9.07423C34.5046 9.07423 35.2024 8.377 35.2024 7.52507V1.54969C35.2024 0.697227 34.5046 0 33.6532 0C32.8007 0 32.1035 0.697227 32.1035 1.54969V7.52507C32.1035 8.38836 32.7894 9.07423 33.6532 9.07423Z" fill="#FF9902"/>
<path d="M15.1839 16.7324C15.5706 16.7324 15.9693 16.589 16.2684 16.2899C16.8764 15.6928 16.8883 14.7067 16.2906 14.0993L12.0958 9.79419C11.4981 9.18513 10.5137 9.17431 9.90464 9.77255C9.29612 10.3692 9.2853 11.3542 9.883 11.9632L14.0772 16.2683C14.3866 16.5777 14.7852 16.7324 15.1839 16.7324Z" fill="#FF9902"/>
<path d="M55.31 9.80509L51.1158 14.1102C50.5176 14.7192 50.5284 15.7037 51.1375 16.3014C51.436 16.5999 51.8347 16.7433 52.2225 16.7433C52.6212 16.7433 53.0306 16.5891 53.3292 16.2792L57.5234 11.9747C58.1205 11.3656 58.1097 10.3812 57.5012 9.78345C56.8813 9.17439 55.9077 9.19603 55.31 9.80509Z" fill="#FF9902"/>
<path d="M65.8566 32.1044H59.7699C58.9179 32.1044 58.2207 32.8016 58.2207 33.6535C58.2207 34.5054 58.9179 35.2027 59.7699 35.2027H65.8566C66.7086 35.2027 67.4058 34.5054 67.4058 33.6535C67.4058 32.7908 66.7086 32.1044 65.8566 32.1044Z" fill="#FF9902"/>
</svg>
