<svg width="80" height="80" viewBox="0 0 80 80" fill="none" xmlns="http://www.w3.org/2000/svg">
<g clip-path="url(#clip0)">
<path d="M40.1188 15.2775C44.3344 15.2775 47.758 11.854 47.758 7.63833C47.758 3.42355 44.3344 0 40.1188 0C35.904 0 32.4805 3.42355 32.4805 7.63833C32.4805 11.8429 35.904 15.2775 40.1188 15.2775ZM40.1188 3.34528C42.4831 3.34528 44.4127 5.27485 44.4127 7.63833C44.4127 10.0027 42.4831 11.9322 40.1188 11.9322C37.7553 11.9322 35.8257 10.0027 35.8257 7.63833C35.8257 5.27485 37.7553 3.34528 40.1188 3.34528Z" fill="#FF9902"/>
<path d="M56.2543 42.2635C56.2543 42.2524 56.2543 42.2414 56.2543 42.2303C56.2543 42.2192 56.2543 42.2082 56.2543 42.1861V27.9116C56.2543 25.2359 55.2172 22.7261 53.3216 20.8306C51.4261 18.935 48.9171 17.8869 46.2406 17.8869H33.974C28.4431 17.8869 23.9492 22.3807 23.9492 27.9116V42.1742C23.9492 44.7844 26.1902 46.9249 28.9561 46.947H29.0003C29.5695 46.947 30.1157 46.8467 30.6287 46.6688V74.4239V74.4358C30.6287 76.4318 31.6658 78.2269 33.4167 79.2419C34.2862 79.7439 35.257 80 36.2269 80C37.1968 80 38.1675 79.7439 39.037 79.2419C39.4386 79.0079 39.8061 78.7289 40.1294 78.4166C40.4527 78.7289 40.8211 79.0079 41.2227 79.2419C42.0922 79.7439 43.0629 80 44.0328 80C45.0027 80 45.9734 79.7439 46.8429 79.2419C48.5938 78.2269 49.5969 76.4871 49.5969 74.458V46.6688C50.121 46.8577 50.6791 46.947 51.2585 46.947H51.3036C53.9912 46.936 56.1318 44.9179 56.2543 42.2635ZM51.2585 43.6128H51.2474C50.3669 43.6128 49.642 42.9331 49.5859 42.0516C49.5859 42.0406 49.5859 42.0295 49.5859 42.0185V29.4839C49.5859 28.5591 48.8389 27.8112 47.9132 27.8112C46.9876 27.8112 46.2406 28.5591 46.2406 29.4839V74.469C46.2406 75.2943 45.8611 75.9519 45.1592 76.3646C44.4675 76.7661 43.598 76.7661 42.9064 76.3646C42.1815 75.9409 41.791 75.2722 41.791 74.469V49.8465C41.791 48.9209 41.044 48.1739 40.1183 48.1739C39.1927 48.1739 38.4457 48.9209 38.4457 49.8465V74.469V74.4801C38.4457 75.2832 38.0671 75.9519 37.3644 76.3535C36.6727 76.7551 35.8032 76.7551 35.1115 76.3535C34.4087 75.9409 33.9851 75.2271 33.9961 74.4358C33.9961 74.4358 33.9961 74.4358 33.9961 74.4239C33.9961 74.4239 33.9961 74.4239 33.9961 74.4129V29.4507C33.9961 28.525 33.2491 27.7781 32.3235 27.7781C31.3978 27.7781 30.6508 28.525 30.6508 29.4507V42.1078C30.5845 42.9662 29.8928 43.6128 29.0233 43.6128H29.0114C28.198 43.6018 27.3277 43.0556 27.3277 42.1861V27.9116C27.3277 24.232 30.3275 21.2321 34.008 21.2321H46.2857C49.9653 21.2321 52.9541 24.232 52.9541 27.9116V42.1189C52.8648 42.9662 52.151 43.6018 51.2585 43.6128Z" fill="#FF9902"/>
<path d="M21.0067 18.5556C24.5528 18.5556 27.4404 15.668 27.4404 12.122C27.4404 8.57504 24.5528 5.68748 21.0067 5.68748C17.4598 5.68748 14.5723 8.57504 14.5723 12.122C14.5723 15.668 17.4488 18.5556 21.0067 18.5556ZM21.0067 9.03276C22.7126 9.03276 24.0951 10.4153 24.0951 12.122C24.0951 13.8278 22.7126 15.2103 21.0067 15.2103C19.3001 15.2103 17.9175 13.8278 17.9175 12.122C17.9175 10.4153 19.3001 9.03276 21.0067 9.03276Z" fill="#FF9902"/>
<path d="M27.2149 49.5904C26.2893 49.5904 25.5423 50.3374 25.5423 51.2631V66.7295V66.7414V66.7524C25.5423 67.4211 25.0965 67.7785 24.8174 67.9342C24.3716 68.1911 23.8143 68.1911 23.3677 67.9342C23.0444 67.7444 22.6428 67.3769 22.6428 66.7414V47.0364C22.6428 46.1107 21.8958 45.3637 20.9702 45.3637C20.0445 45.3637 19.2975 46.1107 19.2975 47.0364V66.7414V66.7524C19.2975 67.4211 18.8517 67.7785 18.5727 67.9342C18.1269 68.1911 17.5696 68.1911 17.1229 67.9342C16.6439 67.6551 16.3649 67.1982 16.3649 66.6963V31.2348C16.3649 30.3091 15.6179 29.5622 14.6922 29.5622C13.7666 29.5622 13.0196 30.3091 13.0196 31.2348V40.8027C12.9745 41.3268 12.5619 41.7173 12.0489 41.7173H12.0378C11.5478 41.7173 11.0347 41.4051 11.0347 40.9142V29.4839C11.0347 26.7299 13.2978 24.477 16.0748 24.477H20.3797C21.3045 24.477 22.0524 23.73 22.0524 22.8044C22.0524 21.8787 21.3045 21.1318 20.3797 21.1318H16.0748C11.4474 21.1318 7.68945 24.8786 7.68945 29.4839V40.9031C7.68945 43.2113 9.585 45.0405 12.0046 45.0515H12.0378C12.373 45.0515 12.6963 45.0073 13.0085 44.9401V66.6963C13.0085 68.3689 13.9342 69.9522 15.4282 70.8226C16.1752 71.2573 17.0004 71.4692 17.8367 71.4692C18.6731 71.4692 19.4983 71.2573 20.2453 70.8226C20.5022 70.6771 20.7362 70.4993 20.9591 70.3206C21.182 70.5103 21.416 70.6771 21.6729 70.8226C22.4199 71.2573 23.2452 71.4692 24.0815 71.4692C24.9178 71.4692 25.7431 71.2573 26.49 70.8226C27.9849 69.9522 28.8765 68.4361 28.8765 66.7524V66.7414V51.2631C28.8875 50.3374 28.1406 49.5904 27.2149 49.5904Z" fill="#FF9902"/>
<path d="M59.2314 18.5556C62.7774 18.5556 65.6658 15.668 65.6658 12.122C65.6658 8.57504 62.7774 5.68748 59.2314 5.68748C55.6853 5.68748 52.7969 8.57504 52.7969 12.122C52.7969 15.668 55.6853 18.5556 59.2314 18.5556ZM59.2314 9.03276C60.9372 9.03276 62.3205 10.4153 62.3205 12.122C62.3205 13.8278 60.9372 15.2103 59.2314 15.2103C57.5255 15.2103 56.1422 13.8278 56.1422 12.122C56.1422 10.4153 57.5255 9.03276 59.2314 9.03276Z" fill="#FF9902"/>
<path d="M72.4572 29.4839C72.4572 24.8786 68.7104 21.1318 64.1051 21.1318H59.767C58.8413 21.1318 58.0943 21.8787 58.0943 22.8044C58.0943 23.73 58.8413 24.477 59.767 24.477H64.1051C66.8591 24.477 69.112 26.7188 69.112 29.4839V40.9031C69.112 41.4272 68.61 41.7062 68.1531 41.7062C67.618 41.7062 67.1713 41.2936 67.1382 40.7585C67.1382 40.7474 67.1382 40.7474 67.1382 40.7363V31.2348C67.1382 30.3091 66.3912 29.5622 65.4655 29.5622C64.5399 29.5622 63.7929 30.3091 63.7929 31.2348V66.6963V66.7073C63.7929 67.2314 63.5589 67.6662 63.1123 67.9342C62.6664 68.1911 62.1092 68.1911 61.6625 67.9342C61.2056 67.6662 60.9045 67.1761 60.9045 66.6741V47.0364C60.9045 46.1107 60.1575 45.3637 59.2318 45.3637C58.3062 45.3637 57.5592 46.1107 57.5592 47.0364V66.6741C57.5592 67.1872 57.2912 67.6781 56.8343 67.9342C56.3885 68.1911 55.8304 68.1911 55.3846 67.9342C55.1166 67.7785 54.6597 67.4101 54.6597 66.7524C54.6597 66.7524 54.6597 66.7524 54.6597 66.7414V51.2631C54.6597 50.3374 53.9127 49.5904 52.9871 49.5904C52.0614 49.5904 51.3145 50.3374 51.3145 51.2631V66.7294V66.7414C51.3145 68.4251 52.2061 69.9411 53.7009 70.8115C54.4479 71.2462 55.2731 71.4581 56.1095 71.4581C56.9458 71.4581 57.771 71.2462 58.518 70.8115C58.775 70.655 59.02 70.4882 59.2429 70.2874C59.4658 70.4771 59.7117 70.655 59.9788 70.8115C60.7258 71.2462 61.5511 71.4581 62.3874 71.4581C63.2237 71.4581 64.049 71.2462 64.796 70.8115C66.2687 69.9522 67.1492 68.414 67.1492 66.6963V66.6852V44.9401C67.4725 45.0183 67.8069 45.0626 68.1531 45.0626H68.1863C70.5838 45.0404 72.4683 43.2232 72.4683 40.9141V29.4839H72.4572Z" fill="#FF9902"/>
</g>
<defs>
<clipPath id="clip0">
<rect width="80" height="80" fill="white"/>
</clipPath>
</defs>
</svg>
