<svg width="57" height="59" viewBox="0 0 57 59" fill="none" xmlns="http://www.w3.org/2000/svg">
<path fill-rule="evenodd" clip-rule="evenodd" d="M41.4213 29.3276C42.2933 30.3929 43.5534 31 44.8876 31C44.9097 31 44.9319 30.9999 44.954 30.9995C46.3039 30.9791 47.5698 30.3484 48.4274 29.269C49.1944 28.3034 49.5572 27.0756 49.4508 25.8439H55.8698C56.494 25.8439 57 25.3208 57 24.6756V5.29399C57 2.37484 54.7026 0 51.8789 0H33.1303C32.5062 0 32.0001 0.523055 32.0001 1.16832V9.80007C32.0001 10.1468 32.1492 10.4756 32.4067 10.6976C32.6643 10.9196 33.0039 11.0117 33.334 10.9492L33.4016 10.9364C34.0815 10.8079 34.776 10.9964 35.3069 11.4538C35.8378 11.9113 36.1423 12.5835 36.1423 13.298C36.1423 14.0127 35.8377 14.6849 35.3067 15.1426C34.7759 15.6001 34.0816 15.7891 33.4019 15.6604L33.3342 15.6475C33.0047 15.5851 32.6644 15.6771 32.4067 15.899C32.149 16.121 32 16.4499 32 16.7967V24.6756C32 25.3208 32.5061 25.8439 33.1302 25.8439H40.3268C40.2343 27.1033 40.6211 28.3498 41.4213 29.3276ZM41.6561 23.5072H34.2604V18.0151C35.1677 17.9251 36.0365 17.5556 36.754 16.9372C37.8017 16.0344 38.4025 14.7079 38.4025 13.298C38.4025 11.8882 37.8017 10.5618 36.754 9.65906C36.0366 9.04079 35.1677 8.67136 34.2604 8.58152V2.33663H51.8789C53.4563 2.33663 54.7396 3.66326 54.7396 5.29399V23.5071H48.1149C47.7796 23.5071 47.4615 23.6611 47.2468 23.9274C47.0321 24.1936 46.9428 24.5447 47.0031 24.8857L47.1702 25.83C47.2935 26.5262 47.115 27.2391 46.6806 27.786C46.2459 28.333 45.6046 28.6527 44.921 28.663C44.2324 28.672 43.6014 28.3734 43.1469 27.8182C42.6777 27.2448 42.4834 26.4932 42.6138 25.7561L42.7679 24.8858C42.8283 24.5448 42.7389 24.1937 42.5243 23.9275C42.3095 23.6612 41.9914 23.5072 41.6561 23.5072Z" fill="#FF9902"/>
<path fill-rule="evenodd" clip-rule="evenodd" d="M47.8027 39.8868C48.4425 39.8868 48.9611 39.3682 48.9611 38.7284V34.5343C48.9611 33.8945 48.4425 33.3759 47.8027 33.3759H39.8541C39.5104 33.3759 39.1845 33.5286 38.9644 33.7926C38.7443 34.0566 38.6528 34.4047 38.7146 34.7428L38.8859 35.679C39.0123 36.3693 38.8294 37.0762 38.384 37.6184C37.9385 38.1609 37.2811 38.4778 36.5806 38.488C35.874 38.4959 35.2279 38.2008 34.7622 37.6504C34.2812 37.0818 34.0821 36.3366 34.2158 35.6059L34.3737 34.7429C34.4355 34.4048 34.344 34.0567 34.124 33.7926C33.9039 33.5286 33.5779 33.3759 33.2342 33.3759H25.6536V27.9304C26.5837 27.8412 27.4742 27.4749 28.2096 26.8618C29.2835 25.9666 29.8991 24.6515 29.8991 23.2535C29.8991 21.8556 29.2833 20.5405 28.2095 19.6454C27.474 19.0323 26.5836 18.6661 25.6536 18.577V11.2268C25.6536 10.587 25.135 10.0684 24.4952 10.0684H5.27832C2.38396 10.0684 0.0292969 12.423 0.0292969 15.3174V53.7512C0.0292969 56.6456 2.38396 59.0002 5.27832 59.0002H43.7122C46.6064 59.0002 48.9612 56.6456 48.9612 53.7512V50.3895C48.9612 49.7497 48.4426 49.2311 47.8028 49.2311C47.1631 49.2311 46.6444 49.7497 46.6444 50.3895V53.7512C46.6444 55.368 45.329 56.6835 43.7122 56.6835H25.6536V49.2116C25.6536 48.868 25.5011 48.542 25.2372 48.322C24.9733 48.1019 24.6251 48.0102 24.2872 48.072L24.2171 48.0847C23.5202 48.2123 22.8084 48.0254 22.2644 47.5719C21.7202 47.1184 21.408 46.452 21.408 45.7428C21.408 45.0343 21.7201 44.3678 22.2644 43.9142C22.8086 43.4604 23.5202 43.2733 24.2178 43.4011L24.2872 43.4137C24.6249 43.4752 24.9732 43.3838 25.2372 43.1637C25.5011 42.9437 25.6536 42.6178 25.6536 42.2741V35.6925H31.8717C31.7767 36.9412 32.1732 38.177 32.9934 39.1464C33.9021 40.2204 35.2259 40.826 36.6143 40.8043C37.9978 40.7842 39.2954 40.1588 40.1744 39.0885C40.9606 38.1312 41.3325 36.9138 41.2235 35.6925H46.6444V38.7284C46.6443 39.3682 47.163 39.8868 47.8027 39.8868ZM2.34608 15.3174C2.34608 13.7006 3.66155 12.3851 5.27832 12.3851H23.3368V19.7851C23.3368 20.1288 23.4894 20.4546 23.7534 20.6747C24.0174 20.8947 24.3655 20.9861 24.7035 20.9246L24.7729 20.912L24.7733 20.9118C25.47 20.7844 26.182 20.9713 26.7262 21.4249C27.2704 21.8786 27.5825 22.5451 27.5825 23.2535C27.5825 23.962 27.2704 24.6287 26.7262 25.0823C26.182 25.5359 25.4703 25.723 24.7734 25.5956L24.7038 25.5828C24.3656 25.521 24.0175 25.6125 23.7535 25.8326C23.4895 26.0527 23.3368 26.3786 23.3368 26.7223V33.3759H18.3664C17.7983 31.4127 15.9914 29.9971 13.8534 29.9971C11.7155 29.9971 9.90865 31.4127 9.34057 33.3759H2.34608V15.3174ZM19.0912 45.7436C19.0912 44.345 19.7071 43.0297 20.781 42.1346C21.5163 41.5216 22.4068 41.1553 23.337 41.0662V35.6927H17.3902C16.77 35.6927 16.2599 35.2043 16.2329 34.5847C16.1775 33.3114 15.1323 32.314 13.8536 32.314C12.5747 32.314 11.5296 33.3114 11.4742 34.5847C11.4472 35.2042 10.9371 35.6927 10.3169 35.6927H2.34608V53.7512C2.34608 55.3681 3.66155 56.6835 5.27832 56.6835H23.3368V50.4199C22.407 50.331 21.5164 49.9648 20.781 49.3518C19.7071 48.4567 19.0912 47.1416 19.0912 45.7436Z" fill="#FF9902"/>
<path d="M47.8028 45.657C47.3177 45.657 46.8772 45.3446 46.7131 44.8887C46.552 44.441 46.6898 43.9232 47.0535 43.6157C47.4335 43.2941 47.9911 43.2539 48.4141 43.5156C48.8198 43.7666 49.0328 44.2577 48.9392 44.7256C48.8323 45.2606 48.348 45.657 47.8028 45.657Z" fill="#FF9902"/>
</svg>
