<svg width="145" height="60" viewBox="0 0 145 60" fill="none" xmlns="http://www.w3.org/2000/svg">
<path d="M69.6894 49.0267C69.881 46.7487 70.2324 44.5027 70.7753 42.2246C71.3183 39.9465 72.0209 37.7326 72.9471 35.5187C73.8733 33.3048 74.9592 31.1872 76.2368 29.0695C77.5143 26.984 78.9515 24.9947 80.6123 23.1016H65.4097V17.6792H87.2555V22.3957C83.7423 26.3423 81.0594 30.5775 79.1751 35.1016C77.2907 39.6578 76.2368 44.2781 75.9813 48.9947H69.6894V49.0267Z" fill="#FF0000"/>
<path d="M107.441 49.0268V34.9733H95.272V49.0268H88.7566V17.7112H95.272V29.4866H107.441V17.7112H114.02V49.0268H107.441Z" fill="#FF0000"/>
<path d="M116.575 23.0374V17.3262H122.675V23.0374H116.575ZM116.575 49.0267V25.8289H122.675V49.0267H116.575Z" fill="#FF0000"/>
<path d="M138.548 39.0802V39.7861C138.548 41.2299 138.261 42.3529 137.686 43.123C137.111 43.9251 136.217 44.3102 134.971 44.3102C133.726 44.3102 132.831 43.9251 132.257 43.123C131.714 42.3209 131.426 41.1658 131.426 39.6898V30.1604H144.201V25.8289H131.426V19.5722H125.422V40.3315C125.422 41.5829 125.581 42.7701 125.933 43.9251C126.284 45.0481 126.827 46.0428 127.594 46.9091C128.36 47.7433 129.35 48.4492 130.532 48.9305C131.714 49.4438 133.151 49.7005 134.844 49.7005C136.472 49.7005 137.878 49.4438 139.059 48.9305C140.241 48.4171 141.199 47.7433 141.966 46.877C142.732 46.0107 143.307 45.016 143.659 43.893C144.01 42.7701 144.201 41.615 144.201 40.3636V39.0802H138.548Z" fill="#FF0000"/>
<path d="M48.6101 6.4492C43.5 2.40642 37.0484 0 30.022 0C22.9956 0 16.576 2.40642 11.4339 6.4492H48.6101Z" fill="#FF0000"/>
<path d="M51.6123 9.14439L34.7808 60C49.1211 57.7219 60.1079 45.2406 60.1079 30.1604C60.1079 22.0107 56.8821 14.5989 51.6123 9.14439Z" fill="#FF0000"/>
<path d="M35.707 17.262H2.87445C1.02203 21.1765 0 25.5722 0 30.1925C0 43.861 9.03855 55.3797 21.3987 59.1337L35.707 17.262Z" fill="#FFCC00"/>
<path d="M69.3381 13.4118L67.5495 10.6845L66.8788 11.3583V13.4118H65.6332V7.3476H66.8788V9.81818L69.1784 7.3476H70.8072L68.4119 9.75401L70.8392 13.4439H69.3381V13.4118Z" fill="black"/>
<path d="M74.033 13.4118V10.6203C74.033 10.2674 73.9691 10.0428 73.8414 9.91444C73.7136 9.7861 73.522 9.72193 73.2665 9.72193C73.1068 9.72193 72.9791 9.75401 72.8832 9.81819C72.7555 9.88236 72.6597 9.94653 72.5958 10.0428C72.5319 10.139 72.468 10.2674 72.4042 10.3957C72.3722 10.5241 72.3403 10.6845 72.3403 10.8128V13.3797H71.1586V7.21925H72.3403V9.46524C72.3722 9.36899 72.4361 9.27273 72.5319 9.17647C72.6277 9.08022 72.7235 9.01605 72.8513 8.95188C72.979 8.88771 73.1068 8.85562 73.2346 8.79145C73.3623 8.75936 73.522 8.72727 73.6817 8.72727C74.1288 8.72727 74.5121 8.85562 74.7995 9.1123C75.087 9.36899 75.2467 9.72193 75.2467 10.1711V13.3476H74.033V13.4118Z" fill="black"/>
<path d="M78.6321 13.4118V12.7701C78.3127 13.2834 77.8656 13.508 77.2268 13.508C77.0033 13.508 76.8116 13.4759 76.62 13.3797C76.4284 13.2834 76.2687 13.1872 76.1409 13.0267C76.0132 12.8663 75.9174 12.7059 75.8215 12.5134C75.7257 12.3209 75.6938 12.0963 75.6938 11.8396V8.91978H76.8755V11.7112C76.8755 12.2567 77.131 12.5455 77.642 12.5455C77.9614 12.5455 78.185 12.4492 78.3447 12.2567C78.5044 12.0642 78.5682 11.8075 78.5682 11.5187V8.91978H79.75V13.4118H78.6321Z" fill="black"/>
<path d="M83.1354 12.8342C83.0396 13.0267 82.9119 13.1872 82.6883 13.3155C82.4647 13.4438 82.2092 13.4759 81.9218 13.4759C81.6982 13.4759 81.4746 13.4438 81.2511 13.3476C81.0275 13.2513 80.8678 13.1551 80.7401 13.0267C80.6123 12.8984 80.4846 12.7059 80.3887 12.5134C80.2929 12.3209 80.261 12.0963 80.261 11.8396V8.91978H81.4427V11.6471C81.4427 12.1925 81.6982 12.4813 82.2092 12.4813C82.4967 12.4813 82.6883 12.4171 82.8799 12.2567C83.0396 12.0963 83.1354 11.9037 83.1354 11.6471V8.91978H84.3171V13.5401C84.3171 13.861 84.2533 14.1497 84.1575 14.4064C84.0616 14.6631 83.902 14.8556 83.7103 15.0481C83.5187 15.2086 83.2951 15.3369 83.0396 15.4332C82.7841 15.5294 82.5286 15.5615 82.2412 15.5615C81.5705 15.5615 81.0914 15.4011 80.772 15.0481C80.4526 14.7273 80.2929 14.246 80.2929 13.6684H81.3788C81.3788 13.9251 81.4427 14.1497 81.6024 14.3102C81.7621 14.4706 81.9857 14.5348 82.305 14.5348C82.4009 14.5348 82.5286 14.5027 82.6244 14.4706C82.7202 14.4385 82.816 14.3743 82.8799 14.2781C82.9438 14.1818 83.0077 14.0856 83.0716 13.9572C83.1035 13.8289 83.1354 13.7005 83.1354 13.5401V12.8342Z" fill="black"/>
<path d="M85.946 11.4866C85.978 11.8396 86.0738 12.0963 86.2335 12.2888C86.4251 12.4813 86.6487 12.5775 86.9361 12.5775C87.1277 12.5775 87.2874 12.5455 87.4471 12.4492C87.6068 12.3529 87.7026 12.2246 87.7346 12.0642H88.9482C88.8205 12.5134 88.565 12.8984 88.2136 13.123C87.8623 13.3476 87.4471 13.508 86.968 13.508C85.4669 13.508 84.7324 12.7059 84.7324 11.0695C84.7324 10.7166 84.7962 10.3957 84.8921 10.139C84.9879 9.85028 85.1156 9.62568 85.3072 9.40108C85.4989 9.20856 85.7224 9.04814 85.978 8.95188C86.2335 8.85563 86.5528 8.79145 86.9042 8.79145C87.6068 8.79145 88.1178 9.01605 88.4691 9.46525C88.8205 9.91445 89.0121 10.5882 89.0121 11.4866H85.946ZM86.9361 7.28343L85.8821 8.21391L85.5308 7.7968L86.5209 6.73798H87.3513L88.3414 7.7968L87.9901 8.21391L86.9361 7.28343ZM87.7984 10.7166C87.7984 10.5562 87.7665 10.3957 87.7026 10.2674C87.6387 10.139 87.5749 10.0428 87.511 9.94653C87.4152 9.85028 87.3194 9.81819 87.2235 9.75402C87.1277 9.72194 87 9.68985 86.8722 9.68985C86.6487 9.68985 86.4251 9.7861 86.2654 9.94653C86.1057 10.107 86.0099 10.3636 85.978 10.6845H87.7984V10.7166ZM88.6288 8.08557L88.4053 7.66846L89.9702 6.77006L90.3216 7.37969L88.6288 8.08557Z" fill="black"/>
<path d="M92.3018 13.4118V10.6845C92.3018 10.3315 92.2379 10.1069 92.1421 9.97861C92.0143 9.85027 91.8227 9.78609 91.5352 9.78609C90.9284 9.78609 90.609 10.139 90.609 10.8128V13.3797H89.4273V8.8877H90.5451V9.56149C90.6729 9.30481 90.8645 9.1123 91.0881 8.98395C91.3117 8.85561 91.6311 8.79144 91.9824 8.79144C92.2059 8.79144 92.3976 8.82352 92.5892 8.8877C92.7808 8.95187 92.9405 9.04813 93.0683 9.17647C93.196 9.30481 93.2919 9.46524 93.3877 9.65775C93.4515 9.85027 93.5154 10.0428 93.5154 10.2995V13.4118H92.3018Z" fill="black"/>
<path d="M101.436 13.4118V10.6845C101.436 10.3957 101.372 10.2032 101.244 10.0107C101.117 9.85027 100.957 9.75402 100.733 9.75402C100.51 9.75402 100.35 9.85027 100.191 10.0428C100.063 10.2353 99.967 10.4599 99.967 10.7166V13.4118H98.7852V10.7166C98.7852 10.5241 98.7852 10.3957 98.7533 10.2674C98.7214 10.139 98.6894 10.0749 98.6256 9.97861C98.5617 9.88236 98.4978 9.85027 98.402 9.85027C98.3062 9.81818 98.2104 9.81819 98.0826 9.81819C97.6035 9.81819 97.348 10.107 97.348 10.6845V13.4118H96.1982V8.91979H97.3161V9.59359C97.4758 9.30482 97.6355 9.08022 97.859 8.98396C98.0826 8.8877 98.3381 8.82353 98.6256 8.82353C98.7852 8.82353 98.913 8.82353 99.0408 8.85562C99.1685 8.88771 99.2643 8.91979 99.3601 8.98396C99.4559 9.04813 99.5518 9.1123 99.6156 9.20856C99.7115 9.30481 99.7753 9.40107 99.8711 9.52941C99.9989 9.27273 100.159 9.1123 100.35 8.98396C100.542 8.85562 100.797 8.82353 101.085 8.82353C101.308 8.82353 101.5 8.85562 101.692 8.95188C101.883 9.01605 102.043 9.14439 102.171 9.27273C102.298 9.40108 102.394 9.5615 102.49 9.75402C102.554 9.94653 102.618 10.139 102.618 10.3316V13.4439H101.436V13.4118Z" fill="black"/>
<path d="M105.876 13.4118C105.844 13.2834 105.812 13.1551 105.812 12.9947C105.684 13.1551 105.492 13.2834 105.269 13.3797C105.045 13.4759 104.758 13.508 104.47 13.508C103.959 13.508 103.576 13.3797 103.352 13.1551C103.097 12.9305 103.001 12.6417 103.001 12.2567C103.001 11.9358 103.065 11.6791 103.161 11.4866C103.257 11.2941 103.416 11.1337 103.576 11.0374C103.768 10.9412 103.959 10.8449 104.215 10.7808C104.47 10.7166 104.726 10.6845 105.045 10.6524C105.365 10.6203 105.556 10.5562 105.652 10.492C105.748 10.4278 105.812 10.2995 105.812 10.139C105.812 9.97862 105.748 9.88236 105.62 9.7861C105.492 9.68984 105.301 9.65776 105.077 9.65776C104.79 9.65776 104.598 9.72193 104.502 9.85027C104.374 9.97861 104.311 10.139 104.279 10.3316H103.193C103.193 10.107 103.225 9.88236 103.32 9.68984C103.384 9.49733 103.512 9.3369 103.672 9.17648C103.831 9.04813 104.023 8.91979 104.279 8.85562C104.534 8.79145 104.822 8.72728 105.173 8.72728C105.524 8.72728 105.812 8.75936 106.067 8.85562C106.323 8.95188 106.514 9.04813 106.674 9.20856C106.834 9.36899 106.93 9.52942 106.993 9.75402C107.057 9.97862 107.089 10.2353 107.089 10.5241V13.3797H105.876V13.4118ZM106.61 7.25134C106.514 7.5722 106.355 7.7968 106.195 7.95722C106.035 8.11765 105.812 8.14974 105.62 8.14974C105.492 8.14974 105.396 8.11765 105.301 8.08556C105.205 8.05348 105.109 7.98931 105.013 7.95722C104.917 7.89305 104.822 7.86097 104.726 7.82888C104.63 7.7968 104.534 7.76471 104.438 7.76471C104.406 7.76471 104.343 7.7968 104.279 7.82888C104.215 7.89306 104.151 7.98931 104.087 8.14974L103.448 7.7968C103.544 7.50803 103.672 7.28343 103.831 7.15509C103.991 7.02674 104.151 6.96257 104.343 6.96257C104.47 6.96257 104.598 6.99466 104.726 7.02675C104.854 7.05883 104.949 7.123 105.045 7.18717C105.141 7.25134 105.237 7.28343 105.333 7.3476C105.428 7.37969 105.492 7.41177 105.588 7.41177C105.652 7.41177 105.716 7.37968 105.78 7.31551C105.844 7.25134 105.907 7.15509 105.939 6.99466L106.61 7.25134ZM105.78 11.1979C105.716 11.262 105.62 11.2941 105.524 11.3583C105.396 11.3904 105.237 11.4225 105.013 11.4866C104.662 11.5508 104.438 11.6471 104.311 11.7433C104.183 11.8396 104.119 12 104.119 12.1925C104.119 12.5134 104.311 12.7059 104.694 12.7059C104.854 12.7059 104.981 12.6738 105.109 12.6417C105.237 12.5775 105.365 12.5134 105.46 12.4171C105.556 12.3209 105.62 12.2246 105.684 12.0963C105.748 11.9679 105.78 11.8396 105.78 11.7112V11.1979Z" fill="black"/>
<path d="M107.504 8.37433V7.28342H108.686V8.37433H107.504ZM107.504 13.4118V8.91978H108.686V13.4118H107.504Z" fill="black"/>
<path d="M116.671 13.4118V10.6845C116.671 10.3957 116.607 10.2032 116.479 10.0107C116.351 9.85027 116.192 9.75402 115.968 9.75402C115.744 9.75402 115.585 9.85027 115.425 10.0428C115.297 10.2353 115.202 10.4599 115.202 10.7166V13.4118H114.02V10.7166C114.02 10.5241 114.02 10.3957 113.988 10.2674C113.956 10.139 113.924 10.0749 113.86 9.97861C113.796 9.88236 113.732 9.85027 113.637 9.85027C113.541 9.81818 113.445 9.81819 113.317 9.81819C112.838 9.81819 112.583 10.107 112.583 10.6845V13.4118H111.401V8.91979H112.519V9.59359C112.678 9.30482 112.838 9.08022 113.062 8.98396C113.285 8.8877 113.541 8.82353 113.828 8.82353C113.988 8.82353 114.116 8.82353 114.243 8.85562C114.371 8.88771 114.467 8.91979 114.563 8.98396C114.659 9.04813 114.754 9.1123 114.818 9.20856C114.914 9.30481 114.978 9.40107 115.074 9.52941C115.202 9.27273 115.361 9.1123 115.553 8.98396C115.744 8.85562 116 8.82353 116.287 8.82353C116.511 8.82353 116.703 8.85562 116.894 8.95188C117.086 9.01605 117.246 9.14439 117.373 9.27273C117.501 9.40108 117.597 9.5615 117.693 9.75402C117.757 9.94653 117.82 10.139 117.82 10.3316V13.4439H116.671V13.4118Z" fill="black"/>
<path d="M120.503 13.5401C120.152 13.5401 119.801 13.4759 119.545 13.3797C119.29 13.2834 119.034 13.0909 118.811 12.8984C118.619 12.7059 118.459 12.4492 118.363 12.1604C118.268 11.8717 118.204 11.5508 118.204 11.1979C118.204 10.8449 118.268 10.5241 118.363 10.2353C118.459 9.94653 118.619 9.68984 118.811 9.49733C119.002 9.30481 119.258 9.14439 119.545 9.01604C119.833 8.8877 120.152 8.85562 120.503 8.85562C120.855 8.85562 121.174 8.91979 121.461 9.01604C121.749 9.14439 121.972 9.27273 122.164 9.49733C122.356 9.72193 122.515 9.94653 122.611 10.2353C122.707 10.5241 122.771 10.8449 122.771 11.1979C122.771 11.5508 122.707 11.8717 122.611 12.1604C122.515 12.4492 122.356 12.7059 122.164 12.8984C121.972 13.0909 121.717 13.2513 121.43 13.3797C121.142 13.4759 120.823 13.5401 120.503 13.5401ZM121.43 8.34224L120.503 7.70053L119.577 8.34224L119.258 8.05348L120.12 7.31551H120.855L121.717 8.05348L121.43 8.34224ZM121.685 6.70588C121.621 6.93048 121.525 7.05882 121.398 7.15508C121.27 7.25134 121.11 7.28342 120.982 7.28342C120.918 7.28342 120.823 7.28342 120.759 7.25134C120.663 7.21925 120.599 7.21925 120.503 7.18717C120.407 7.15508 120.344 7.15508 120.28 7.12299C120.216 7.09091 120.152 7.09091 120.088 7.09091C119.992 7.09091 119.896 7.18716 119.833 7.37968L119.385 7.18717C119.449 6.99465 119.513 6.83422 119.641 6.73797C119.769 6.64171 119.896 6.60963 120.024 6.60963C120.12 6.60963 120.216 6.60962 120.312 6.64171C120.407 6.67379 120.471 6.6738 120.567 6.70588C120.631 6.73797 120.727 6.77005 120.791 6.77005C120.855 6.77005 120.918 6.80214 121.014 6.80214C121.078 6.80214 121.142 6.77005 121.174 6.73797C121.206 6.70588 121.238 6.64171 121.27 6.54546L121.685 6.70588ZM120.503 12.5455C121.238 12.5455 121.589 12.0963 121.589 11.1658C121.589 10.2674 121.238 9.81818 120.503 9.81818C119.769 9.81818 119.417 10.2674 119.417 11.1658C119.417 12.0963 119.769 12.5455 120.503 12.5455Z" fill="black"/>
<path d="M123.218 8.37433V7.28342H124.4V8.37433H123.218ZM123.218 13.4118V8.91978H124.4V13.4118H123.218Z" fill="black"/>
<path d="M129.989 13.4118V10.6845C129.989 10.3315 129.925 10.1069 129.829 9.97861C129.702 9.85027 129.51 9.78609 129.222 9.78609C128.616 9.78609 128.296 10.139 128.296 10.8128V13.3797H127.115V8.8877H128.232V9.56149C128.36 9.30481 128.552 9.1123 128.775 8.98395C128.999 8.85561 129.318 8.79144 129.67 8.79144C129.893 8.79144 130.085 8.82352 130.276 8.8877C130.468 8.95187 130.628 9.04813 130.755 9.17647C130.883 9.30481 130.979 9.46524 131.075 9.65775C131.139 9.85027 131.203 10.0428 131.203 10.2995V13.4118H129.989Z" fill="black"/>
<path d="M134.844 12.8021C134.748 12.9947 134.62 13.1551 134.396 13.2834C134.173 13.4118 133.917 13.4438 133.63 13.4438C133.247 13.4438 132.959 13.3797 132.704 13.2513C132.448 13.123 132.257 12.9626 132.097 12.738C131.937 12.5134 131.841 12.2888 131.746 12C131.682 11.7112 131.65 11.4225 131.65 11.1337C131.65 10.7807 131.714 10.4599 131.809 10.1711C131.905 9.88235 132.065 9.62567 132.225 9.43315C132.384 9.24064 132.608 9.08021 132.832 8.95187C133.055 8.82353 133.311 8.79144 133.598 8.79144C134.141 8.79144 134.588 9.01604 134.844 9.46524V8.91978H136.025V13.4759C136.025 13.8289 135.961 14.1176 135.866 14.3743C135.738 14.631 135.578 14.8556 135.387 15.016C135.195 15.1765 134.939 15.3369 134.684 15.4011C134.396 15.4973 134.109 15.5294 133.822 15.5294C133.534 15.5294 133.215 15.4973 132.959 15.4011C132.704 15.3048 132.448 15.1765 132.257 15.016C132.065 14.8556 131.905 14.6631 131.809 14.4385C131.714 14.2139 131.65 13.9572 131.65 13.6364H132.736C132.736 13.9251 132.832 14.1176 132.991 14.2781C133.183 14.4385 133.406 14.5027 133.694 14.5027C134.013 14.5027 134.269 14.4064 134.492 14.246C134.716 14.0856 134.812 13.8289 134.812 13.5401V12.8021H134.844ZM133.854 12.5134C134.141 12.5134 134.396 12.4171 134.588 12.1925C134.78 11.9679 134.876 11.6791 134.876 11.2941C134.876 10.3315 134.524 9.85026 133.854 9.85026C133.183 9.85026 132.832 10.2995 132.832 11.2299C132.832 11.6471 132.927 11.9679 133.119 12.1925C133.343 12.385 133.566 12.5134 133.854 12.5134Z" fill="black"/>
<path d="M139.347 13.4118C139.315 13.2834 139.283 13.1551 139.283 12.9947C139.155 13.1551 138.964 13.2834 138.74 13.3797C138.517 13.4759 138.229 13.508 137.942 13.508C137.431 13.508 137.047 13.3797 136.824 13.1551C136.568 12.9305 136.472 12.6417 136.472 12.2567C136.472 11.9358 136.536 11.6792 136.632 11.4866C136.728 11.2941 136.888 11.1337 137.047 11.0374C137.239 10.9412 137.431 10.8449 137.686 10.7808C137.942 10.7166 138.197 10.6845 138.517 10.6524C138.836 10.6203 139.028 10.5562 139.123 10.492C139.219 10.4278 139.283 10.2995 139.283 10.139C139.283 9.97862 139.219 9.88236 139.091 9.7861C138.964 9.68985 138.772 9.65776 138.548 9.65776C138.261 9.65776 138.069 9.72193 137.974 9.85027C137.846 9.97862 137.782 10.139 137.75 10.3316H136.664C136.664 10.107 136.696 9.88236 136.792 9.68985C136.856 9.49733 136.983 9.33691 137.143 9.17648C137.303 9.04814 137.494 8.9198 137.75 8.85562C138.006 8.79145 138.293 8.72728 138.644 8.72728C138.996 8.72728 139.283 8.75937 139.539 8.85562C139.794 8.95188 139.986 9.04814 140.145 9.20856C140.305 9.36899 140.401 9.52942 140.465 9.75402C140.529 9.97862 140.561 10.2353 140.561 10.5241V13.3797H139.347V13.4118ZM137.079 7.47594L137.494 6.73798L139.379 7.82889L139.091 8.34225L137.079 7.47594ZM139.251 11.1979C139.187 11.262 139.091 11.2941 138.996 11.3583C138.868 11.3904 138.708 11.4225 138.485 11.4866C138.133 11.5508 137.91 11.6471 137.782 11.7433C137.654 11.8396 137.59 12 137.59 12.1925C137.59 12.5134 137.782 12.7059 138.165 12.7059C138.325 12.7059 138.453 12.6738 138.58 12.6417C138.708 12.5776 138.836 12.5134 138.932 12.4171C139.028 12.3209 139.091 12.2246 139.155 12.0963C139.219 11.9679 139.251 11.8396 139.251 11.7112V11.1979Z" fill="black"/>
<path d="M143.818 12.8342C143.722 13.0267 143.595 13.1872 143.371 13.3155C143.148 13.4438 142.892 13.4759 142.605 13.4759C142.381 13.4759 142.158 13.4438 141.934 13.3476C141.71 13.2513 141.551 13.1551 141.423 13.0267C141.295 12.8984 141.167 12.7059 141.072 12.5134C140.976 12.3209 140.944 12.0963 140.944 11.8396V8.91978H142.126V11.6471C142.126 12.1925 142.381 12.4813 142.892 12.4813C143.18 12.4813 143.371 12.4171 143.563 12.2567C143.722 12.0963 143.818 11.9037 143.818 11.6471V8.91978H145V13.5401C145 13.861 144.936 14.1497 144.84 14.4064C144.745 14.6631 144.585 14.8556 144.393 15.0481C144.202 15.2086 143.978 15.3369 143.722 15.4332C143.467 15.5294 143.211 15.5615 142.924 15.5615C142.253 15.5615 141.774 15.4011 141.455 15.0481C141.135 14.7273 140.976 14.246 140.976 13.6684H142.062C142.062 13.9251 142.126 14.1497 142.285 14.3102C142.445 14.4706 142.669 14.5348 142.988 14.5348C143.084 14.5348 143.211 14.5027 143.307 14.4706C143.403 14.4385 143.499 14.3743 143.563 14.2781C143.627 14.1818 143.691 14.0856 143.754 13.9572C143.786 13.8289 143.818 13.7005 143.818 13.5401V12.8342Z" fill="black"/>
</svg>
