<svg width="24" height="24" viewBox="0 0 24 24" fill="none" xmlns="http://www.w3.org/2000/svg">
<path d="M12 23.25C18.2132 23.25 23.25 18.2132 23.25 12C23.25 5.7868 18.2132 0.75 12 0.75C5.7868 0.75 0.75 5.7868 0.75 12C0.75 18.2132 5.7868 23.25 12 23.25Z" fill="#00BF00"/>
<path d="M12 22.0781C17.566 22.0781 22.0781 17.566 22.0781 12C22.0781 6.43401 17.566 1.92188 12 1.92188C6.43401 1.92188 1.92188 6.43401 1.92188 12C1.92188 17.566 6.43401 22.0781 12 22.0781Z" fill="white"/>
<path d="M10.5156 9.03237H20.3957C19.1734 5.5744 15.8761 3.09668 11.9995 3.09668C11.4939 3.09668 10.9983 3.13948 10.5156 3.22048V9.03237Z" fill="#00BF00"/>
<path d="M10.5156 14.9682H20.3957C20.7239 14.0398 20.903 13.0411 20.903 12.0003C20.903 10.9595 20.7239 9.96083 20.3957 9.03247H10.5156V14.9682Z" fill="#F8FAFC"/>
<path d="M20.3957 14.968H10.5156V20.7799C10.9983 20.8609 11.4939 20.9037 11.9995 20.9037C15.8761 20.9037 19.1734 18.4259 20.3957 14.968Z" fill="black"/>
<path d="M10.5158 20.7798V14.968V9.03235V3.22046C6.30493 3.92701 3.09619 7.58855 3.09619 12.0001C3.09619 16.4117 6.30497 20.0733 10.5158 20.7798V20.7798Z" fill="#EF0000"/>
</svg>
