<svg width="19" height="19" viewBox="0 0 19 19" fill="none" xmlns="http://www.w3.org/2000/svg">
<path d="M14.2493 0.00395327L11.7854 0C9.01736 0 7.2285 1.8353 7.2285 4.67593V6.83184H4.75119C4.53712 6.83184 4.36377 7.00539 4.36377 7.21946V10.3431C4.36377 10.5572 4.53732 10.7306 4.75119 10.7306H7.2285V18.6126C7.2285 18.8266 7.40185 19 7.61592 19H10.8481C11.0622 19 11.2355 18.8265 11.2355 18.6126V10.7306H14.1321C14.3462 10.7306 14.5195 10.5572 14.5195 10.3431L14.5207 7.21946C14.5207 7.11667 14.4798 7.01824 14.4072 6.9455C14.3347 6.87276 14.2359 6.83184 14.1331 6.83184H11.2355V5.00424C11.2355 4.12583 11.4449 3.6799 12.5891 3.6799L14.2489 3.67931C14.4628 3.67931 14.6361 3.50576 14.6361 3.29189V0.391374C14.6361 0.177699 14.463 0.00434859 14.2493 0.00395327Z" fill="white"/>
</svg>
