<svg width="141" height="65" viewBox="0 0 141 65" fill="none" xmlns="http://www.w3.org/2000/svg">
<path d="M50.3135 3.20907C50.3135 2.70152 50.6737 2.16121 51.2304 2.19396C54.5213 2.16121 57.7959 2.19396 61.0868 2.17759C61.9382 2.19396 62.7896 2.12847 63.6409 2.25945C63.9848 2.22671 64.3286 2.16121 64.6888 2.17759C68.4545 2.19396 72.2203 2.16121 75.986 2.19396C76.5263 2.34132 77.0666 2.16121 77.6233 2.17759C81.4054 2.19396 85.1712 2.16121 88.9533 2.19396C89.51 2.16121 89.8702 2.71789 89.8702 3.22545C89.8702 7.04031 89.8702 10.8552 89.8702 14.67C89.8702 14.9647 89.7883 15.2595 89.7228 15.5542C89.8047 15.7834 89.8865 16.029 89.8702 16.2746C89.8702 20.0567 89.8702 23.8224 89.8702 27.6045C89.8702 27.8829 89.7883 28.1448 89.7392 28.4068C89.8047 28.6688 89.8702 28.9307 89.8702 29.2091C89.8702 32.8111 89.8702 36.4295 89.8702 40.0315C89.8702 40.4899 89.9193 40.9975 89.6409 41.4068C89.4117 41.7343 88.9533 41.7506 88.5931 41.7506C84.8273 41.7506 81.0616 41.7506 77.2795 41.7506C77.0339 41.7506 76.7883 41.6851 76.5427 41.636C76.248 41.7179 75.9533 41.767 75.6422 41.7506C71.7946 41.7343 67.9306 41.767 64.083 41.7343C63.4608 41.7343 63.1498 41.0793 63.1825 40.539C63.1989 36.6259 63.1498 32.7129 63.2152 28.7998C59.3185 28.8161 55.4382 28.7998 51.5578 28.8161C51.1976 28.7998 50.7392 28.7998 50.51 28.4723C50.248 28.063 50.2971 27.5554 50.2971 27.097C50.2971 23.495 50.2971 19.9093 50.2971 16.3073C50.2807 16.0453 50.3626 15.7998 50.4445 15.5542C50.379 15.2595 50.2971 14.9647 50.2971 14.67C50.3135 10.8388 50.2971 7.02393 50.3135 3.20907ZM51.1158 2.99623C51.1158 7.04031 51.1158 11.068 51.1158 15.1121C55.1598 15.1121 59.1875 15.1121 63.2316 15.1121C63.2316 11.068 63.2316 7.04031 63.2316 2.99623C59.2039 2.99623 55.1598 2.97985 51.1158 2.99623ZM64.0175 2.97985C64.0175 7.02394 64.0175 11.0516 64.0175 15.0957C68.0616 15.0957 72.0893 15.0957 76.1334 15.0957C76.1334 11.0516 76.1334 7.02394 76.1334 2.97985C72.0893 2.97985 68.0616 2.97985 64.0175 2.97985ZM76.9193 2.97985C76.9193 7.02394 76.9193 11.0516 76.9193 15.0957C80.9634 15.0957 84.9911 15.0957 89.0351 15.0957C89.0351 11.0516 89.0351 7.02394 89.0351 2.97985C84.9911 2.97985 80.947 2.97985 76.9193 2.97985ZM51.1158 15.9144C51.1321 19.9421 51.083 23.9698 51.1485 28.0139C55.1762 27.9811 59.2039 28.0139 63.2316 27.9975C63.2316 23.9698 63.2316 19.9421 63.2316 15.9144C59.2039 15.9144 55.1598 15.9144 51.1158 15.9144ZM64.0175 15.9144C64.0175 19.9421 64.0175 23.9698 64.0175 27.9975C68.0616 27.9975 72.0893 27.9975 76.1334 27.9975C76.1334 23.9698 76.1334 19.9421 76.1334 15.9144C72.0893 15.9144 68.0616 15.9144 64.0175 15.9144ZM76.9193 15.9144C76.9193 19.9421 76.9193 23.9698 76.9193 27.9975C80.9634 27.9975 84.9911 27.9975 89.0351 27.9975C89.0351 23.9698 89.0351 19.9421 89.0351 15.9144C84.9911 15.9144 80.947 15.9144 76.9193 15.9144ZM64.0175 28.8161C64.0175 32.8602 64.0175 36.8879 64.0175 40.932C68.0616 40.932 72.0893 40.932 76.1334 40.932C76.1334 36.8879 76.1334 32.8602 76.1334 28.8161C72.0893 28.8161 68.0616 28.8161 64.0175 28.8161ZM76.9193 28.8161C76.9193 32.8602 76.9193 36.8879 76.9193 40.932C80.9634 40.932 84.9911 40.932 89.0351 40.932C89.0351 36.8879 89.0351 32.8602 89.0351 28.8161C84.9911 28.8161 80.947 28.8161 76.9193 28.8161Z" fill="white"/>
<path d="M60.055 52.4257C61.5122 51.3287 63.3951 51.0013 65.1797 50.9521C66.948 51.0013 68.7981 51.3451 70.2225 52.4421C71.4014 53.2935 72.1054 54.7015 72.3183 56.126C72.3019 56.5516 72.0236 57.0428 71.5487 57.0756C70.7792 57.1411 70.0097 57.0919 69.2565 57.1083C68.6835 57.0919 68.0777 57.1738 67.521 56.9937C67.0298 56.699 67.1117 56.0441 66.7515 55.6348C66.244 54.9307 65.278 54.9635 64.5084 55.0617C63.7717 55.1763 63.215 55.8149 63.1331 56.5516C63.084 57.272 63.0185 58.1071 63.5097 58.7129C63.9518 59.3187 64.7868 59.4005 65.4908 59.3514C66.0311 59.335 66.6205 59.0894 66.8661 58.5655C67.1117 58.1562 67.1117 57.5176 67.652 57.3703C68.3888 57.1574 69.1583 57.3212 69.9278 57.272C70.7137 57.3212 71.6961 57.0428 72.2691 57.7632C73.186 55.733 74.1193 53.7355 75.0525 51.7217C75.2162 51.3123 75.6911 51.165 76.1004 51.1814C77.2628 51.1814 78.4253 51.1814 79.6042 51.1814C80.0135 51.165 80.4883 51.3123 80.652 51.738C81.6671 53.932 82.6822 56.126 83.6974 58.3199C83.9921 59.0076 84.3686 59.6789 84.5815 60.3993C84.4505 57.665 84.5651 54.9144 84.5324 52.1801C84.4669 51.5907 85.0072 51.1814 85.5475 51.1814C87.9707 51.165 90.4102 51.165 92.8334 51.1814C94.5198 51.2141 96.3699 51.7872 97.254 53.3426C97.3032 52.704 97.0903 51.9673 97.516 51.427C98.089 50.9849 98.8749 51.2305 99.5462 51.165C100.43 51.2305 101.396 50.9849 102.215 51.427C102.493 51.2632 102.788 51.1322 103.115 51.165C106.75 51.165 110.401 51.1486 114.036 51.1814C114.527 51.1814 114.937 51.5743 114.92 52.0819C114.92 52.9005 114.969 53.7192 114.904 54.5214C114.871 54.9635 114.445 55.2582 114.02 55.2582C113.005 55.2746 112.006 55.2582 111.007 55.2582C111.007 57.5176 111.007 59.7607 111.007 62.0202C111.024 62.4295 110.86 62.9043 110.451 63.0844C109.992 63.2317 109.517 63.1499 109.059 63.1663C108.24 63.1499 107.422 63.2154 106.603 63.1335C106.095 63.1008 105.866 62.5605 105.866 62.1184C105.866 59.8426 105.866 57.5504 105.866 55.2746C104.736 55.2254 103.59 55.3728 102.461 55.1763C102.493 57.4522 102.461 59.7116 102.477 61.971C102.51 62.4622 102.264 63.0844 101.707 63.1335C100.823 63.199 99.9555 63.1499 99.0714 63.1663C98.6621 63.1499 98.2364 63.2154 97.8271 63.0844C97.4014 62.9207 97.2377 62.4295 97.2704 62.0202C97.2704 60.5957 97.2704 59.1713 97.2704 57.7632C96.7628 58.7129 95.7969 59.335 94.7817 59.6297C93.1281 60.1209 91.3762 59.9572 89.6734 59.9572C89.6898 60.6776 89.6898 61.398 89.6898 62.1184C89.7062 62.626 89.3296 63.1826 88.7729 63.1499C87.5122 63.1499 86.2515 63.2154 85.0072 63.1008C83.9102 63.2317 82.8132 63.1335 81.7162 63.1663C81.2578 63.1499 80.7011 63.2317 80.3573 62.8552C80.0953 62.4622 79.9644 62.0038 79.7679 61.5781C78.4744 61.5781 77.1974 61.5781 75.9039 61.5781C75.6747 62.0857 75.5765 62.7406 75.1016 63.068C74.4795 63.2645 73.8246 63.1499 73.2024 63.1663C72.4492 63.1499 71.6961 63.2154 70.9429 63.1335C70.5009 63.0517 70.3535 62.5605 70.2389 62.1839C70.3044 62.0693 70.4354 61.8564 70.5009 61.7418C68.8963 63.068 66.7188 63.461 64.6885 63.3791C62.822 63.3136 60.8737 62.7733 59.4984 61.4471C58.0576 59.9736 57.6319 57.7305 58.0576 55.7494C58.2704 54.4396 58.9908 53.2116 60.055 52.4257ZM60.5462 53.0806C59.5311 53.8174 58.9089 55.0126 58.7616 56.2406C58.5324 57.8287 58.8434 59.5806 59.9732 60.7758C61.021 61.8728 62.5601 62.364 64.0336 62.5113C66.0147 62.6751 68.1759 62.4786 69.7968 61.2179C70.7792 60.4647 71.3359 59.3023 71.5324 58.1071C70.3208 58.0907 69.1256 58.0907 67.914 58.0907C67.7502 58.5655 67.5702 59.0731 67.2099 59.4496C66.4077 60.2355 65.147 60.301 64.1155 60.0391C63.1659 59.8098 62.4782 58.9584 62.3309 58.0252C62.1671 56.9773 62.249 55.7658 63.0185 54.9471C63.9026 54.1121 65.2616 54.0302 66.3749 54.3904C67.2099 54.6688 67.6848 55.4874 67.8976 56.2897C69.1092 56.2897 70.3044 56.2897 71.516 56.2897C71.3359 55.0617 70.7465 53.8665 69.7314 53.1134C68.4379 52.1146 66.7351 51.8199 65.1306 51.7872C63.5588 51.8035 61.856 52.0982 60.5462 53.0806ZM75.8057 51.9836C74.2175 55.4383 72.613 58.8766 71.0248 62.3312C72.2528 62.3312 73.4807 62.3312 74.7087 62.3312C74.9379 61.8073 75.1508 61.267 75.3636 60.7267C77.0009 60.7267 78.6545 60.7267 80.2918 60.7267C80.5047 61.267 80.7339 61.7909 80.9631 62.3312C82.1911 62.3149 83.419 62.3312 84.647 62.3312C83.0588 58.8766 81.4543 55.4383 79.8661 51.9836C78.5072 51.9836 77.1482 51.9836 75.8057 51.9836ZM85.3346 51.9836C85.3346 55.4383 85.3346 58.893 85.3346 62.3312C86.5135 62.3312 87.6759 62.3312 88.8548 62.3312C88.8548 61.267 88.8548 60.2028 88.8548 59.1386C90.9014 59.0403 93.079 59.4333 95.0437 58.6474C97.1558 57.8451 97.5487 54.8161 96.1734 53.2116C95.3057 52.2456 93.9304 52 92.686 51.9836C90.2465 51.9836 87.7906 51.9836 85.3346 51.9836ZM98.0727 51.9836C98.0727 55.4383 98.0727 58.893 98.0727 62.3312C99.2515 62.3312 100.447 62.3312 101.642 62.3312C101.642 58.8766 101.642 55.4219 101.642 51.9836C100.447 51.9836 99.2515 51.9836 98.0727 51.9836ZM102.788 51.9836C102.788 52.8023 102.788 53.6209 102.788 54.4396C104.081 54.4396 105.375 54.4396 106.685 54.4396C106.685 57.0756 106.685 59.7116 106.685 62.3312C107.864 62.3312 109.026 62.3312 110.205 62.3312C110.205 59.6952 110.205 57.0592 110.205 54.4396C111.515 54.4396 112.825 54.4396 114.134 54.4396C114.134 53.6209 114.134 52.8023 114.134 51.9836C110.336 51.9836 106.554 51.9836 102.788 51.9836Z" fill="white"/>
<path d="M2.47224 51.6725C2.70146 51.296 3.1599 51.165 3.56922 51.165C4.58433 51.1814 5.59945 51.1486 6.61456 51.1814C7.10575 51.1814 7.56418 51.5907 7.56418 52.0982C7.58056 53.0806 7.58056 54.0793 7.56418 55.0617C8.71028 55.029 9.87275 55.0453 11.0188 55.0453C11.0188 54.0466 11.0025 53.0479 11.0188 52.0491C11.0188 51.5088 11.5428 51.1814 12.034 51.165C13.0491 51.1486 14.0806 51.165 15.112 51.1486C15.5214 51.1322 15.9962 51.296 16.1108 51.7217C16.2418 51.2796 16.733 51.1322 17.1586 51.1486C20.4005 51.1486 23.6259 51.1486 26.8513 51.1486C27.277 51.1486 27.7191 51.3942 27.7846 51.8363C27.8828 52.5894 27.801 53.3589 27.8337 54.1285C27.8665 54.6033 27.6372 55.1436 27.1133 55.1927C27.6209 55.864 27.3589 56.7645 27.4244 57.534C27.3916 58.0579 27.5063 58.8275 26.8022 58.9912H21.039C22.6435 59.0403 25.869 59.1222 27.4899 59.1713C27.7846 59.3514 27.9483 59.6625 27.9319 60.0063C28.0138 59.6625 28.1612 59.335 28.3249 59.0076C29.4546 56.5844 30.568 54.1448 31.6977 51.7053C31.845 51.2796 32.3199 51.1322 32.7292 51.1322C33.8916 51.1322 35.0541 51.1322 36.233 51.1322C36.6914 51.0995 37.1826 51.3123 37.3463 51.7708C38.5579 54.3904 39.7695 57.0101 40.9811 59.6297C41.0629 59.8426 41.1448 60.0554 41.2103 60.2683C41.1448 57.5667 41.1939 54.8489 41.1775 52.1474C41.1284 51.5907 41.636 51.165 42.1599 51.1486C43.9282 51.1322 45.7128 51.1486 47.4811 51.1486C49.3967 51.1814 51.4597 51.4106 52.9987 52.6549C54.2921 53.7028 54.8324 55.4219 54.8324 57.0428C54.8652 58.6474 54.4231 60.3665 53.1952 61.4798C51.9181 62.6751 50.1171 63.0025 48.4307 63.1335C45.4345 63.199 42.4382 63.1008 39.442 63.1499C38.7052 63.1171 37.9357 63.2481 37.2153 63.0353C36.7241 62.7078 36.6586 62.0529 36.4294 61.5453C35.136 61.5617 33.8589 61.5453 32.5654 61.5453C32.2871 62.1511 32.1398 63.1335 31.2884 63.1335C26.5894 63.1499 21.8904 63.1335 17.1914 63.1499C16.7821 63.1662 16.3564 63.068 16.078 62.7406C16.0944 62.6587 16.1272 62.5113 16.1435 62.4295C16.0289 62.8224 15.7015 63.1662 15.2594 63.1499C14.146 63.1662 13.0327 63.1662 11.903 63.1499C11.3463 63.1826 10.9861 62.6259 10.9861 62.1184C10.9861 61.1688 10.9697 60.2191 10.9861 59.2695C9.84 59.2695 8.67753 59.2859 7.53144 59.2531C7.51506 60.3174 7.58056 61.3816 7.49869 62.4295C7.48232 62.9206 6.99114 63.1662 6.54907 63.1499C5.3866 63.1499 4.22413 63.199 3.07804 63.1171C2.57048 63.0844 2.34126 62.5441 2.34126 62.102C2.32489 58.8929 2.34126 55.6675 2.34126 52.4584C2.37401 52.1965 2.37401 51.9181 2.47224 51.6725ZM3.19265 51.9836C3.19265 55.4383 3.19265 58.8929 3.19265 62.3312C4.37149 62.3312 5.5667 62.3312 6.76192 62.3312C6.76192 61.0378 6.76192 59.7443 6.76192 58.4345C8.44831 58.4345 10.1511 58.4345 11.8375 58.4345C11.8375 59.728 11.8375 61.0214 11.8375 62.3312C13.0163 62.3312 14.2115 62.3312 15.4068 62.3312C15.4068 58.8766 15.4068 55.4219 15.4068 51.9836C14.2279 51.9836 13.0327 51.9836 11.8375 51.9836C11.8375 53.2771 11.8375 54.5705 11.8375 55.864C10.1511 55.864 8.44831 55.864 6.76192 55.864C6.76192 54.5705 6.76192 53.2771 6.76192 51.9673C5.5667 51.9836 4.38786 51.9836 3.19265 51.9836ZM16.8312 51.9836C16.8312 55.4383 16.8312 58.8929 16.8312 62.3312C20.2858 62.3312 23.7405 62.3312 27.1788 62.3312C27.1788 61.529 27.1788 60.7267 27.1788 59.9081C24.903 59.9081 22.6272 59.9081 20.3513 59.9081C20.3513 59.3514 20.3513 58.7947 20.3513 58.238C22.4471 58.238 24.5264 58.238 26.6057 58.238C26.6057 57.4358 26.6057 56.6335 26.6057 55.8149C24.51 55.8149 22.4307 55.8149 20.3513 55.8149C20.3513 55.3564 20.3513 54.8816 20.3513 54.4232C22.578 54.4232 24.8047 54.4232 27.0314 54.4232C27.0314 53.6045 27.0314 52.7859 27.0314 51.9673C23.6095 51.9836 20.2204 51.9836 16.8312 51.9836ZM32.4672 51.9836C30.879 55.4383 29.2909 58.8929 27.6864 62.3312C28.9143 62.3312 30.1423 62.3312 31.3702 62.3312C31.5995 61.8073 31.7959 61.267 32.0251 60.7267C33.6624 60.7267 35.2997 60.7267 36.9534 60.7267C37.1826 61.2506 37.3954 61.7909 37.6083 62.3312C38.8362 62.3312 40.0806 62.3312 41.3085 62.3312C39.7204 58.8766 38.1158 55.4383 36.5277 51.9836C35.1851 51.9836 33.8262 51.9836 32.4672 51.9836ZM41.9962 51.9836C41.9962 55.4383 41.9962 58.8929 41.9962 62.3312C43.5516 62.3312 45.107 62.3312 46.6624 62.3312C48.4962 62.3476 50.4773 62.3312 52.0982 61.3325C53.3425 60.5957 53.9647 59.1385 54.0302 57.7469C54.1284 56.2406 53.8665 54.5542 52.704 53.4899C51.4105 52.262 49.5277 52.0491 47.8249 52C45.8765 51.9673 43.9282 51.9836 41.9962 51.9836Z" fill="white"/>
<path d="M116.394 51.8035C116.541 51.4106 116.934 51.165 117.343 51.165C118.506 51.1486 119.668 51.165 120.847 51.1486C121.306 51.1322 121.879 51.2305 122.042 51.7217C123.336 54.4887 124.597 57.272 125.906 60.039C125.923 57.4521 125.906 54.8489 125.906 52.262C125.874 51.8199 126.087 51.2796 126.578 51.1977C127.38 51.0831 128.199 51.1814 129.017 51.1486C129.59 51.1814 130.245 51.0176 130.736 51.3942C131.064 51.6234 131.064 52.0819 131.064 52.4421C131.047 54.6688 131.08 56.8791 131.047 59.0894C132.93 59.0567 134.813 59.073 136.696 59.073C137.138 59.073 137.695 59.2695 137.728 59.7934C137.842 60.5793 137.777 61.398 137.777 62.1839C137.777 62.7569 137.286 63.1826 136.729 63.1171C133.176 63.1007 129.623 63.1498 126.087 63.0844C124.875 63.1662 123.663 63.1171 122.452 63.1171C121.6 63.1171 121.469 62.1347 121.175 61.5289C119.881 61.5289 118.604 61.5289 117.311 61.5289C117.081 62.0365 117.016 62.675 116.525 63.0189C115.804 63.2317 115.035 63.1007 114.298 63.1335C113.594 63.1007 112.89 63.2153 112.202 63.0516C111.711 62.9206 111.547 62.2821 111.76 61.8728C113.283 58.5327 114.838 55.1763 116.394 51.8035ZM117.196 51.9836C115.608 55.4383 114.003 58.8766 112.415 62.3312C113.643 62.3312 114.871 62.3312 116.115 62.3312C116.328 61.7909 116.541 61.267 116.77 60.7267C118.408 60.7267 120.045 60.7267 121.699 60.7267C121.928 61.2506 122.141 61.7909 122.37 62.3312C123.598 62.3312 124.842 62.3312 126.07 62.3312C124.466 58.8766 122.861 55.4383 121.273 51.9836C119.914 51.9836 118.555 51.9836 117.196 51.9836ZM126.725 51.9836C126.725 55.4383 126.725 58.8929 126.725 62.3312C130.131 62.3312 133.553 62.3312 136.958 62.3312C136.958 61.5289 136.958 60.7267 136.958 59.908C134.715 59.908 132.488 59.908 130.245 59.908C130.245 57.2557 130.245 54.6196 130.245 51.9672C129.066 51.9836 127.904 51.9836 126.725 51.9836Z" fill="white"/>
<path d="M45.5161 54.4395C46.6458 54.4723 47.8247 54.3249 48.9217 54.636C49.5766 54.8161 50.1169 55.34 50.3133 55.995C50.5426 56.8136 50.5426 57.7141 50.2642 58.5164C50.0514 59.1222 49.5111 59.5806 48.8889 59.7443C47.7919 60.039 46.6458 59.908 45.5161 59.9244C45.5161 58.0907 45.5161 56.2733 45.5161 54.4395ZM46.3348 55.2582C46.3348 56.5353 46.3348 57.8287 46.3348 59.1058C47.1698 59.0894 48.0539 59.1876 48.8562 58.8929C49.4456 58.6637 49.6584 57.9924 49.6584 57.4194C49.6748 56.7645 49.6748 55.8803 49.0035 55.5201C48.1685 55.1436 47.2189 55.2909 46.3348 55.2582Z" fill="white"/>
<path d="M88.8716 54.4395C89.8703 54.4395 90.8691 54.4395 91.8678 54.4395C92.3099 54.4395 92.8174 54.4559 93.1449 54.7997C93.5051 55.2254 93.4723 55.9295 93.1121 56.3388C92.7847 56.6662 92.3099 56.7317 91.8842 56.7317C90.8854 56.7317 89.8867 56.7317 88.888 56.7317C88.8716 55.9622 88.8716 55.2091 88.8716 54.4395ZM89.6902 55.2582C89.6902 55.471 89.6902 55.7002 89.6902 55.9131C90.6398 55.8476 91.6386 56.0605 92.5718 55.7821C92.5718 55.6511 92.5555 55.4219 92.5391 55.2909C91.5895 55.2254 90.6235 55.2746 89.6902 55.2582Z" fill="white"/>
<path d="M33.0239 58.3199C33.5151 57.1083 34.0063 55.8967 34.4975 54.7015C35.005 55.9131 35.4798 57.1247 35.9874 58.3199C35.005 58.3363 34.0063 58.3199 33.0239 58.3199ZM34.2191 57.534C34.4156 57.5176 34.5957 57.5176 34.7922 57.5176C34.6939 57.272 34.5957 57.0264 34.4975 56.7809C34.4156 57.0264 34.3174 57.2884 34.2191 57.534Z" fill="white"/>
<path d="M77.8363 54.6852C78.3275 55.8967 78.8351 57.1083 79.3263 58.3199C78.3439 58.3199 77.3452 58.3199 76.3628 58.3199C76.8376 57.1083 77.3452 55.9131 77.8363 54.6852ZM77.558 57.5013C77.689 57.5013 77.9673 57.5176 78.0983 57.5176C78.0001 57.2557 77.9182 56.9937 77.8527 56.7154C77.7709 56.9937 77.6726 57.2557 77.558 57.5013Z" fill="white"/>
<path d="M117.753 58.3199C118.261 57.1247 118.736 55.8967 119.243 54.7015C119.735 55.9131 120.242 57.1083 120.733 58.3199C119.735 58.3363 118.736 58.3199 117.753 58.3199ZM119.227 56.7645C119.161 57.0265 119.063 57.272 118.949 57.5013C119.145 57.5013 119.325 57.5176 119.522 57.5176C119.407 57.272 119.309 57.0265 119.227 56.7645Z" fill="white"/>
<path d="M51.1157 2.99623C55.1598 2.97986 59.1875 2.99623 63.2316 2.99623C63.2316 7.04031 63.2316 11.068 63.2316 15.1121C59.1875 15.1121 55.1598 15.1121 51.1157 15.1121C51.1157 11.068 51.1157 7.02394 51.1157 2.99623Z" fill="#FF9900"/>
<path d="M76.9194 2.97986C80.9635 2.97986 84.9912 2.97986 89.0353 2.97986C89.0353 7.02394 89.0353 11.0516 89.0353 15.0957C84.9912 15.0957 80.9635 15.0957 76.9194 15.0957C76.903 11.068 76.9194 7.02394 76.9194 2.97986Z" fill="#FF9900"/>
<path d="M64.0176 15.9144C68.0617 15.9144 72.0894 15.9144 76.1335 15.9144C76.1335 19.9421 76.1335 23.9698 76.1335 27.9975C72.0894 27.9975 68.0617 27.9975 64.0176 27.9975C64.0176 23.9698 64.0176 19.9421 64.0176 15.9144Z" fill="#FF9900"/>
<path d="M76.9189 28.8161C80.963 28.8161 84.9907 28.8161 89.0348 28.8161C89.0348 32.8602 89.0348 36.8879 89.0348 40.932C84.9907 40.932 80.963 40.932 76.9189 40.932C76.9189 36.8879 76.9189 32.8602 76.9189 28.8161Z" fill="#FF9900"/>
<path d="M51.1157 15.9143C55.1598 15.9143 59.1875 15.9143 63.2316 15.9143C63.2316 19.942 63.2316 23.9698 63.2316 27.9975C59.2039 28.0138 55.1762 27.9811 51.1485 28.0138C51.083 23.9861 51.1485 19.9584 51.1157 15.9143Z" fill="#1C315C"/>
<path d="M64.0176 2.9471C68.0617 2.9471 72.0894 2.9471 76.1335 2.9471C76.1335 6.97481 76.1335 11.0025 76.1335 15.0302C72.1058 15.0466 68.078 15.0138 64.0503 15.0466C63.9848 11.0189 64.0503 6.99118 64.0176 2.9471Z" fill="#1C315C"/>
<path d="M76.9521 15.8816C80.9962 15.8816 85.0239 15.8816 89.068 15.8816C89.068 19.9093 89.068 23.937 89.068 27.9647C85.0403 27.9811 81.0126 27.9483 76.9849 27.9811C76.9194 23.9534 76.9849 19.9257 76.9521 15.8816Z" fill="#1C315C"/>
<path d="M64.0176 28.8161C68.0617 28.8161 72.0894 28.8161 76.1335 28.8161C76.1335 32.8602 76.1335 36.8879 76.1335 40.932C72.0894 40.932 68.0617 40.932 64.0176 40.932C64.0176 36.8879 64.0176 32.8602 64.0176 28.8161Z" fill="#1C315C"/>
<path d="M60.5467 53.0806C61.8566 52.0983 63.543 51.8035 65.1475 51.7872C66.752 51.8035 68.4384 52.0983 69.7483 53.1134C70.7634 53.8665 71.3528 55.0617 71.5329 56.2897C70.3213 56.3061 69.1261 56.2897 67.9145 56.2897C67.7017 55.4874 67.2268 54.6688 66.3918 54.3904C65.2785 54.0466 63.9195 54.1121 63.0354 54.9471C62.2659 55.7658 62.184 56.9773 62.3478 58.0252C62.4951 58.9748 63.1828 59.8262 64.1324 60.0391C65.1639 60.301 66.4246 60.2355 67.2268 59.4496C67.5871 59.0731 67.7671 58.5819 67.9309 58.0907C69.1425 58.0907 70.3377 58.0743 71.5493 58.1071C71.3528 59.3023 70.7961 60.4647 69.8137 61.2179C68.1928 62.4786 66.0316 62.6751 64.0505 62.5113C62.577 62.364 61.0379 61.8728 59.9901 60.7758C58.8603 59.5806 58.5493 57.8287 58.7785 56.2406C58.9095 55.0126 59.548 53.8174 60.5467 53.0806Z" fill="#1C315C"/>
<path d="M3.19287 51.9836C4.38809 51.9836 5.56693 51.9836 6.76214 51.9836C6.76214 53.2771 6.76214 54.5705 6.76214 55.8804C8.44854 55.8804 10.1513 55.8804 11.8377 55.8804C11.8377 54.5869 11.8377 53.2935 11.8377 52C13.0165 52 14.2118 52 15.407 52C15.407 55.4547 15.407 58.9093 15.407 62.3476C14.2281 62.3476 13.0329 62.3476 11.8377 62.3476C11.8377 61.0542 11.8377 59.7607 11.8377 58.4509C10.1513 58.4509 8.44854 58.4509 6.76214 58.4509C6.76214 59.7443 6.76214 61.0378 6.76214 62.3476C5.5833 62.3476 4.38809 62.3476 3.19287 62.3476C3.19287 58.893 3.19287 55.4383 3.19287 51.9836Z" fill="#1C315C"/>
<path d="M16.8313 51.9836C20.2369 51.9836 23.626 51.9836 27.0152 51.9836C27.0152 52.8023 27.0152 53.6209 27.0152 54.4396C24.7885 54.4396 22.5618 54.4396 20.3351 54.4396C20.3351 54.898 20.3351 55.3728 20.3351 55.8313C22.4144 55.8313 24.5102 55.8313 26.5895 55.8313C26.5895 56.6335 26.5895 57.4358 26.5895 58.2544C24.4938 58.2544 22.4144 58.2544 20.3351 58.2544C20.3351 58.8111 20.3351 59.3678 20.3351 59.9244C22.6109 59.9244 24.8867 59.9244 27.1625 59.9244C27.1625 60.7267 27.1625 61.529 27.1625 62.3476C23.7079 62.3476 20.2532 62.3476 16.8149 62.3476C16.8313 58.893 16.8313 55.4383 16.8313 51.9836Z" fill="#1C315C"/>
<path d="M32.4674 51.9836C33.8263 51.9836 35.1689 51.9836 36.5278 51.9836C38.116 55.4383 39.7205 58.8766 41.3087 62.3313C40.0807 62.3313 38.8528 62.3313 37.6084 62.3313C37.3956 61.791 37.1664 61.267 36.9535 60.7267C35.3163 60.7267 33.679 60.7267 32.0253 60.7267C31.7961 61.2506 31.5833 61.791 31.3704 62.3313C30.1424 62.3313 28.9145 62.3313 27.6865 62.3313C29.2911 58.893 30.8792 55.4383 32.4674 51.9836ZM33.0241 58.3199C34.0228 58.3199 35.0052 58.3199 36.0039 58.3199C35.4964 57.1083 35.0215 55.8967 34.514 54.7015C34.0064 55.9131 33.5152 57.1247 33.0241 58.3199Z" fill="#1C315C"/>
<path d="M41.9966 51.9836C43.9449 51.9836 45.8769 51.9672 47.8253 52C49.5281 52.0491 51.4109 52.262 52.7044 53.4899C53.8669 54.5542 54.1452 56.2406 54.0306 57.7469C53.9651 59.1385 53.3429 60.5957 52.0986 61.3325C50.4777 62.3312 48.4966 62.3476 46.6628 62.3312C45.1074 62.3312 43.552 62.3312 41.9966 62.3312C41.9966 58.8929 41.9966 55.4383 41.9966 51.9836ZM45.5167 54.4395C45.5167 56.2733 45.5167 58.0907 45.5167 59.9244C46.6465 59.8917 47.7926 60.0227 48.8895 59.7443C49.5117 59.5806 50.052 59.1385 50.2648 58.5164C50.5432 57.7141 50.5432 56.8136 50.314 55.995C50.1339 55.34 49.5772 54.8161 48.9223 54.636C47.8253 54.3249 46.6465 54.4723 45.5167 54.4395Z" fill="#1C315C"/>
<path d="M75.8063 51.9836C77.1652 51.9836 78.5078 51.9836 79.8667 51.9836C81.4549 55.4383 83.0594 58.8766 84.6476 62.3313C83.4196 62.3313 82.1917 62.3313 80.9637 62.3313C80.7345 61.8073 80.5053 61.267 80.2924 60.7267C78.6551 60.7267 77.0015 60.7267 75.3642 60.7267C75.1513 61.2506 74.9385 61.791 74.7093 62.3313C73.4813 62.3313 72.2534 62.3313 71.0254 62.3313C72.6136 58.8766 74.2181 55.4383 75.8063 51.9836ZM77.8365 54.6852C77.3617 55.8967 76.8541 57.1083 76.3629 58.3199C77.3453 58.3199 78.344 58.3199 79.3264 58.3199C78.8352 57.1083 78.3277 55.8967 77.8365 54.6852Z" fill="#1C315C"/>
<path d="M85.3352 51.9836C87.7911 51.9836 90.2307 51.9836 92.6702 51.9836C93.9146 52 95.2735 52.262 96.1577 53.2116C97.533 54.8161 97.14 57.8451 95.0279 58.6474C93.0632 59.4333 90.902 59.0403 88.839 59.1386C88.839 60.2028 88.839 61.267 88.839 62.3313C87.6602 62.3313 86.4977 62.3313 85.3188 62.3313C85.3352 58.893 85.3352 55.4383 85.3352 51.9836ZM88.8718 54.4396C88.8718 55.2091 88.8718 55.9622 88.8718 56.7318C89.8705 56.7318 90.8692 56.7318 91.868 56.7318C92.2937 56.7318 92.7685 56.6499 93.0959 56.3388C93.4561 55.9131 93.4889 55.2255 93.1287 54.7998C92.8012 54.4559 92.2937 54.4396 91.8516 54.4396C90.8529 54.4396 89.8541 54.4396 88.8718 54.4396Z" fill="#1C315C"/>
<path d="M98.0732 51.9836C99.2521 51.9836 100.447 51.9836 101.643 51.9836C101.643 55.4383 101.643 58.893 101.643 62.3313C100.464 62.3313 99.2685 62.3313 98.0732 62.3313C98.0732 58.893 98.0732 55.4383 98.0732 51.9836Z" fill="#1C315C"/>
<path d="M102.788 51.9836C106.57 51.9836 110.353 51.9836 114.118 51.9836C114.118 52.8023 114.118 53.6209 114.118 54.4396C112.808 54.4396 111.499 54.4396 110.189 54.4396C110.189 57.0756 110.189 59.7116 110.189 62.3313C109.01 62.3313 107.848 62.3313 106.669 62.3313C106.669 59.6952 106.669 57.0592 106.669 54.4396C105.375 54.4396 104.082 54.4396 102.772 54.4396C102.788 53.6209 102.788 52.8023 102.788 51.9836Z" fill="#1C315C"/>
<path d="M117.197 51.9836C118.556 51.9836 119.915 51.9836 121.257 51.9836C122.845 55.4383 124.45 58.893 126.054 62.3313C124.826 62.3313 123.582 62.3313 122.354 62.3313C122.141 61.791 121.912 61.267 121.683 60.7267C120.046 60.7267 118.408 60.7267 116.755 60.7267C116.525 61.2506 116.313 61.791 116.1 62.3313C114.872 62.3313 113.644 62.3313 112.399 62.3313C114.02 58.8766 115.608 55.4383 117.197 51.9836ZM117.753 58.3199C118.736 58.3199 119.734 58.3199 120.733 58.3199C120.242 57.1083 119.734 55.8967 119.243 54.7015C118.736 55.9131 118.261 57.1247 117.753 58.3199Z" fill="#1C315C"/>
<path d="M126.726 51.9836C127.904 51.9836 129.067 51.9836 130.246 51.9836C130.246 54.636 130.246 57.2721 130.246 59.9244C132.489 59.9244 134.716 59.9244 136.959 59.9244C136.959 60.7267 136.959 61.529 136.959 62.3476C133.553 62.3476 130.131 62.3476 126.726 62.3476C126.726 58.893 126.726 55.4383 126.726 51.9836Z" fill="#1C315C"/>
</svg>
