<svg width="21" height="19" viewBox="0 0 21 19" fill="none" xmlns="http://www.w3.org/2000/svg">
<path fill-rule="evenodd" clip-rule="evenodd" d="M9.81221 0.274289C10.198 -0.0914298 10.8024 -0.0914298 11.1882 0.274289L18.1862 6.90429L18.1892 6.90729L20.6882 9.27429C21.0892 9.65426 21.1062 10.2873 20.7262 10.6883C20.3462 11.0892 19.7132 11.1063 19.3122 10.7263L18.5002 9.95629V16.5003C18.5002 17.6049 17.6048 18.5003 16.5002 18.5003H4.50021C3.39564 18.5003 2.50021 17.6049 2.50021 16.5003V9.95629L1.68821 10.7263C1.28725 11.1063 0.654184 11.0892 0.274212 10.6883C-0.10576 10.2873 -0.0887465 9.65426 0.312212 9.27429L2.81121 6.90729C2.81221 6.90628 2.81321 6.90528 2.81421 6.90429L9.81221 0.274289ZM4.50021 8.06229V16.5003H8.50021V12.5003C8.50021 11.3957 9.39564 10.5003 10.5002 10.5003C11.6048 10.5003 12.5002 11.3957 12.5002 12.5003V16.5003H16.5002V8.06229L10.5002 2.37829L4.50021 8.06229Z" fill="white"/>
</svg>
