<svg width="141" height="65" viewBox="0 0 141 65" fill="none" xmlns="http://www.w3.org/2000/svg">
<path d="M50.8105 15.9673V28.2058H63.049V15.9673H50.8105Z" fill="#1C315C"/>
<path d="M50.7427 2.84517V15.0837H62.9812V2.84517H50.7427Z" fill="#F8991D"/>
<path d="M63.8652 29.021V41.2595H76.1037V29.021H63.8652Z" fill="#1C315C"/>
<path d="M63.9331 15.8989V28.1374H76.1716V15.8989H63.9331Z" fill="#F8991D"/>
<path d="M63.8647 2.77692V15.0154H76.1032V2.77692H63.8647Z" fill="#1C315C"/>
<path d="M76.9873 29.0886V41.3271H89.2258V29.0886H76.9873Z" fill="#F8991D"/>
<path d="M77.0552 15.9666V28.2051H89.2937V15.9666H77.0552Z" fill="#1C315C"/>
<path d="M76.9868 2.8445V15.083H89.2253V2.8445H76.9868Z" fill="#F8991D"/>
<path d="M14.4145 52.6256V63.0963H10.879V59.1528H5.5756V63.0963H2.04004V52.6256H5.5756V56.5691H10.879V52.6256H14.4145Z" fill="#1C315C"/>
<path d="M26.3814 63.0963H15.9106V52.6256H26.2454V55.0733H19.4462V56.5691H25.8374V59.0168H19.4462V60.7846H26.3814V63.0963Z" fill="#1C315C"/>
<path d="M36.4436 61.4645H31.2763L30.5964 63.0963H26.9248L31.8202 52.6256H35.8997L40.7951 63.0963H37.1235L36.4436 61.4645ZM35.3558 59.0168L33.8599 55.2093L32.3641 59.0168H35.3558Z" fill="#1C315C"/>
<path d="M53.7136 57.793C53.7136 62.1444 50.45 63.0963 47.0504 63.0963H41.4751V52.6256H47.0504C50.314 52.6256 53.7136 53.4415 53.7136 57.793ZM50.178 57.793C50.178 55.0733 48.5462 54.9373 46.3705 54.9373H45.1466V60.6486H46.3705C48.4102 60.6486 50.178 60.5126 50.178 57.793Z" fill="#1C315C"/>
<path d="M67.8553 58.7449H71.5268C70.9829 62.0085 68.1272 63.2324 65.1356 63.2324C61.736 63.2324 58.6084 61.7366 58.6084 57.793C58.6084 53.8495 61.736 52.3537 65.1356 52.3537C68.2632 52.3537 71.1189 53.5776 71.5268 56.8412H67.8553C67.5833 55.4813 66.7674 54.6654 64.9996 54.6654C62.9599 54.6654 62.008 55.8893 62.008 57.6571C62.008 59.5608 62.9599 60.7847 64.9996 60.7847C66.7674 60.9207 67.5833 60.1048 67.8553 58.7449Z" fill="#1C315C"/>
<path d="M80.502 61.4645H75.4706L74.7907 63.0963H71.1191L76.0145 52.6256H80.094L84.9894 63.0963H81.3179L80.502 61.4645ZM79.5501 59.0168L78.0543 55.2093L76.5585 59.0168H79.5501Z" fill="#1C315C"/>
<path d="M97.3633 56.1612C97.3633 58.7449 95.4595 59.8327 92.6038 59.8327H89.0683V63.0963H85.5327V52.6256H93.0118C95.8674 52.6256 97.3633 53.9854 97.3633 56.1612ZM93.6917 56.1612C93.6917 55.3453 93.1478 55.0733 92.0599 55.0733H89.0683V57.521H92.0599C93.2838 57.385 93.6917 56.9771 93.6917 56.1612Z" fill="#1C315C"/>
<path d="M102.123 52.6256V63.0963H98.5879V52.6256H102.123Z" fill="#1C315C"/>
<path d="M114.77 55.0733H110.827V63.0963H107.291V55.0733H103.348V52.6256H114.77V55.0733Z" fill="#1C315C"/>
<path d="M122.522 61.4645H117.49L116.81 63.0963H113.139L118.034 52.6256H122.114L127.009 63.0963H123.337L122.522 61.4645ZM121.57 59.0168L120.074 55.2093L118.578 59.0168H121.57Z" fill="#1C315C"/>
<path d="M138.022 63.0962H127.688V52.6255H131.223V60.6485H138.022V63.0962Z" fill="#1C315C"/>
</svg>
