<svg width="20" height="19" viewBox="0 0 20 19" fill="none" xmlns="http://www.w3.org/2000/svg">
<path fill-rule="evenodd" clip-rule="evenodd" d="M17 0C15.3431 0 14 1.34315 14 3H6C2.68629 3 0 5.68629 0 9V16C0 17.6569 1.34315 19 3 19H17C18.6569 19 20 17.6569 20 16V9C20 7.322 19.31 5.804 18.2 4.715C19.2976 4.20797 20.0003 3.10906 20 1.9C20 0.850659 19.1493 0 18.1 0H17ZM14 5H10.472C11.4578 6.09893 12.002 7.52374 12 9V17H17C17.5523 17 18 16.5523 18 16V9C18 7.52 17.196 6.227 16 5.535V10C16 10.5523 15.5523 11 15 11C14.4477 11 14 10.5523 14 10V5ZM16.9 3H16C16 2.44772 16.4477 2 17 2H17.995C17.9433 2.56624 17.4686 2.99977 16.9 3ZM2 9C2 6.79086 3.79086 5 6 5C8.20914 5 10 6.79086 10 9V17H3C2.44772 17 2 16.5523 2 16V9ZM4 9C3.44772 9 3 9.44771 3 10C3 10.5523 3.44772 11 4 11H8C8.55229 11 9 10.5523 9 10C9 9.44771 8.55229 9 8 9H4Z" fill="white"/>
</svg>
