<svg width="125" height="64" viewBox="0 0 125 64" fill="none" xmlns="http://www.w3.org/2000/svg">
<path d="M64.0974 32C64.0974 49.6731 49.7705 64 32.0974 64C14.4243 64 0.0974121 49.6731 0.0974121 32C0.0974121 14.3269 14.4243 0 32.0974 0C49.7705 0 64.0974 14.3269 64.0974 32Z" fill="#1166E3"/>
<path d="M17.1107 44.5128C14.6518 44.5128 12.5152 43.9876 10.7008 42.9372C8.91035 41.8868 7.52572 40.3828 6.54693 38.4252C5.56813 36.4676 5.07874 34.1758 5.07874 31.5498C5.07874 28.9238 5.5562 26.6439 6.51112 24.7102C7.48991 22.7526 8.88648 21.2486 10.7008 20.1982C12.5152 19.1478 14.6518 18.6226 17.1107 18.6226C19.5697 18.6226 21.6943 19.1478 23.4848 20.1982C25.2992 21.2486 26.6838 22.7526 27.6387 24.7102C28.6175 26.6439 29.1069 28.9238 29.1069 31.5498C29.1069 34.1758 28.6175 36.4676 27.6387 38.4252C26.6599 40.3828 25.2634 41.8868 23.449 42.9372C21.6585 43.9876 19.5458 44.5128 17.1107 44.5128ZM17.1107 40.8245C19.4264 40.8245 21.2288 40.0247 22.518 38.4252C23.831 36.8257 24.4875 34.5339 24.4875 31.5498C24.4875 28.5657 23.831 26.2858 22.518 24.7102C21.2288 23.1107 19.4264 22.3109 17.1107 22.3109C14.7712 22.3109 12.9449 23.1107 11.6319 24.7102C10.3427 26.2858 9.69816 28.5657 9.69816 31.5498C9.69816 34.5339 10.3427 36.8257 11.6319 38.4252C12.9449 40.0247 14.7712 40.8245 17.1107 40.8245Z" fill="white"/>
<path d="M35.5991 44.4054C34.9545 44.4054 34.4174 44.2264 33.9876 43.8683C33.5818 43.4863 33.3789 42.9492 33.3789 42.2568V20.8786C33.3789 20.1862 33.5818 19.661 33.9876 19.3029C34.4174 18.9448 34.9545 18.7658 35.5991 18.7658C36.2436 18.7658 36.7808 18.9448 37.2105 19.3029C37.6402 19.661 37.8551 20.1862 37.8551 20.8786V42.2568C37.8551 42.9492 37.6402 43.4863 37.2105 43.8683C36.7808 44.2264 36.2436 44.4054 35.5991 44.4054Z" fill="white"/>
<path d="M50.0628 26.25C52.4978 26.25 54.3002 26.8587 55.47 28.0763C56.6636 29.2699 57.2605 31.0962 57.2605 33.5551V42.2927C57.2605 42.9372 57.0695 43.4505 56.6875 43.8325C56.3056 44.1906 55.7803 44.3696 55.1119 44.3696C54.4912 44.3696 53.9779 44.1786 53.5721 43.7966C53.1901 43.4147 52.9991 42.9134 52.9991 42.2927V41.5048C52.5933 42.4359 51.9487 43.164 51.0654 43.6892C50.206 44.2144 49.2033 44.477 48.0574 44.477C46.8876 44.477 45.8253 44.2383 44.8704 43.7608C43.9155 43.2834 43.1635 42.6269 42.6144 41.7913C42.0653 40.9558 41.7908 40.0247 41.7908 38.9982C41.7908 37.709 42.113 36.6944 42.7576 35.9544C43.4261 35.2143 44.5003 34.6772 45.9805 34.3429C47.4606 34.0087 49.5017 33.8416 52.1039 33.8416H52.9991V33.018C52.9991 31.8482 52.7485 31.0007 52.2471 30.4755C51.7458 29.9264 50.9341 29.6519 49.8121 29.6519C49.1198 29.6519 48.4155 29.7593 47.6993 29.9742C46.9831 30.1652 46.1356 30.4516 45.1569 30.8336C44.5362 31.144 44.0826 31.2991 43.7961 31.2991C43.3664 31.2991 43.0083 31.144 42.7218 30.8336C42.4592 30.5233 42.3279 30.1174 42.3279 29.6161C42.3279 29.2102 42.4234 28.8641 42.6144 28.5776C42.8292 28.2673 43.1754 27.9808 43.6529 27.7182C44.4884 27.2646 45.4791 26.9065 46.625 26.6439C47.7948 26.3813 48.9407 26.25 50.0628 26.25ZM48.9527 41.2542C50.1463 41.2542 51.1132 40.8603 51.8532 40.0725C52.6172 39.2608 52.9991 38.2223 52.9991 36.957V36.205H52.3546C50.7551 36.205 49.5137 36.2767 48.6304 36.4199C47.7471 36.5631 47.1144 36.8138 46.7325 37.1719C46.3505 37.53 46.1595 38.0194 46.1595 38.6401C46.1595 39.404 46.4221 40.0367 46.9473 40.538C47.4964 41.0154 48.1649 41.2542 48.9527 41.2542Z" fill="white"/>
<path d="M75.7195 44.4771C73.9768 44.4771 72.437 44.1071 71.1001 43.367C69.7871 42.6269 68.7725 41.5765 68.0563 40.2158C67.3401 38.855 66.982 37.2674 66.982 35.4531C66.982 33.6387 67.352 32.0392 68.0921 30.6546C68.856 29.2461 69.9184 28.1599 71.2791 27.3959C72.6399 26.632 74.2036 26.25 75.9702 26.25C76.9012 26.25 77.8323 26.3813 78.7633 26.6439C79.7182 26.9065 80.5538 27.2646 81.27 27.7182C82.0339 28.2196 82.4159 28.8522 82.4159 29.6161C82.4159 30.1413 82.2846 30.5711 82.022 30.9053C81.7833 31.2156 81.461 31.3708 81.0551 31.3708C80.7925 31.3708 80.518 31.3111 80.2315 31.1918C79.945 31.0724 79.6586 30.9292 79.3721 30.762C78.8469 30.4517 78.3455 30.213 77.8681 30.0459C77.3906 29.8549 76.8415 29.7594 76.2209 29.7594C74.7407 29.7594 73.5948 30.2488 72.7831 31.2276C71.9953 32.1825 71.6014 33.5671 71.6014 35.3815C71.6014 37.1719 71.9953 38.5566 72.7831 39.5354C73.5948 40.4903 74.7407 40.9678 76.2209 40.9678C76.8177 40.9678 77.3429 40.8842 77.7965 40.7171C78.2739 40.5261 78.7991 40.2754 79.3721 39.9651C79.7302 39.7502 80.0405 39.5951 80.3031 39.4996C80.5657 39.3802 80.8283 39.3205 81.0909 39.3205C81.4729 39.3205 81.7952 39.4876 82.0578 39.8218C82.3204 40.1561 82.4517 40.5739 82.4517 41.0752C82.4517 41.481 82.3562 41.8391 82.1652 42.1495C81.9981 42.4359 81.7116 42.6985 81.3058 42.9373C80.5657 43.4147 79.7063 43.7967 78.7275 44.0832C77.7487 44.3458 76.7461 44.4771 75.7195 44.4771Z" fill="#172B4D"/>
<path d="M87.6542 44.4055C87.0096 44.4055 86.4724 44.2264 86.0427 43.8683C85.6369 43.4864 85.434 42.9492 85.434 42.2569V28.4344C85.434 27.7421 85.6369 27.2169 86.0427 26.8588C86.4724 26.5007 87.0096 26.3217 87.6542 26.3217C88.2987 26.3217 88.8359 26.5007 89.2656 26.8588C89.6953 27.2169 89.9102 27.7421 89.9102 28.4344V42.2569C89.9102 42.9492 89.6953 43.4864 89.2656 43.8683C88.8359 44.2264 88.2987 44.4055 87.6542 44.4055ZM87.6542 23.1346C86.8425 23.1346 86.1979 22.9198 85.7204 22.49C85.243 22.0365 85.0043 21.4516 85.0043 20.7354C85.0043 20.0192 85.243 19.4462 85.7204 19.0165C86.1979 18.5868 86.8425 18.3719 87.6542 18.3719C88.442 18.3719 89.0746 18.5868 89.5521 19.0165C90.0534 19.4462 90.3041 20.0192 90.3041 20.7354C90.3041 21.4516 90.0653 22.0365 89.5879 22.49C89.1104 22.9198 88.4658 23.1346 87.6542 23.1346Z" fill="#172B4D"/>
<path d="M104.391 41.0752C105.585 41.1468 106.182 41.6839 106.182 42.6866C106.182 43.2596 105.943 43.7012 105.465 44.0116C105.012 44.298 104.355 44.4174 103.496 44.3697L102.529 44.298C98.5184 44.0116 96.5131 41.863 96.5131 37.8523V30.0459H94.7226C94.078 30.0459 93.5767 29.9026 93.2186 29.6161C92.8844 29.3297 92.7173 28.9119 92.7173 28.3628C92.7173 27.8137 92.8844 27.3959 93.2186 27.1095C93.5767 26.823 94.078 26.6798 94.7226 26.6798H96.5131V23.3853C96.5131 22.7407 96.716 22.2274 97.1219 21.8455C97.5277 21.4635 98.0768 21.2725 98.7691 21.2725C99.4375 21.2725 99.9747 21.4635 100.381 21.8455C100.786 22.2274 100.989 22.7407 100.989 23.3853V26.6798H104.033C104.678 26.6798 105.167 26.823 105.501 27.1095C105.859 27.3959 106.038 27.8137 106.038 28.3628C106.038 28.9119 105.859 29.3297 105.501 29.6161C105.167 29.9026 104.678 30.0459 104.033 30.0459H100.989V38.1746C100.989 39.9412 101.801 40.8842 103.424 41.0036L104.391 41.0752Z" fill="#172B4D"/>
<path d="M121.005 27.6108C121.196 27.1811 121.447 26.8707 121.757 26.6798C122.091 26.4649 122.449 26.3575 122.831 26.3575C123.38 26.3575 123.87 26.5485 124.3 26.9304C124.753 27.2885 124.98 27.7421 124.98 28.2912C124.98 28.5538 124.908 28.8283 124.765 29.1148L114.989 49.5978C114.583 50.4095 113.951 50.8154 113.091 50.8154C112.542 50.8154 112.053 50.6363 111.623 50.2782C111.217 49.944 111.014 49.5143 111.014 48.9891C111.014 48.7265 111.086 48.4281 111.229 48.0939L113.664 42.9731L107.004 29.1148C106.884 28.8761 106.825 28.6015 106.825 28.2912C106.825 27.7421 107.051 27.2766 107.505 26.8946C107.982 26.5126 108.52 26.3217 109.116 26.3217C109.522 26.3217 109.892 26.4291 110.226 26.6439C110.561 26.8349 110.823 27.1453 111.014 27.575L116.028 38.6401L121.005 27.6108Z" fill="#172B4D"/>
<circle cx="55.526" cy="23.4285" r="2.09524" fill="white"/>
</svg>
