<svg width="24" height="19" viewBox="0 0 24 19" fill="none" xmlns="http://www.w3.org/2000/svg">
<path d="M23.3487 2.24731C22.4731 2.62673 21.5684 2.8894 20.6052 3.00614C21.5975 2.42243 22.3564 1.48848 22.7066 0.350231C21.7727 0.904762 20.7512 1.28418 19.6713 1.51767C18.7957 0.583718 17.5407 0 16.169 0C13.5131 0 11.3825 2.15975 11.3825 4.78648C11.3825 5.1659 11.4117 5.51613 11.4992 5.86636C7.52995 5.69124 4.02765 3.76498 1.66359 0.875576C-0.0291857 3.91091 1.8679 6.42089 3.12289 7.26728C2.36406 7.26728 1.60522 7.03379 0.963134 6.68356C0.963134 9.04762 2.62673 11.0031 4.78648 11.4409C4.31951 11.5868 3.26882 11.6743 2.62673 11.5284C3.23963 13.4255 5.01997 14.8264 7.09217 14.8556C5.45776 16.1398 3.06452 17.1613 0 16.8402C2.13057 18.212 4.64055 19 7.35484 19C16.169 19 20.9555 11.7035 20.9555 5.39939C20.9555 5.19508 20.9555 4.99078 20.9263 4.78648C21.9186 4.05684 22.7358 3.21045 23.3487 2.24731V2.24731Z" fill="white"/>
</svg>
