<svg width="24" height="24" viewBox="0 0 24 24" fill="none" xmlns="http://www.w3.org/2000/svg">
<path d="M12 23.25C18.2132 23.25 23.25 18.2132 23.25 12C23.25 5.7868 18.2132 0.75 12 0.75C5.7868 0.75 0.75 5.7868 0.75 12C0.75 18.2132 5.7868 23.25 12 23.25Z" fill="#2956B0"/>
<path d="M12 22.0781C17.566 22.0781 22.0781 17.566 22.0781 12C22.0781 6.43401 17.566 1.92188 12 1.92188C6.43401 1.92188 1.92188 6.43401 1.92188 12C1.92188 17.566 6.43401 22.0781 12 22.0781Z" fill="white"/>
<path d="M6.40377 18.9256H17.5951C18.2924 18.3614 18.9029 17.6943 19.4032 16.947H4.5957C5.09595 17.6943 5.70645 18.3614 6.40377 18.9256Z" fill="#D6062F"/>
<path d="M13.4834 11.0113H20.848C20.7721 10.3252 20.6183 9.66271 20.3956 9.03271H13.4834V11.0113Z" fill="#D6062F"/>
<path d="M13.4834 7.05423H19.4032C18.903 6.30695 18.2925 5.63982 17.5952 5.07568H13.4834V7.05423Z" fill="#D6062F"/>
<path d="M3.60371 14.9685H20.396C20.6187 14.3385 20.7725 13.676 20.8484 12.99H3.15137C3.22726 13.676 3.38101 14.3385 3.60371 14.9685Z" fill="#D6062F"/>
<path d="M6.4043 18.9255C9.62067 21.5278 14.291 21.5992 17.5957 18.9255H6.4043Z" fill="white"/>
<path d="M4.59595 16.9471H19.4034C19.812 16.3367 20.1469 15.6729 20.3958 14.9685H3.60352C3.85252 15.6729 4.18734 16.3367 4.59595 16.9471Z" fill="white"/>
<path d="M3.09619 12.0007V12.99H3.15118C3.11527 12.6651 3.09619 12.3352 3.09619 12.0007Z" fill="white"/>
<path d="M3.09619 11.0112V12.0005C3.09619 11.6661 3.11527 11.3361 3.15118 11.0112H3.09619Z" fill="white"/>
<path d="M20.8482 12.9898C20.9193 12.3466 20.9236 11.6938 20.8482 11.0112C19.9317 11.0112 3.81131 11.0112 3.15117 11.0112C3.08006 11.6544 3.0757 12.3072 3.15117 12.9898H20.8482Z" fill="white"/>
<path d="M13.4834 9.03275H20.3956C20.1466 8.32836 19.8118 7.66456 19.4032 7.0542H13.4834V9.03275Z" fill="white"/>
<path d="M17.5952 5.0757C16.4308 4.13365 15.0243 3.47951 13.4834 3.22095V5.0757H17.5952Z" fill="white"/>
<path d="M3.15137 11.0113H13.4838C13.4838 10.1655 13.4838 3.9613 13.4838 3.2209C8.41477 2.3704 3.70998 5.9592 3.15137 11.0113Z" fill="#2956B0"/>
<path d="M9.02999 4.82603L9.44118 4.5273L9.85232 4.82603L9.69529 4.34266L10.1065 4.04392H9.59821L9.44118 3.56055L9.2841 4.04392H8.77588L9.18707 4.34266L9.02999 4.82603Z" fill="white"/>
<path d="M11.3327 4.82603L11.7439 4.5273L12.1551 4.82603L11.998 4.34266L12.4092 4.04392H11.9009L11.7439 3.56055L11.5868 4.04392H11.0786L11.4898 4.34266L11.3327 4.82603Z" fill="white"/>
<path d="M6.72725 6.73321L7.13844 6.43448L7.54958 6.73321L7.39255 6.24984L7.80374 5.9511H7.29547L7.13844 5.46777L6.98136 5.9511H6.47314L6.88433 6.24984L6.72725 6.73321Z" fill="white"/>
<path d="M9.02999 6.73321L9.44118 6.43448L9.85232 6.73321L9.69529 6.24984L10.1065 5.9511H9.59821L9.44118 5.46777L9.2841 5.9511H8.77588L9.18707 6.24984L9.02999 6.73321Z" fill="white"/>
<path d="M11.3327 6.73321L11.7439 6.43448L12.1551 6.73321L11.998 6.24984L12.4092 5.9511H11.9009L11.7439 5.46777L11.5868 5.9511H11.0786L11.4898 6.24984L11.3327 6.73321Z" fill="white"/>
<path d="M4.8362 7.375L4.67916 7.85833H4.1709L4.58209 8.15706L4.42501 8.64044L4.8362 8.3417L5.24738 8.64044L5.0903 8.15706L5.50149 7.85833H4.99323L4.8362 7.375Z" fill="white"/>
<path d="M6.72725 8.64044L7.13844 8.3417L7.54958 8.64044L7.39255 8.15706L7.80374 7.85833H7.29547L7.13844 7.375L6.98136 7.85833H6.47314L6.88433 8.15706L6.72725 8.64044Z" fill="white"/>
<path d="M9.02999 8.64044L9.44118 8.3417L9.85232 8.64044L9.69529 8.15706L10.1065 7.85833H9.59821L9.44118 7.375L9.2841 7.85833H8.77588L9.18707 8.15706L9.02999 8.64044Z" fill="white"/>
<path d="M11.3327 8.64044L11.7439 8.3417L12.1551 8.64044L11.998 8.15706L12.4092 7.85833H11.9009L11.7439 7.375L11.5868 7.85833H11.0786L11.4898 8.15706L11.3327 8.64044Z" fill="white"/>
<path d="M4.99323 9.7656L4.8362 9.28223L4.67916 9.7656H4.1709L4.58209 10.0643L4.42501 10.5477L4.8362 10.2489L5.24738 10.5477L5.0903 10.0643L5.50149 9.7656H4.99323Z" fill="white"/>
<path d="M6.72725 10.5477L7.13844 10.2489L7.54958 10.5477L7.39255 10.0643L7.80374 9.7656H7.29547L7.13844 9.28223L6.98136 9.7656H6.47314L6.88433 10.0643L6.72725 10.5477Z" fill="white"/>
<path d="M9.02999 10.5477L9.44118 10.2489L9.85232 10.5477L9.69529 10.0643L10.1065 9.7656H9.59821L9.44118 9.28223L9.2841 9.7656H8.77588L9.18707 10.0643L9.02999 10.5477Z" fill="white"/>
<path d="M11.3327 10.5477L11.7439 10.2489L12.1551 10.5477L11.998 10.0643L12.4092 9.7656H11.9009L11.7439 9.28223L11.5868 9.7656H11.0786L11.4898 10.0643L11.3327 10.5477Z" fill="white"/>
</svg>
