<svg width="24" height="24" viewBox="0 0 24 24" fill="none" xmlns="http://www.w3.org/2000/svg">
<path d="M12 23.25C18.2132 23.25 23.25 18.2132 23.25 12C23.25 5.7868 18.2132 0.75 12 0.75C5.7868 0.75 0.75 5.7868 0.75 12C0.75 18.2132 5.7868 23.25 12 23.25Z" fill="#D80027"/>
<path d="M12 22.0781C17.566 22.0781 22.0781 17.566 22.0781 12C22.0781 6.43401 17.566 1.92188 12 1.92188C6.43401 1.92188 1.92188 6.43401 1.92188 12C1.92188 17.566 6.43401 22.0781 12 22.0781Z" fill="white"/>
<path fill-rule="evenodd" clip-rule="evenodd" d="M15.9568 4.02288C14.7647 3.43038 13.4213 3.09668 11.9997 3.09668C10.5782 3.09668 9.23475 3.43038 8.04263 4.02288V19.9774C9.23475 20.5699 10.5782 20.9036 11.9997 20.9036C13.4213 20.9036 14.7647 20.5699 15.9568 19.9774V19.976C18.8777 18.5153 20.8837 15.4964 20.8837 12.0085C20.8837 8.52058 18.8777 5.50165 15.9568 4.04097V4.02288ZM3.09619 12.0001C3.09619 15.4958 5.11111 18.5204 8.04257 19.9774V4.02288C5.11111 5.47985 3.09619 8.50442 3.09619 12.0001Z" fill="#D80027"/>
<path d="M12 6.84375L13.2284 10.6216H17.2031L13.9874 12.9565L15.2157 16.7344L12 14.3995L8.7843 16.7344L10.0126 12.9565L6.79688 10.6216H10.7717L12 6.84375Z" fill="#FFDA45"/>
</svg>
